solid ASM0002
  facet normal 8.505686e-04 5.550520e-04 9.999995e-01
    outer loop
      vertex -1.063108e-02 2.847133e-02 6.538471e-03
      vertex -1.199032e-02 3.636055e-02 6.535248e-03
      vertex -1.227954e-02 3.629965e-02 6.535528e-03
    endloop
  endfacet
  facet normal -2.060567e-01 9.785400e-01 -3.678755e-04
    outer loop
      vertex -1.199585e-02 3.635695e-02 3.525132e-05
      vertex -1.227954e-02 3.629965e-02 6.535528e-03
      vertex -1.199032e-02 3.636055e-02 6.535248e-03
    endloop
  endfacet
  facet normal -9.785397e-01 -2.060563e-01 9.466876e-04
    outer loop
      vertex -1.063661e-02 2.846772e-02 3.847412e-05
      vertex -1.063108e-02 2.847133e-02 6.538471e-03
      vertex -1.227954e-02 3.629965e-02 6.535528e-03
    endloop
  endfacet
  facet normal -9.785397e-01 -2.060563e-01 9.466876e-04
    outer loop
      vertex -1.063661e-02 2.846772e-02 3.847412e-05
      vertex -1.227954e-02 3.629965e-02 6.535528e-03
      vertex -1.228507e-02 3.629604e-02 3.553112e-05
    endloop
  endfacet
  facet normal -2.060567e-01 9.785400e-01 -3.678755e-04
    outer loop
      vertex -1.199585e-02 3.635695e-02 3.525132e-05
      vertex -1.228507e-02 3.629604e-02 3.553112e-05
      vertex -1.227954e-02 3.629965e-02 6.535528e-03
    endloop
  endfacet
  facet normal 8.505686e-04 5.550520e-04 9.999995e-01
    outer loop
      vertex -1.063108e-02 2.847133e-02 6.538471e-03
      vertex -6.662831e-03 3.693389e-02 6.530398e-03
      vertex -1.199032e-02 3.636055e-02 6.535248e-03
    endloop
  endfacet
  facet normal -1.070012e-01 9.942588e-01 -4.608538e-04
    outer loop
      vertex -1.199585e-02 3.635695e-02 3.525132e-05
      vertex -1.199032e-02 3.636055e-02 6.535248e-03
      vertex -6.662831e-03 3.693389e-02 6.530398e-03
    endloop
  endfacet
  facet normal 8.505686e-04 5.550520e-04 9.999995e-01
    outer loop
      vertex -5.485413e-03 2.987970e-02 6.533312e-03
      vertex -8.182448e-04 3.700305e-02 6.525389e-03
      vertex -6.662831e-03 3.693389e-02 6.530398e-03
    endloop
  endfacet
  facet normal -1.182333e-02 9.998827e-01 9.734676e-03
    outer loop
      vertex -3.735561e-03 3.700276e-02 3.011569e-03
      vertex -6.662831e-03 3.693389e-02 6.530398e-03
      vertex -8.182448e-04 3.700305e-02 6.525389e-03
    endloop
  endfacet
  facet normal 8.505686e-04 5.550520e-04 9.999995e-01
    outer loop
      vertex -1.063108e-02 2.847133e-02 6.538471e-03
      vertex -5.485413e-03 2.987970e-02 6.533312e-03
      vertex -6.662831e-03 3.693389e-02 6.530398e-03
    endloop
  endfacet
  facet normal -5.589114e-02 9.984316e-01 -3.246949e-03
    outer loop
      vertex -9.170143e-03 3.677240e-02 3.261726e-05
      vertex -6.662831e-03 3.693389e-02 6.530398e-03
      vertex -6.035265e-03 3.694788e-02 2.985343e-05
    endloop
  endfacet
  facet normal -2.368348e-02 9.997195e-01 -1.348325e-04
    outer loop
      vertex -3.735561e-03 3.700276e-02 3.011569e-03
      vertex -6.035265e-03 3.694788e-02 2.985343e-05
      vertex -6.662831e-03 3.693389e-02 6.530398e-03
    endloop
  endfacet
  facet normal -1.453628e-01 9.888764e-01 3.151515e-02
    outer loop
      vertex -1.199585e-02 3.635695e-02 3.525132e-05
      vertex -6.662831e-03 3.693389e-02 6.530398e-03
      vertex -9.170143e-03 3.677240e-02 3.261726e-05
    endloop
  endfacet
  facet normal 8.505686e-04 5.550520e-04 9.999995e-01
    outer loop
      vertex 1.901330e-03 3.180078e-02 6.525963e-03
      vertex 4.121309e-03 3.641544e-02 6.521513e-03
      vertex -8.182448e-04 3.700305e-02 6.525389e-03
    endloop
  endfacet
  facet normal 1.181015e-01 9.926055e-01 2.804168e-02
    outer loop
      vertex 3.259720e-03 3.659987e-02 3.622142e-03
      vertex -8.182448e-04 3.700305e-02 6.525389e-03
      vertex 4.121309e-03 3.641544e-02 6.521513e-03
    endloop
  endfacet
  facet normal 8.505686e-04 5.550520e-04 9.999995e-01
    outer loop
      vertex -9.346769e-04 3.180973e-02 6.528370e-03
      vertex 1.901330e-03 3.180078e-02 6.525963e-03
      vertex -8.182448e-04 3.700305e-02 6.525389e-03
    endloop
  endfacet
  facet normal 8.505686e-04 5.550520e-04 9.999995e-01
    outer loop
      vertex -5.485413e-03 2.987970e-02 6.533312e-03
      vertex -9.346769e-04 3.180973e-02 6.528370e-03
      vertex -8.182448e-04 3.700305e-02 6.525389e-03
    endloop
  endfacet
  facet normal 7.630841e-02 9.965955e-01 -3.121590e-02
    outer loop
      vertex 3.259720e-03 3.659987e-02 3.622142e-03
      vertex -2.214555e-03 3.701917e-02 3.626566e-03
      vertex -8.182448e-04 3.700305e-02 6.525389e-03
    endloop
  endfacet
  facet normal -1.020429e-02 9.998931e-01 1.047402e-02
    outer loop
      vertex -2.342175e-03 3.701891e-02 3.526675e-03
      vertex -8.182448e-04 3.700305e-02 6.525389e-03
      vertex -2.214555e-03 3.701917e-02 3.626566e-03
    endloop
  endfacet
  facet normal -1.867551e-02 9.997066e-01 1.542365e-02
    outer loop
      vertex -2.469985e-03 3.701846e-02 3.526784e-03
      vertex -3.735561e-03 3.700276e-02 3.011569e-03
      vertex -8.182448e-04 3.700305e-02 6.525389e-03
    endloop
  endfacet
  facet normal -3.536543e-03 9.999686e-01 7.085905e-03
    outer loop
      vertex -2.342175e-03 3.701891e-02 3.526675e-03
      vertex -2.469985e-03 3.701846e-02 3.526784e-03
      vertex -8.182448e-04 3.700305e-02 6.525389e-03
    endloop
  endfacet
  facet normal 8.505686e-04 5.550520e-04 9.999995e-01
    outer loop
      vertex 5.461505e-03 3.103126e-02 6.523362e-03
      vertex 8.707015e-03 3.496321e-02 6.518419e-03
      vertex 4.121309e-03 3.641544e-02 6.521513e-03
    endloop
  endfacet
  facet normal 3.019081e-01 9.533247e-01 4.852635e-03
    outer loop
      vertex 8.379358e-03 3.508174e-02 3.618630e-03
      vertex 4.121309e-03 3.641544e-02 6.521513e-03
      vertex 8.707015e-03 3.496321e-02 6.518419e-03
    endloop
  endfacet
  facet normal 8.505686e-04 5.550520e-04 9.999995e-01
    outer loop
      vertex 1.901330e-03 3.180078e-02 6.525963e-03
      vertex 5.461505e-03 3.103126e-02 6.523362e-03
      vertex 4.121309e-03 3.641544e-02 6.521513e-03
    endloop
  endfacet
  facet normal 2.842010e-01 9.584770e-01 -2.348795e-02
    outer loop
      vertex 8.379358e-03 3.508174e-02 3.618630e-03
      vertex 3.259720e-03 3.659987e-02 3.622142e-03
      vertex 4.121309e-03 3.641544e-02 6.521513e-03
    endloop
  endfacet
  facet normal 8.505686e-04 5.550520e-04 9.999995e-01
    outer loop
      vertex 9.867697e-03 2.960101e-02 6.520408e-03
      vertex 1.268473e-02 3.359127e-02 6.515797e-03
      vertex 8.707015e-03 3.496321e-02 6.518419e-03
    endloop
  endfacet
  facet normal 3.260519e-01 9.453428e-01 -4.134817e-03
    outer loop
      vertex 1.251518e-02 3.363707e-02 3.615915e-03
      vertex 8.707015e-03 3.496321e-02 6.518419e-03
      vertex 1.268473e-02 3.359127e-02 6.515797e-03
    endloop
  endfacet
  facet normal 8.505686e-04 5.550520e-04 9.999995e-01
    outer loop
      vertex 5.461505e-03 3.103126e-02 6.523362e-03
      vertex 9.867697e-03 2.960101e-02 6.520408e-03
      vertex 8.707015e-03 3.496321e-02 6.518419e-03
    endloop
  endfacet
  facet normal 3.297677e-01 9.440612e-01 1.326043e-03
    outer loop
      vertex 1.251518e-02 3.363707e-02 3.615915e-03
      vertex 8.379358e-03 3.508174e-02 3.618630e-03
      vertex 8.707015e-03 3.496321e-02 6.518419e-03
    endloop
  endfacet
  facet normal 8.505686e-04 5.550520e-04 9.999995e-01
    outer loop
      vertex 1.467311e-02 2.825747e-02 6.517067e-03
      vertex 1.608665e-02 3.291311e-02 6.513280e-03
      vertex 1.268473e-02 3.359127e-02 6.515797e-03
    endloop
  endfacet
  facet normal 1.954902e-01 9.806779e-01 -7.378547e-03
    outer loop
      vertex 1.591245e-02 3.292602e-02 3.613420e-03
      vertex 1.268473e-02 3.359127e-02 6.515797e-03
      vertex 1.608665e-02 3.291311e-02 6.513280e-03
    endloop
  endfacet
  facet normal 8.505686e-04 5.550520e-04 9.999995e-01
    outer loop
      vertex 9.867697e-03 2.960101e-02 6.520408e-03
      vertex 1.467311e-02 2.825747e-02 6.517067e-03
      vertex 1.268473e-02 3.359127e-02 6.515797e-03
    endloop
  endfacet
  facet normal 2.048632e-01 9.787844e-01 3.479073e-03
    outer loop
      vertex 1.591245e-02 3.292602e-02 3.613420e-03
      vertex 1.251518e-02 3.363707e-02 3.615915e-03
      vertex 1.268473e-02 3.359127e-02 6.515797e-03
    endloop
  endfacet
  facet normal 8.505686e-04 5.550520e-04 9.999995e-01
    outer loop
      vertex 1.467311e-02 2.825747e-02 6.517067e-03
      vertex 2.143672e-02 3.400786e-02 6.508122e-03
      vertex 1.608665e-02 3.291311e-02 6.513280e-03
    endloop
  endfacet
  facet normal -2.004647e-01 9.796116e-01 -1.323152e-02
    outer loop
      vertex 1.622698e-02 3.290131e-02 3.513166e-03
      vertex 1.608665e-02 3.291311e-02 6.513280e-03
      vertex 2.143672e-02 3.400786e-02 6.508122e-03
    endloop
  endfacet
  facet normal 8.422940e-02 9.964462e-01 -6.247227e-04
    outer loop
      vertex 1.591236e-02 3.292596e-02 3.513420e-03
      vertex 1.591245e-02 3.292602e-02 3.613420e-03
      vertex 1.608665e-02 3.291311e-02 6.513280e-03
    endloop
  endfacet
  facet normal 8.480270e-02 9.963975e-01 -6.582384e-04
    outer loop
      vertex 1.607054e-02 3.291250e-02 3.513293e-03
      vertex 1.591236e-02 3.292596e-02 3.513420e-03
      vertex 1.608665e-02 3.291311e-02 6.513280e-03
    endloop
  endfacet
  facet normal 7.137803e-02 9.974492e-01 -5.863671e-04
    outer loop
      vertex 1.622698e-02 3.290131e-02 3.513166e-03
      vertex 1.607054e-02 3.291250e-02 3.513293e-03
      vertex 1.608665e-02 3.291311e-02 6.513280e-03
    endloop
  endfacet
  facet normal 8.505686e-04 5.550520e-04 9.999995e-01
    outer loop
      vertex 2.295364e-02 2.861077e-02 6.509827e-03
      vertex 2.813635e-02 3.837992e-02 6.499997e-03
      vertex 2.143672e-02 3.400786e-02 6.508122e-03
    endloop
  endfacet
  facet normal -5.465068e-01 8.374546e-01 1.065360e-08
    outer loop
      vertex 2.143119e-02 3.400426e-02 8.125176e-06
      vertex 2.143672e-02 3.400786e-02 6.508122e-03
      vertex 2.813635e-02 3.837992e-02 6.499997e-03
    endloop
  endfacet
  facet normal 8.505686e-04 5.550520e-04 9.999995e-01
    outer loop
      vertex 1.880759e-02 2.791432e-02 6.513740e-03
      vertex 2.295364e-02 2.861077e-02 6.509827e-03
      vertex 2.143672e-02 3.400786e-02 6.508122e-03
    endloop
  endfacet
  facet normal 8.505686e-04 5.550520e-04 9.999995e-01
    outer loop
      vertex 1.467311e-02 2.825747e-02 6.517067e-03
      vertex 1.880759e-02 2.791432e-02 6.513740e-03
      vertex 2.143672e-02 3.400786e-02 6.508122e-03
    endloop
  endfacet
  facet normal -4.425128e-01 8.967622e-01 -1.213623e-04
    outer loop
      vertex 2.076229e-02 3.367418e-02 8.877330e-06
      vertex 2.143672e-02 3.400786e-02 6.508122e-03
      vertex 2.143119e-02 3.400426e-02 8.125176e-06
    endloop
  endfacet
  facet normal -3.693391e-01 9.292473e-01 -9.382463e-03
    outer loop
      vertex 2.007576e-02 3.340132e-02 9.612724e-06
      vertex 2.143672e-02 3.400786e-02 6.508122e-03
      vertex 2.076229e-02 3.367418e-02 8.877330e-06
    endloop
  endfacet
  facet normal -2.990868e-01 9.538608e-01 -2.639247e-02
    outer loop
      vertex 1.939961e-02 3.319314e-02 1.478867e-04
      vertex 2.143672e-02 3.400786e-02 6.508122e-03
      vertex 2.007576e-02 3.340132e-02 9.612724e-06
    endloop
  endfacet
  facet normal -2.840029e-02 9.526963e-01 -3.025941e-01
    outer loop
      vertex 1.708127e-02 3.287962e-02 3.364717e-03
      vertex 1.622698e-02 3.290131e-02 3.513166e-03
      vertex 2.143672e-02 3.400786e-02 6.508122e-03
    endloop
  endfacet
  facet normal -1.397419e-01 9.776193e-01 -1.572666e-01
    outer loop
      vertex 1.772501e-02 3.290926e-02 2.976934e-03
      vertex 1.708127e-02 3.287962e-02 3.364717e-03
      vertex 2.143672e-02 3.400786e-02 6.508122e-03
    endloop
  endfacet
  facet normal -2.323342e-01 9.709138e-01 -5.785465e-02
    outer loop
      vertex 1.827129e-02 3.296755e-02 1.761389e-03
      vertex 1.772501e-02 3.290926e-02 2.976934e-03
      vertex 2.143672e-02 3.400786e-02 6.508122e-03
    endloop
  endfacet
  facet normal -2.550108e-01 9.660401e-01 -4.166430e-02
    outer loop
      vertex 1.880794e-02 3.305640e-02 5.369349e-04
      vertex 1.827129e-02 3.296755e-02 1.761389e-03
      vertex 2.143672e-02 3.400786e-02 6.508122e-03
    endloop
  endfacet
  facet normal -2.518318e-01 9.668070e-01 -4.318605e-02
    outer loop
      vertex 1.939961e-02 3.319314e-02 1.478867e-04
      vertex 1.880794e-02 3.305640e-02 5.369349e-04
      vertex 2.143672e-02 3.400786e-02 6.508122e-03
    endloop
  endfacet
  facet normal 8.505686e-04 5.550520e-04 9.999995e-01
    outer loop
      vertex 2.742285e-02 3.048930e-02 6.504983e-03
      vertex 2.929400e-02 3.850735e-02 6.498941e-03
      vertex 2.813635e-02 3.837992e-02 6.499997e-03
    endloop
  endfacet
  facet normal -1.094202e-01 9.939955e-01 -4.586501e-04
    outer loop
      vertex 2.813082e-02 3.837631e-02 -4.261737e-11
      vertex 2.813635e-02 3.837992e-02 6.499997e-03
      vertex 2.929400e-02 3.850735e-02 6.498941e-03
    endloop
  endfacet
  facet normal 8.505686e-04 5.550520e-04 9.999995e-01
    outer loop
      vertex 2.295364e-02 2.861077e-02 6.509827e-03
      vertex 2.742285e-02 3.048930e-02 6.504983e-03
      vertex 2.813635e-02 3.837992e-02 6.499997e-03
    endloop
  endfacet
  facet normal -5.465068e-01 8.374546e-01 1.065360e-08
    outer loop
      vertex 2.143119e-02 3.400426e-02 8.125176e-06
      vertex 2.813635e-02 3.837992e-02 6.499997e-03
      vertex 2.813082e-02 3.837631e-02 -4.261737e-11
    endloop
  endfacet
  facet normal 8.505686e-04 5.550520e-04 9.999995e-01
    outer loop
      vertex 2.742285e-02 3.048930e-02 6.504983e-03
      vertex 3.041728e-02 3.880023e-02 6.497823e-03
      vertex 2.929400e-02 3.850735e-02 6.498941e-03
    endloop
  endfacet
  facet normal -2.523025e-01 9.676468e-01 -1.780891e-03
    outer loop
      vertex 3.026404e-02 3.874831e-02 -2.020972e-06
      vertex 2.929400e-02 3.850735e-02 6.498941e-03
      vertex 3.041728e-02 3.880023e-02 6.497823e-03
    endloop
  endfacet
  facet normal -1.048948e-01 9.944825e-01 -1.278429e-03
    outer loop
      vertex 2.921476e-02 3.849064e-02 -9.854594e-07
      vertex 2.813082e-02 3.837631e-02 -4.261737e-11
      vertex 2.929400e-02 3.850735e-02 6.498941e-03
    endloop
  endfacet
  facet normal -2.384873e-01 9.711455e-01 4.102232e-04
    outer loop
      vertex 2.921476e-02 3.849064e-02 -9.854594e-07
      vertex 2.929400e-02 3.850735e-02 6.498941e-03
      vertex 3.026404e-02 3.874831e-02 -2.020972e-06
    endloop
  endfacet
  facet normal 8.505686e-04 5.550520e-04 9.999995e-01
    outer loop
      vertex 2.742285e-02 3.048930e-02 6.504983e-03
      vertex 3.152955e-02 3.927081e-02 6.496616e-03
      vertex 3.041728e-02 3.880023e-02 6.497823e-03
    endloop
  endfacet
  facet normal -3.896401e-01 9.209646e-01 -2.180819e-03
    outer loop
      vertex 3.130543e-02 3.916060e-02 -3.135587e-06
      vertex 3.041728e-02 3.880023e-02 6.497823e-03
      vertex 3.152955e-02 3.927081e-02 6.496616e-03
    endloop
  endfacet
  facet normal -3.680967e-01 9.297867e-01 1.251450e-03
    outer loop
      vertex 3.026404e-02 3.874831e-02 -2.020972e-06
      vertex 3.041728e-02 3.880023e-02 6.497823e-03
      vertex 3.130543e-02 3.916060e-02 -3.135587e-06
    endloop
  endfacet
  facet normal 8.505686e-04 5.550520e-04 9.999995e-01
    outer loop
      vertex 3.202240e-02 3.375378e-02 6.499259e-03
      vertex 3.267264e-02 3.994029e-02 6.495272e-03
      vertex 3.152955e-02 3.927081e-02 6.496616e-03
    endloop
  endfacet
  facet normal -5.053809e-01 8.628925e-01 -2.586736e-03
    outer loop
      vertex 3.236733e-02 3.974199e-02 -4.361512e-06
      vertex 3.152955e-02 3.927081e-02 6.496616e-03
      vertex 3.267264e-02 3.994029e-02 6.495272e-03
    endloop
  endfacet
  facet normal 8.505686e-04 5.550520e-04 9.999995e-01
    outer loop
      vertex 2.742285e-02 3.048930e-02 6.504983e-03
      vertex 3.202240e-02 3.375378e-02 6.499259e-03
      vertex 3.152955e-02 3.927081e-02 6.496616e-03
    endloop
  endfacet
  facet normal -4.802364e-01 8.771375e-01 1.686118e-03
    outer loop
      vertex 3.130543e-02 3.916060e-02 -3.135587e-06
      vertex 3.152955e-02 3.927081e-02 6.496616e-03
      vertex 3.236733e-02 3.974199e-02 -4.361512e-06
    endloop
  endfacet
  facet normal 8.505686e-04 5.550520e-04 9.999995e-01
    outer loop
      vertex 3.202240e-02 3.375378e-02 6.499259e-03
      vertex 3.360697e-02 4.063213e-02 6.494093e-03
      vertex 3.267264e-02 3.994029e-02 6.495272e-03
    endloop
  endfacet
  facet normal -5.950821e-01 8.036630e-01 -1.779107e-03
    outer loop
      vertex 3.323434e-02 4.034182e-02 -5.431896e-06
      vertex 3.267264e-02 3.994029e-02 6.495272e-03
      vertex 3.360697e-02 4.063213e-02 6.494093e-03
    endloop
  endfacet
  facet normal -5.689438e-01 8.223748e-01 1.635166e-03
    outer loop
      vertex 3.236733e-02 3.974199e-02 -4.361512e-06
      vertex 3.267264e-02 3.994029e-02 6.495272e-03
      vertex 3.323434e-02 4.034182e-02 -5.431896e-06
    endloop
  endfacet
  facet normal 8.505686e-04 5.550520e-04 9.999995e-01
    outer loop
      vertex 3.202240e-02 3.375378e-02 6.499259e-03
      vertex 3.456398e-02 4.145925e-02 6.492820e-03
      vertex 3.360697e-02 4.063213e-02 6.494093e-03
    endloop
  endfacet
  facet normal -6.538981e-01 7.565807e-01 -1.679394e-03
    outer loop
      vertex 3.412090e-02 4.106187e-02 -6.585643e-06
      vertex 3.360697e-02 4.063213e-02 6.494093e-03
      vertex 3.456398e-02 4.145925e-02 6.492820e-03
    endloop
  endfacet
  facet normal -6.304467e-01 7.762312e-01 1.473675e-03
    outer loop
      vertex 3.323434e-02 4.034182e-02 -5.431896e-06
      vertex 3.360697e-02 4.063213e-02 6.494093e-03
      vertex 3.412090e-02 4.106187e-02 -6.585643e-06
    endloop
  endfacet
  facet normal 8.505686e-04 5.550520e-04 9.999995e-01
    outer loop
      vertex 3.202240e-02 3.375378e-02 6.499259e-03
      vertex 3.555269e-02 4.242360e-02 6.491444e-03
      vertex 3.456398e-02 4.145925e-02 6.492820e-03
    endloop
  endfacet
  facet normal -6.982325e-01 7.158704e-01 -9.902757e-04
    outer loop
      vertex 3.502880e-02 4.190362e-02 -7.825086e-06
      vertex 3.456398e-02 4.145925e-02 6.492820e-03
      vertex 3.555269e-02 4.242360e-02 6.491444e-03
    endloop
  endfacet
  facet normal -6.798839e-01 7.333182e-01 1.514406e-03
    outer loop
      vertex 3.412090e-02 4.106187e-02 -6.585643e-06
      vertex 3.456398e-02 4.145925e-02 6.492820e-03
      vertex 3.502880e-02 4.190362e-02 -7.825086e-06
    endloop
  endfacet
  facet normal 8.505686e-04 5.550520e-04 9.999995e-01
    outer loop
      vertex 3.202240e-02 3.375378e-02 6.499259e-03
      vertex 3.658513e-02 4.348685e-02 6.489976e-03
      vertex 3.555269e-02 4.242360e-02 6.491444e-03
    endloop
  endfacet
  facet normal -7.174290e-01 6.966302e-01 -1.425807e-03
    outer loop
      vertex 3.597377e-02 4.284394e-02 -9.150780e-06
      vertex 3.555269e-02 4.242360e-02 6.491444e-03
      vertex 3.658513e-02 4.348685e-02 6.489976e-03
    endloop
  endfacet
  facet normal -7.053603e-01 7.088489e-01 1.460371e-04
    outer loop
      vertex 3.502880e-02 4.190362e-02 -7.825086e-06
      vertex 3.555269e-02 4.242360e-02 6.491444e-03
      vertex 3.597377e-02 4.284394e-02 -9.150780e-06
    endloop
  endfacet
  facet normal 8.505686e-04 5.550520e-04 9.999995e-01
    outer loop
      vertex 3.315148e-02 3.477853e-02 6.497730e-03
      vertex 3.768261e-02 4.464661e-02 6.488399e-03
      vertex 3.658513e-02 4.348685e-02 6.489976e-03
    endloop
  endfacet
  facet normal -7.263364e-01 6.873378e-01 1.457464e-03
    outer loop
      vertex 3.695902e-02 4.388621e-02 4.489493e-03
      vertex 3.658513e-02 4.348685e-02 6.489976e-03
      vertex 3.768261e-02 4.464661e-02 6.488399e-03
    endloop
  endfacet
  facet normal 8.505686e-04 5.550520e-04 9.999995e-01
    outer loop
      vertex 3.260008e-02 3.427389e-02 6.498479e-03
      vertex 3.315148e-02 3.477853e-02 6.497730e-03
      vertex 3.658513e-02 4.348685e-02 6.489976e-03
    endloop
  endfacet
  facet normal 8.505686e-04 5.550520e-04 9.999995e-01
    outer loop
      vertex 3.202240e-02 3.375378e-02 6.499259e-03
      vertex 3.260008e-02 3.427389e-02 6.498479e-03
      vertex 3.658513e-02 4.348685e-02 6.489976e-03
    endloop
  endfacet
  facet normal -7.282223e-01 6.853406e-01 7.062860e-04
    outer loop
      vertex 3.695902e-02 4.388621e-02 4.489493e-03
      vertex 3.597377e-02 4.284394e-02 -9.150780e-06
      vertex 3.658513e-02 4.348685e-02 6.489976e-03
    endloop
  endfacet
  facet normal 8.505686e-04 5.550520e-04 9.999995e-01
    outer loop
      vertex 3.416964e-02 3.573930e-02 6.496331e-03
      vertex 3.877964e-02 4.574346e-02 6.486857e-03
      vertex 3.768261e-02 4.464661e-02 6.488399e-03
    endloop
  endfacet
  facet normal -7.070427e-01 7.071623e-01 3.462201e-03
    outer loop
      vertex 3.806011e-02 4.503383e-02 4.487859e-03
      vertex 3.768261e-02 4.464661e-02 6.488399e-03
      vertex 3.877964e-02 4.574346e-02 6.486857e-03
    endloop
  endfacet
  facet normal 8.505686e-04 5.550520e-04 9.999995e-01
    outer loop
      vertex 3.367566e-02 3.526736e-02 6.497013e-03
      vertex 3.416964e-02 3.573930e-02 6.496331e-03
      vertex 3.768261e-02 4.464661e-02 6.488399e-03
    endloop
  endfacet
  facet normal 8.505686e-04 5.550520e-04 9.999995e-01
    outer loop
      vertex 3.315148e-02 3.477853e-02 6.497730e-03
      vertex 3.367566e-02 3.526736e-02 6.497013e-03
      vertex 3.768261e-02 4.464661e-02 6.488399e-03
    endloop
  endfacet
  facet normal -7.215889e-01 6.923185e-01 -2.155789e-03
    outer loop
      vertex 3.806011e-02 4.503383e-02 4.487859e-03
      vertex 3.695902e-02 4.388621e-02 4.489493e-03
      vertex 3.768261e-02 4.464661e-02 6.488399e-03
    endloop
  endfacet
  facet normal 8.505686e-04 5.550520e-04 9.999995e-01
    outer loop
      vertex 3.556401e-02 3.708808e-02 6.494396e-03
      vertex 3.986374e-02 4.674311e-02 6.485380e-03
      vertex 3.877964e-02 4.574346e-02 6.486857e-03
    endloop
  endfacet
  facet normal -6.778778e-01 7.351486e-01 6.182124e-03
    outer loop
      vertex 3.913907e-02 4.609171e-02 4.486348e-03
      vertex 3.877964e-02 4.574346e-02 6.486857e-03
      vertex 3.986374e-02 4.674311e-02 6.485380e-03
    endloop
  endfacet
  facet normal 8.505686e-04 5.550520e-04 9.999995e-01
    outer loop
      vertex 3.511152e-02 3.664883e-02 6.495025e-03
      vertex 3.556401e-02 3.708808e-02 6.494396e-03
      vertex 3.877964e-02 4.574346e-02 6.486857e-03
    endloop
  endfacet
  facet normal 8.505686e-04 5.550520e-04 9.999995e-01
    outer loop
      vertex 3.464575e-02 3.619880e-02 6.495671e-03
      vertex 3.511152e-02 3.664883e-02 6.495025e-03
      vertex 3.877964e-02 4.574346e-02 6.486857e-03
    endloop
  endfacet
  facet normal 8.505686e-04 5.550520e-04 9.999995e-01
    outer loop
      vertex 3.416964e-02 3.573930e-02 6.496331e-03
      vertex 3.464575e-02 3.619880e-02 6.495671e-03
      vertex 3.877964e-02 4.574346e-02 6.486857e-03
    endloop
  endfacet
  facet normal -7.000952e-01 7.140480e-01 -1.482885e-03
    outer loop
      vertex 3.913907e-02 4.609171e-02 4.486348e-03
      vertex 3.806011e-02 4.503383e-02 4.487859e-03
      vertex 3.877964e-02 4.574346e-02 6.486857e-03
    endloop
  endfacet
  facet normal 8.505686e-04 5.550520e-04 9.999995e-01
    outer loop
      vertex 3.679307e-02 3.826616e-02 6.492697e-03
      vertex 4.094234e-02 4.760665e-02 6.483983e-03
      vertex 3.986374e-02 4.674311e-02 6.485380e-03
    endloop
  endfacet
  facet normal -6.249684e-01 7.806261e-01 6.113391e-03
    outer loop
      vertex 4.021106e-02 4.703685e-02 4.484930e-03
      vertex 3.986374e-02 4.674311e-02 6.485380e-03
      vertex 4.094234e-02 4.760665e-02 6.483983e-03
    endloop
  endfacet
  facet normal 8.505686e-04 5.550520e-04 9.999995e-01
    outer loop
      vertex 3.618556e-02 3.768667e-02 6.493535e-03
      vertex 3.679307e-02 3.826616e-02 6.492697e-03
      vertex 3.986374e-02 4.674311e-02 6.485380e-03
    endloop
  endfacet
  facet normal 8.505686e-04 5.550520e-04 9.999995e-01
    outer loop
      vertex 3.556401e-02 3.708808e-02 6.494396e-03
      vertex 3.618556e-02 3.768667e-02 6.493535e-03
      vertex 3.986374e-02 4.674311e-02 6.485380e-03
    endloop
  endfacet
  facet normal -6.613272e-01 7.500829e-01 -4.684090e-03
    outer loop
      vertex 4.021106e-02 4.703685e-02 4.484930e-03
      vertex 3.913907e-02 4.609171e-02 4.486348e-03
      vertex 3.986374e-02 4.674311e-02 6.485380e-03
    endloop
  endfacet
  facet normal 8.505686e-04 5.550520e-04 9.999995e-01
    outer loop
      vertex 3.798374e-02 3.937194e-02 6.491070e-03
      vertex 4.201161e-02 4.833555e-02 6.482669e-03
      vertex 4.094234e-02 4.760665e-02 6.483983e-03
    endloop
  endfacet
  facet normal -5.632396e-01 8.262654e-01 6.833887e-03
    outer loop
      vertex 4.128423e-02 4.785626e-02 4.483565e-03
      vertex 4.094234e-02 4.760665e-02 6.483983e-03
      vertex 4.201161e-02 4.833555e-02 6.482669e-03
    endloop
  endfacet
  facet normal 8.505686e-04 5.550520e-04 9.999995e-01
    outer loop
      vertex 3.739287e-02 3.882839e-02 6.491874e-03
      vertex 3.798374e-02 3.937194e-02 6.491070e-03
      vertex 4.094234e-02 4.760665e-02 6.483983e-03
    endloop
  endfacet
  facet normal 8.505686e-04 5.550520e-04 9.999995e-01
    outer loop
      vertex 3.679307e-02 3.826616e-02 6.492697e-03
      vertex 3.739287e-02 3.882839e-02 6.491874e-03
      vertex 4.094234e-02 4.760665e-02 6.483983e-03
    endloop
  endfacet
  facet normal -6.068620e-01 7.947942e-01 -4.548577e-03
    outer loop
      vertex 4.128423e-02 4.785626e-02 4.483565e-03
      vertex 4.021106e-02 4.703685e-02 4.484930e-03
      vertex 4.094234e-02 4.760665e-02 6.483983e-03
    endloop
  endfacet
  facet normal 8.505686e-04 5.550520e-04 9.999995e-01
    outer loop
      vertex 3.926659e-02 4.050367e-02 6.489351e-03
      vertex 4.306471e-02 4.892588e-02 6.481445e-03
      vertex 4.201161e-02 4.833555e-02 6.482669e-03
    endloop
  endfacet
  facet normal -4.889615e-01 8.722849e-01 5.969792e-03
    outer loop
      vertex 4.234321e-02 4.853512e-02 4.482268e-03
      vertex 4.201161e-02 4.833555e-02 6.482669e-03
      vertex 4.306471e-02 4.892588e-02 6.481445e-03
    endloop
  endfacet
  facet normal 8.505686e-04 5.550520e-04 9.999995e-01
    outer loop
      vertex 3.856325e-02 3.989206e-02 6.490288e-03
      vertex 3.926659e-02 4.050367e-02 6.489351e-03
      vertex 4.201161e-02 4.833555e-02 6.482669e-03
    endloop
  endfacet
  facet normal 8.505686e-04 5.550520e-04 9.999995e-01
    outer loop
      vertex 3.798374e-02 3.937194e-02 6.491070e-03
      vertex 3.856325e-02 3.989206e-02 6.490288e-03
      vertex 4.201161e-02 4.833555e-02 6.482669e-03
    endloop
  endfacet
  facet normal -5.396822e-01 8.418511e-01 -5.474314e-03
    outer loop
      vertex 4.234321e-02 4.853512e-02 4.482268e-03
      vertex 4.128423e-02 4.785626e-02 4.483565e-03
      vertex 4.201161e-02 4.833555e-02 6.482669e-03
    endloop
  endfacet
  facet normal 8.505686e-04 5.550520e-04 9.999995e-01
    outer loop
      vertex 4.057564e-02 4.156655e-02 6.487647e-03
      vertex 4.432744e-02 4.947408e-02 6.480067e-03
      vertex 4.306471e-02 4.892588e-02 6.481445e-03
    endloop
  endfacet
  facet normal -3.982031e-01 9.172441e-01 9.873709e-03
    outer loop
      vertex 4.363697e-02 4.919585e-02 4.480799e-03
      vertex 4.306471e-02 4.892588e-02 6.481445e-03
      vertex 4.432744e-02 4.947408e-02 6.480067e-03
    endloop
  endfacet
  facet normal 8.505686e-04 5.550520e-04 9.999995e-01
    outer loop
      vertex 3.993949e-02 4.106385e-02 6.488468e-03
      vertex 4.057564e-02 4.156655e-02 6.487647e-03
      vertex 4.306471e-02 4.892588e-02 6.481445e-03
    endloop
  endfacet
  facet normal 8.505686e-04 5.550520e-04 9.999995e-01
    outer loop
      vertex 3.926659e-02 4.050367e-02 6.489351e-03
      vertex 3.993949e-02 4.106385e-02 6.488468e-03
      vertex 4.306471e-02 4.892588e-02 6.481445e-03
    endloop
  endfacet
  facet normal -4.548100e-01 8.905332e-01 -9.922221e-03
    outer loop
      vertex 4.363697e-02 4.919585e-02 4.480799e-03
      vertex 4.234321e-02 4.853512e-02 4.482268e-03
      vertex 4.306471e-02 4.892588e-02 6.481445e-03
    endloop
  endfacet
  facet normal 8.505686e-04 5.550520e-04 9.999995e-01
    outer loop
      vertex 4.189903e-02 4.250561e-02 6.486001e-03
      vertex 4.550303e-02 4.981594e-02 6.478877e-03
      vertex 4.432744e-02 4.947408e-02 6.480067e-03
    endloop
  endfacet
  facet normal -2.792107e-01 9.601819e-01 9.594099e-03
    outer loop
      vertex 4.488772e-02 4.965700e-02 4.479480e-03
      vertex 4.432744e-02 4.947408e-02 6.480067e-03
      vertex 4.550303e-02 4.981594e-02 6.478877e-03
    endloop
  endfacet
  facet normal 8.505686e-04 5.550520e-04 9.999995e-01
    outer loop
      vertex 4.117186e-02 4.200981e-02 6.486894e-03
      vertex 4.189903e-02 4.250561e-02 6.486001e-03
      vertex 4.432744e-02 4.947408e-02 6.480067e-03
    endloop
  endfacet
  facet normal 8.505686e-04 5.550520e-04 9.999995e-01
    outer loop
      vertex 4.057564e-02 4.156655e-02 6.487647e-03
      vertex 4.117186e-02 4.200981e-02 6.486894e-03
      vertex 4.432744e-02 4.947408e-02 6.480067e-03
    endloop
  endfacet
  facet normal -3.459211e-01 9.381980e-01 -1.109871e-02
    outer loop
      vertex 4.488772e-02 4.965700e-02 4.479480e-03
      vertex 4.363697e-02 4.919585e-02 4.480799e-03
      vertex 4.432744e-02 4.947408e-02 6.480067e-03
    endloop
  endfacet
  facet normal 8.505686e-04 5.550520e-04 9.999995e-01
    outer loop
      vertex 4.362064e-02 4.339840e-02 6.484041e-03
      vertex 4.657194e-02 4.997575e-02 6.477880e-03
      vertex 4.550303e-02 4.981594e-02 6.478877e-03
    endloop
  endfacet
  facet normal -1.478460e-01 9.889656e-01 9.413241e-03
    outer loop
      vertex 4.608890e-02 4.992257e-02 4.478330e-03
      vertex 4.550303e-02 4.981594e-02 6.478877e-03
      vertex 4.657194e-02 4.997575e-02 6.477880e-03
    endloop
  endfacet
  facet normal 8.505686e-04 5.550520e-04 9.999995e-01
    outer loop
      vertex 4.311903e-02 4.319031e-02 6.484583e-03
      vertex 4.362064e-02 4.339840e-02 6.484041e-03
      vertex 4.550303e-02 4.981594e-02 6.478877e-03
    endloop
  endfacet
  facet normal 8.505686e-04 5.550520e-04 9.999995e-01
    outer loop
      vertex 4.254687e-02 4.289611e-02 6.485233e-03
      vertex 4.311903e-02 4.319031e-02 6.484583e-03
      vertex 4.550303e-02 4.981594e-02 6.478877e-03
    endloop
  endfacet
  facet normal 8.505686e-04 5.550520e-04 9.999995e-01
    outer loop
      vertex 4.189903e-02 4.250561e-02 6.486001e-03
      vertex 4.254687e-02 4.289611e-02 6.485233e-03
      vertex 4.550303e-02 4.981594e-02 6.478877e-03
    endloop
  endfacet
  facet normal -2.158776e-01 9.763564e-01 -1.118226e-02
    outer loop
      vertex 4.608890e-02 4.992257e-02 4.478330e-03
      vertex 4.488772e-02 4.965700e-02 4.479480e-03
      vertex 4.550303e-02 4.981594e-02 6.478877e-03
    endloop
  endfacet
  facet normal 8.505686e-04 5.550520e-04 9.999995e-01
    outer loop
      vertex 4.441906e-02 4.359886e-02 6.483250e-03
      vertex 4.753289e-02 4.998009e-02 6.477060e-03
      vertex 4.657194e-02 4.997575e-02 6.477880e-03
    endloop
  endfacet
  facet normal -4.505733e-03 9.999673e-01 6.709727e-03
    outer loop
      vertex 4.722379e-02 4.999211e-02 4.477345e-03
      vertex 4.657194e-02 4.997575e-02 6.477880e-03
      vertex 4.753289e-02 4.998009e-02 6.477060e-03
    endloop
  endfacet
  facet normal 8.505686e-04 5.550520e-04 9.999995e-01
    outer loop
      vertex 4.405164e-02 4.352985e-02 6.483601e-03
      vertex 4.441906e-02 4.359886e-02 6.483250e-03
      vertex 4.657194e-02 4.997575e-02 6.477880e-03
    endloop
  endfacet
  facet normal 8.505686e-04 5.550520e-04 9.999995e-01
    outer loop
      vertex 4.362064e-02 4.339840e-02 6.484041e-03
      vertex 4.405164e-02 4.352985e-02 6.483601e-03
      vertex 4.657194e-02 4.997575e-02 6.477880e-03
    endloop
  endfacet
  facet normal -6.116652e-02 9.980582e-01 -1.176810e-02
    outer loop
      vertex 4.722379e-02 4.999211e-02 4.477345e-03
      vertex 4.608890e-02 4.992257e-02 4.478330e-03
      vertex 4.657194e-02 4.997575e-02 6.477880e-03
    endloop
  endfacet
  facet normal 8.505686e-04 5.550520e-04 9.999995e-01
    outer loop
      vertex 4.533515e-02 4.332379e-02 6.482624e-03
      vertex 4.868413e-02 4.976856e-02 6.476198e-03
      vertex 4.753289e-02 4.998009e-02 6.477060e-03
    endloop
  endfacet
  facet normal 1.807123e-01 9.835323e-01 2.693342e-03
    outer loop
      vertex 4.860941e-02 4.978777e-02 4.476151e-03
      vertex 4.753289e-02 4.998009e-02 6.477060e-03
      vertex 4.868413e-02 4.976856e-02 6.476198e-03
    endloop
  endfacet
  facet normal 8.505686e-04 5.550520e-04 9.999995e-01
    outer loop
      vertex 4.489342e-02 4.358422e-02 6.482855e-03
      vertex 4.533515e-02 4.332379e-02 6.482624e-03
      vertex 4.753289e-02 4.998009e-02 6.477060e-03
    endloop
  endfacet
  facet normal 8.505686e-04 5.550520e-04 9.999995e-01
    outer loop
      vertex 4.441906e-02 4.359886e-02 6.483250e-03
      vertex 4.489342e-02 4.358422e-02 6.482855e-03
      vertex 4.753289e-02 4.998009e-02 6.477060e-03
    endloop
  endfacet
  facet normal 1.458627e-01 9.891656e-01 -1.659767e-02
    outer loop
      vertex 4.860941e-02 4.978777e-02 4.476151e-03
      vertex 4.722379e-02 4.999211e-02 4.477345e-03
      vertex 4.753289e-02 4.998009e-02 6.477060e-03
    endloop
  endfacet
  facet normal 8.505686e-04 5.550520e-04 9.999995e-01
    outer loop
      vertex 4.624457e-02 4.129524e-02 6.482976e-03
      vertex 4.979359e-02 4.930253e-02 6.475513e-03
      vertex 4.868413e-02 4.976856e-02 6.476198e-03
    endloop
  endfacet
  facet normal 3.872623e-01 9.219525e-01 -5.615052e-03
    outer loop
      vertex 4.860941e-02 4.978777e-02 4.476151e-03
      vertex 4.868413e-02 4.976856e-02 6.476198e-03
      vertex 4.979359e-02 4.930253e-02 6.475513e-03
    endloop
  endfacet
  facet normal 8.505686e-04 5.550520e-04 9.999995e-01
    outer loop
      vertex 4.577571e-02 4.264356e-02 6.482627e-03
      vertex 4.624457e-02 4.129524e-02 6.482976e-03
      vertex 4.868413e-02 4.976856e-02 6.476198e-03
    endloop
  endfacet
  facet normal 8.505686e-04 5.550520e-04 9.999995e-01
    outer loop
      vertex 4.533515e-02 4.332379e-02 6.482624e-03
      vertex 4.577571e-02 4.264356e-02 6.482627e-03
      vertex 4.868413e-02 4.976856e-02 6.476198e-03
    endloop
  endfacet
  facet normal 8.505686e-04 5.550520e-04 9.999995e-01
    outer loop
      vertex 5.336096e-02 4.494996e-02 6.474895e-03
      vertex 5.092061e-02 4.853436e-02 6.474981e-03
      vertex 4.979359e-02 4.930253e-02 6.475513e-03
    endloop
  endfacet
  facet normal 5.632039e-01 8.262998e-01 5.471113e-03
    outer loop
      vertex 4.990716e-02 4.923837e-02 4.475439e-03
      vertex 4.979359e-02 4.930253e-02 6.475513e-03
      vertex 5.092061e-02 4.853436e-02 6.474981e-03
    endloop
  endfacet
  facet normal 8.505686e-04 5.550520e-04 9.999995e-01
    outer loop
      vertex 4.624457e-02 4.129524e-02 6.482976e-03
      vertex 5.336096e-02 4.494996e-02 6.474895e-03
      vertex 4.979359e-02 4.930253e-02 6.475513e-03
    endloop
  endfacet
  facet normal 3.898367e-01 9.208542e-01 -7.406370e-03
    outer loop
      vertex 4.990716e-02 4.923837e-02 4.475439e-03
      vertex 4.860941e-02 4.978777e-02 4.476151e-03
      vertex 4.979359e-02 4.930253e-02 6.475513e-03
    endloop
  endfacet
  facet normal 8.505686e-04 5.550520e-04 9.999995e-01
    outer loop
      vertex 5.336096e-02 4.494996e-02 6.474895e-03
      vertex 5.197962e-02 4.746744e-02 6.474672e-03
      vertex 5.092061e-02 4.853436e-02 6.474981e-03
    endloop
  endfacet
  facet normal 7.096862e-01 7.044181e-01 1.185380e-02
    outer loop
      vertex 5.116710e-02 4.831969e-02 4.475064e-03
      vertex 5.092061e-02 4.853436e-02 6.474981e-03
      vertex 5.197962e-02 4.746744e-02 6.474672e-03
    endloop
  endfacet
  facet normal 5.891005e-01 8.079364e-01 -1.411986e-02
    outer loop
      vertex 4.990716e-02 4.923837e-02 4.475439e-03
      vertex 5.092061e-02 4.853436e-02 6.474981e-03
      vertex 5.116710e-02 4.831969e-02 4.475064e-03
    endloop
  endfacet
  facet normal 8.505686e-04 5.550520e-04 9.999995e-01
    outer loop
      vertex 5.336096e-02 4.494996e-02 6.474895e-03
      vertex 5.282535e-02 4.621350e-02 6.474649e-03
      vertex 5.197962e-02 4.746744e-02 6.474672e-03
    endloop
  endfacet
  facet normal 8.290503e-01 5.591598e-01 3.993063e-03
    outer loop
      vertex 5.252113e-02 4.671098e-02 -2.537186e-05
      vertex 5.197962e-02 4.746744e-02 6.474672e-03
      vertex 5.282535e-02 4.621350e-02 6.474649e-03
    endloop
  endfacet
  facet normal 8.045471e-01 5.938852e-01 -2.089485e-03
    outer loop
      vertex 5.189578e-02 4.755815e-02 -2.531018e-05
      vertex 5.197962e-02 4.746744e-02 6.474672e-03
      vertex 5.252113e-02 4.671098e-02 -2.537186e-05
    endloop
  endfacet
  facet normal 7.195693e-01 6.944205e-01 4.097459e-04
    outer loop
      vertex 5.116327e-02 4.831719e-02 -2.510844e-05
      vertex 5.197962e-02 4.746744e-02 6.474672e-03
      vertex 5.189578e-02 4.755815e-02 -2.531018e-05
    endloop
  endfacet
  facet normal 7.249431e-01 6.888080e-01 -9.989386e-04
    outer loop
      vertex 5.116710e-02 4.831969e-02 4.475064e-03
      vertex 5.197962e-02 4.746744e-02 6.474672e-03
      vertex 5.116327e-02 4.831719e-02 -2.510844e-05
    endloop
  endfacet
  facet normal 9.206907e-01 3.902767e-01 3.571628e-03
    outer loop
      vertex 5.301559e-02 4.582420e-02 -2.530022e-05
      vertex 5.282535e-02 4.621350e-02 6.474649e-03
      vertex 5.336096e-02 4.494996e-02 6.474895e-03
    endloop
  endfacet
  facet normal 8.733956e-01 4.869982e-01 -3.605390e-03
    outer loop
      vertex 5.252113e-02 4.671098e-02 -2.537186e-05
      vertex 5.282535e-02 4.621350e-02 6.474649e-03
      vertex 5.301559e-02 4.582420e-02 -2.530022e-05
    endloop
  endfacet
  facet normal 4.568398e-01 -8.895490e-01 1.051725e-04
    outer loop
      vertex 5.335543e-02 4.494635e-02 -2.510203e-05
      vertex 5.336096e-02 4.494996e-02 6.474895e-03
      vertex 4.624457e-02 4.129524e-02 6.482976e-03
    endloop
  endfacet
  facet normal 9.325571e-01 3.610212e-01 -9.935898e-04
    outer loop
      vertex 5.301559e-02 4.582420e-02 -2.530022e-05
      vertex 5.336096e-02 4.494996e-02 6.474895e-03
      vertex 5.335543e-02 4.494635e-02 -2.510203e-05
    endloop
  endfacet
  facet normal -9.445211e-01 -3.284492e-01 9.856869e-04
    outer loop
      vertex 4.623904e-02 4.129163e-02 -1.702049e-05
      vertex 4.624457e-02 4.129524e-02 6.482976e-03
      vertex 4.577571e-02 4.264356e-02 6.482627e-03
    endloop
  endfacet
  facet normal 4.568398e-01 -8.895490e-01 1.051725e-04
    outer loop
      vertex 5.335543e-02 4.494635e-02 -2.510203e-05
      vertex 4.624457e-02 4.129524e-02 6.482976e-03
      vertex 4.623904e-02 4.129163e-02 -1.702049e-05
    endloop
  endfacet
  facet normal -8.393386e-01 -5.436081e-01 1.015646e-03
    outer loop
      vertex 4.577018e-02 4.263995e-02 -1.737007e-05
      vertex 4.577571e-02 4.264356e-02 6.482627e-03
      vertex 4.533515e-02 4.332379e-02 6.482624e-03
    endloop
  endfacet
  facet normal -9.445211e-01 -3.284492e-01 9.856869e-04
    outer loop
      vertex 4.623904e-02 4.129163e-02 -1.702049e-05
      vertex 4.577571e-02 4.264356e-02 6.482627e-03
      vertex 4.577018e-02 4.263995e-02 -1.737007e-05
    endloop
  endfacet
  facet normal -5.078696e-01 -8.614335e-01 9.101188e-04
    outer loop
      vertex 4.532962e-02 4.332018e-02 -1.737291e-05
      vertex 4.533515e-02 4.332379e-02 6.482624e-03
      vertex 4.489342e-02 4.358422e-02 6.482855e-03
    endloop
  endfacet
  facet normal -8.393386e-01 -5.436081e-01 1.015646e-03
    outer loop
      vertex 4.577018e-02 4.263995e-02 -1.737007e-05
      vertex 4.533515e-02 4.332379e-02 6.482624e-03
      vertex 4.532962e-02 4.332018e-02 -1.737291e-05
    endloop
  endfacet
  facet normal -3.084008e-02 -9.995242e-01 5.810198e-04
    outer loop
      vertex 4.488789e-02 4.358061e-02 -1.714174e-05
      vertex 4.489342e-02 4.358422e-02 6.482855e-03
      vertex 4.441906e-02 4.359886e-02 6.483250e-03
    endloop
  endfacet
  facet normal -5.078696e-01 -8.614335e-01 9.101188e-04
    outer loop
      vertex 4.532962e-02 4.332018e-02 -1.737291e-05
      vertex 4.489342e-02 4.358422e-02 6.482855e-03
      vertex 4.488789e-02 4.358061e-02 -1.714174e-05
    endloop
  endfacet
  facet normal 1.845939e-01 -9.828148e-01 3.885038e-04
    outer loop
      vertex 4.441353e-02 4.359525e-02 -1.674639e-05
      vertex 4.441906e-02 4.359886e-02 6.483250e-03
      vertex 4.405164e-02 4.352985e-02 6.483601e-03
    endloop
  endfacet
  facet normal -3.084008e-02 -9.995242e-01 5.810198e-04
    outer loop
      vertex 4.488789e-02 4.358061e-02 -1.714174e-05
      vertex 4.441906e-02 4.359886e-02 6.483250e-03
      vertex 4.441353e-02 4.359525e-02 -1.674639e-05
    endloop
  endfacet
  facet normal 2.917246e-01 -9.565023e-01 2.827770e-04
    outer loop
      vertex 4.404611e-02 4.352624e-02 -1.639557e-05
      vertex 4.405164e-02 4.352985e-02 6.483601e-03
      vertex 4.362064e-02 4.339840e-02 6.484041e-03
    endloop
  endfacet
  facet normal 1.845939e-01 -9.828148e-01 3.885038e-04
    outer loop
      vertex 4.441353e-02 4.359525e-02 -1.674639e-05
      vertex 4.405164e-02 4.352985e-02 6.483601e-03
      vertex 4.404611e-02 4.352624e-02 -1.639557e-05
    endloop
  endfacet
  facet normal 3.831701e-01 -9.236778e-01 1.867769e-04
    outer loop
      vertex 4.361511e-02 4.339479e-02 -1.595601e-05
      vertex 4.362064e-02 4.339840e-02 6.484041e-03
      vertex 4.311903e-02 4.319031e-02 6.484583e-03
    endloop
  endfacet
  facet normal 2.917246e-01 -9.565023e-01 2.827770e-04
    outer loop
      vertex 4.404611e-02 4.352624e-02 -1.639557e-05
      vertex 4.362064e-02 4.339840e-02 6.484041e-03
      vertex 4.361511e-02 4.339479e-02 -1.595601e-05
    endloop
  endfacet
  facet normal 4.572847e-01 -8.893203e-01 1.046671e-04
    outer loop
      vertex 4.311350e-02 4.318671e-02 -1.541386e-05
      vertex 4.311903e-02 4.319031e-02 6.484583e-03
      vertex 4.254687e-02 4.289611e-02 6.485233e-03
    endloop
  endfacet
  facet normal 3.831701e-01 -9.236778e-01 1.867769e-04
    outer loop
      vertex 4.361511e-02 4.339479e-02 -1.595601e-05
      vertex 4.311903e-02 4.319031e-02 6.484583e-03
      vertex 4.311350e-02 4.318671e-02 -1.541386e-05
    endloop
  endfacet
  facet normal 5.162479e-01 -8.564392e-01 3.626404e-05
    outer loop
      vertex 4.254134e-02 4.289250e-02 -1.476390e-05
      vertex 4.254687e-02 4.289611e-02 6.485233e-03
      vertex 4.189903e-02 4.250561e-02 6.486001e-03
    endloop
  endfacet
  facet normal 4.572847e-01 -8.893203e-01 1.046671e-04
    outer loop
      vertex 4.311350e-02 4.318671e-02 -1.541386e-05
      vertex 4.254687e-02 4.289611e-02 6.485233e-03
      vertex 4.254134e-02 4.289250e-02 -1.476390e-05
    endloop
  endfacet
  facet normal 5.633350e-01 -8.262286e-01 -2.055518e-05
    outer loop
      vertex 4.189350e-02 4.250200e-02 -1.399612e-05
      vertex 4.189903e-02 4.250561e-02 6.486001e-03
      vertex 4.117186e-02 4.200981e-02 6.486894e-03
    endloop
  endfacet
  facet normal 5.162479e-01 -8.564392e-01 3.626404e-05
    outer loop
      vertex 4.254134e-02 4.289250e-02 -1.476390e-05
      vertex 4.189903e-02 4.250561e-02 6.486001e-03
      vertex 4.189350e-02 4.250200e-02 -1.399612e-05
    endloop
  endfacet
  facet normal 5.966301e-01 -8.025163e-01 -6.203656e-05
    outer loop
      vertex 4.116634e-02 4.200620e-02 -1.310243e-05
      vertex 4.117186e-02 4.200981e-02 6.486894e-03
      vertex 4.057564e-02 4.156655e-02 6.487647e-03
    endloop
  endfacet
  facet normal 5.633350e-01 -8.262286e-01 -2.055518e-05
    outer loop
      vertex 4.189350e-02 4.250200e-02 -1.399612e-05
      vertex 4.117186e-02 4.200981e-02 6.486894e-03
      vertex 4.116634e-02 4.200620e-02 -1.310243e-05
    endloop
  endfacet
  facet normal 6.200048e-01 -7.845980e-01 -9.186388e-05
    outer loop
      vertex 4.057011e-02 4.156294e-02 -1.234927e-05
      vertex 4.057564e-02 4.156655e-02 6.487647e-03
      vertex 3.993949e-02 4.106385e-02 6.488468e-03
    endloop
  endfacet
  facet normal 5.966301e-01 -8.025163e-01 -6.203656e-05
    outer loop
      vertex 4.116634e-02 4.200620e-02 -1.310243e-05
      vertex 4.057564e-02 4.156655e-02 6.487647e-03
      vertex 4.057011e-02 4.156294e-02 -1.234927e-05
    endloop
  endfacet
  facet normal 6.397986e-01 -7.685426e-01 -1.176115e-04
    outer loop
      vertex 3.993396e-02 4.106024e-02 -1.152915e-05
      vertex 3.993949e-02 4.106385e-02 6.488468e-03
      vertex 3.926659e-02 4.050367e-02 6.489351e-03
    endloop
  endfacet
  facet normal 6.200048e-01 -7.845980e-01 -9.186388e-05
    outer loop
      vertex 4.057011e-02 4.156294e-02 -1.234927e-05
      vertex 3.993949e-02 4.106385e-02 6.488468e-03
      vertex 3.993396e-02 4.106024e-02 -1.152915e-05
    endloop
  endfacet
  facet normal 6.561883e-01 -7.545972e-01 -1.392925e-04
    outer loop
      vertex 3.926106e-02 4.050006e-02 -1.064587e-05
      vertex 3.926659e-02 4.050367e-02 6.489351e-03
      vertex 3.856325e-02 3.989206e-02 6.490288e-03
    endloop
  endfacet
  facet normal 6.397986e-01 -7.685426e-01 -1.176115e-04
    outer loop
      vertex 3.993396e-02 4.106024e-02 -1.152915e-05
      vertex 3.926659e-02 4.050367e-02 6.489351e-03
      vertex 3.926106e-02 4.050006e-02 -1.064587e-05
    endloop
  endfacet
  facet normal 6.679431e-01 -7.442123e-01 -1.550549e-04
    outer loop
      vertex 3.855772e-02 3.988845e-02 -9.708158e-06
      vertex 3.856325e-02 3.989206e-02 6.490288e-03
      vertex 3.798374e-02 3.937194e-02 6.491070e-03
    endloop
  endfacet
  facet normal 6.561883e-01 -7.545972e-01 -1.392925e-04
    outer loop
      vertex 3.926106e-02 4.050006e-02 -1.064587e-05
      vertex 3.856325e-02 3.989206e-02 6.490288e-03
      vertex 3.855772e-02 3.988845e-02 -9.708158e-06
    endloop
  endfacet
  facet normal 6.770170e-01 -7.359673e-01 -1.673493e-04
    outer loop
      vertex 3.797821e-02 3.936833e-02 -8.926551e-06
      vertex 3.798374e-02 3.937194e-02 6.491070e-03
      vertex 3.739287e-02 3.882839e-02 6.491874e-03
    endloop
  endfacet
  facet normal 6.679431e-01 -7.442123e-01 -1.550549e-04
    outer loop
      vertex 3.855772e-02 3.988845e-02 -9.708158e-06
      vertex 3.798374e-02 3.937194e-02 6.491070e-03
      vertex 3.797821e-02 3.936833e-02 -8.926551e-06
    endloop
  endfacet
  facet normal 6.838948e-01 -7.295807e-01 -1.767443e-04
    outer loop
      vertex 3.738734e-02 3.882479e-02 -8.122274e-06
      vertex 3.739287e-02 3.882839e-02 6.491874e-03
      vertex 3.679307e-02 3.826616e-02 6.492697e-03
    endloop
  endfacet
  facet normal 6.770170e-01 -7.359673e-01 -1.673493e-04
    outer loop
      vertex 3.797821e-02 3.936833e-02 -8.926551e-06
      vertex 3.739287e-02 3.882839e-02 6.491874e-03
      vertex 3.738734e-02 3.882479e-02 -8.122274e-06
    endloop
  endfacet
  facet normal 6.902188e-01 -7.236007e-01 -1.854425e-04
    outer loop
      vertex 3.678754e-02 3.826255e-02 -7.300037e-06
      vertex 3.679307e-02 3.826616e-02 6.492697e-03
      vertex 3.618556e-02 3.768667e-02 6.493535e-03
    endloop
  endfacet
  facet normal 6.838948e-01 -7.295807e-01 -1.767443e-04
    outer loop
      vertex 3.738734e-02 3.882479e-02 -8.122274e-06
      vertex 3.679307e-02 3.826616e-02 6.492697e-03
      vertex 3.678754e-02 3.826255e-02 -7.300037e-06
    endloop
  endfacet
  facet normal 6.936787e-01 -7.202846e-01 -1.902259e-04
    outer loop
      vertex 3.618003e-02 3.768306e-02 -6.461660e-06
      vertex 3.618556e-02 3.768667e-02 6.493535e-03
      vertex 3.556401e-02 3.708808e-02 6.494396e-03
    endloop
  endfacet
  facet normal 6.902188e-01 -7.236007e-01 -1.854425e-04
    outer loop
      vertex 3.678754e-02 3.826255e-02 -7.300037e-06
      vertex 3.618556e-02 3.768667e-02 6.493535e-03
      vertex 3.618003e-02 3.768306e-02 -6.461660e-06
    endloop
  endfacet
  facet normal 6.965342e-01 -7.175236e-01 -1.941872e-04
    outer loop
      vertex 3.555848e-02 3.708447e-02 -5.600741e-06
      vertex 3.556401e-02 3.708808e-02 6.494396e-03
      vertex 3.511152e-02 3.664883e-02 6.495025e-03
    endloop
  endfacet
  facet normal 6.936787e-01 -7.202846e-01 -1.902259e-04
    outer loop
      vertex 3.618003e-02 3.768306e-02 -6.461660e-06
      vertex 3.556401e-02 3.708808e-02 6.494396e-03
      vertex 3.555848e-02 3.708447e-02 -5.600741e-06
    endloop
  endfacet
  facet normal 6.948482e-01 -7.191564e-01 -1.918469e-04
    outer loop
      vertex 3.510600e-02 3.664522e-02 -4.972063e-06
      vertex 3.511152e-02 3.664883e-02 6.495025e-03
      vertex 3.464575e-02 3.619880e-02 6.495671e-03
    endloop
  endfacet
  facet normal 6.965342e-01 -7.175236e-01 -1.941872e-04
    outer loop
      vertex 3.555848e-02 3.708447e-02 -5.600741e-06
      vertex 3.511152e-02 3.664883e-02 6.495025e-03
      vertex 3.510600e-02 3.664522e-02 -4.972063e-06
    endloop
  endfacet
  facet normal 6.944429e-01 -7.195478e-01 -1.912850e-04
    outer loop
      vertex 3.464022e-02 3.619519e-02 -4.326095e-06
      vertex 3.464575e-02 3.619880e-02 6.495671e-03
      vertex 3.416964e-02 3.573930e-02 6.496331e-03
    endloop
  endfacet
  facet normal 6.948482e-01 -7.191564e-01 -1.918469e-04
    outer loop
      vertex 3.510600e-02 3.664522e-02 -4.972063e-06
      vertex 3.464575e-02 3.619880e-02 6.495671e-03
      vertex 3.464022e-02 3.619519e-02 -4.326095e-06
    endloop
  endfacet
  facet normal 6.907944e-01 -7.230512e-01 -1.862371e-04
    outer loop
      vertex 3.416411e-02 3.573569e-02 -3.666084e-06
      vertex 3.416964e-02 3.573930e-02 6.496331e-03
      vertex 3.367566e-02 3.526736e-02 6.497013e-03
    endloop
  endfacet
  facet normal 6.944429e-01 -7.195478e-01 -1.912850e-04
    outer loop
      vertex 3.464022e-02 3.619519e-02 -4.326095e-06
      vertex 3.416964e-02 3.573930e-02 6.496331e-03
      vertex 3.416411e-02 3.573569e-02 -3.666084e-06
    endloop
  endfacet
  facet normal 6.820149e-01 -7.313383e-01 -1.741697e-04
    outer loop
      vertex 3.367013e-02 3.526375e-02 -2.983973e-06
      vertex 3.367566e-02 3.526736e-02 6.497013e-03
      vertex 3.315148e-02 3.477853e-02 6.497730e-03
    endloop
  endfacet
  facet normal 6.907944e-01 -7.230512e-01 -1.862371e-04
    outer loop
      vertex 3.416411e-02 3.573569e-02 -3.666084e-06
      vertex 3.367566e-02 3.526736e-02 6.497013e-03
      vertex 3.367013e-02 3.526375e-02 -2.983973e-06
    endloop
  endfacet
  facet normal 6.751316e-01 -7.376973e-01 -1.647855e-04
    outer loop
      vertex 3.314596e-02 3.477492e-02 -2.266800e-06
      vertex 3.315148e-02 3.477853e-02 6.497730e-03
      vertex 3.260008e-02 3.427389e-02 6.498479e-03
    endloop
  endfacet
  facet normal 6.820149e-01 -7.313383e-01 -1.741697e-04
    outer loop
      vertex 3.367013e-02 3.526375e-02 -2.983973e-06
      vertex 3.315148e-02 3.477853e-02 6.497730e-03
      vertex 3.314596e-02 3.477492e-02 -2.266800e-06
    endloop
  endfacet
  facet normal 6.691060e-01 -7.431669e-01 -1.566243e-04
    outer loop
      vertex 3.259455e-02 3.427028e-02 -1.517690e-06
      vertex 3.260008e-02 3.427389e-02 6.498479e-03
      vertex 3.202240e-02 3.375378e-02 6.499259e-03
    endloop
  endfacet
  facet normal 6.751316e-01 -7.376973e-01 -1.647855e-04
    outer loop
      vertex 3.314596e-02 3.477492e-02 -2.266800e-06
      vertex 3.260008e-02 3.427389e-02 6.498479e-03
      vertex 3.259455e-02 3.427028e-02 -1.517690e-06
    endloop
  endfacet
  facet normal 5.787811e-01 -8.154830e-01 -3.965752e-05
    outer loop
      vertex 3.201687e-02 3.375017e-02 -7.376450e-07
      vertex 3.202240e-02 3.375378e-02 6.499259e-03
      vertex 2.742285e-02 3.048930e-02 6.504983e-03
    endloop
  endfacet
  facet normal 6.691060e-01 -7.431669e-01 -1.566243e-04
    outer loop
      vertex 3.259455e-02 3.427028e-02 -1.517690e-06
      vertex 3.202240e-02 3.375378e-02 6.499259e-03
      vertex 3.201687e-02 3.375017e-02 -7.376450e-07
    endloop
  endfacet
  facet normal 3.874886e-01 -9.218650e-01 4.182259e-03
    outer loop
      vertex 2.316363e-02 2.866954e-02 9.612664e-06
      vertex 2.742285e-02 3.048930e-02 6.504983e-03
      vertex 2.295364e-02 2.861077e-02 6.509827e-03
    endloop
  endfacet
  facet normal 3.953119e-01 -9.185450e-01 -1.877824e-03
    outer loop
      vertex 2.752886e-02 3.054821e-02 4.856973e-06
      vertex 2.742285e-02 3.048930e-02 6.504983e-03
      vertex 2.316363e-02 2.866954e-02 9.612664e-06
    endloop
  endfacet
  facet normal 5.807875e-01 -8.140525e-01 2.094178e-03
    outer loop
      vertex 3.201687e-02 3.375017e-02 -7.376450e-07
      vertex 2.742285e-02 3.048930e-02 6.504983e-03
      vertex 2.752886e-02 3.054821e-02 4.856973e-06
    endloop
  endfacet
  facet normal 1.656591e-01 -9.861479e-01 8.331680e-03
    outer loop
      vertex 2.248092e-02 2.847760e-02 1.464594e-04
      vertex 2.295364e-02 2.861077e-02 6.509827e-03
      vertex 1.880759e-02 2.791432e-02 6.513740e-03
    endloop
  endfacet
  facet normal 2.706704e-01 -9.626721e-01 3.946260e-05
    outer loop
      vertex 2.248092e-02 2.847760e-02 1.464594e-04
      vertex 2.316363e-02 2.866954e-02 9.612664e-06
      vertex 2.295364e-02 2.861077e-02 6.509827e-03
    endloop
  endfacet
  facet normal -8.263417e-02 -9.959791e-01 3.460207e-02
    outer loop
      vertex 1.572951e-02 2.806904e-02 3.616271e-03
      vertex 1.880759e-02 2.791432e-02 6.513740e-03
      vertex 1.467311e-02 2.825747e-02 6.517067e-03
    endloop
  endfacet
  facet normal -3.881447e-02 -9.991729e-01 -1.211970e-02
    outer loop
      vertex 1.572951e-02 2.806904e-02 3.616271e-03
      vertex 1.916919e-02 2.793546e-02 3.613420e-03
      vertex 1.880759e-02 2.791432e-02 6.513740e-03
    endloop
  endfacet
  facet normal 7.094867e-02 -9.974787e-01 1.577508e-03
    outer loop
      vertex 1.931160e-02 2.794543e-02 3.513293e-03
      vertex 1.880759e-02 2.791432e-02 6.513740e-03
      vertex 1.916919e-02 2.793546e-02 3.613420e-03
    endloop
  endfacet
  facet normal 8.670127e-01 -5.060599e-02 4.957096e-01
    outer loop
      vertex 2.083974e-02 2.812858e-02 2.981318e-03
      vertex 2.248092e-02 2.847760e-02 1.464594e-04
      vertex 1.880759e-02 2.791432e-02 6.513740e-03
    endloop
  endfacet
  facet normal 1.675555e-01 -9.851816e-01 3.663812e-02
    outer loop
      vertex 2.022727e-02 2.803884e-02 3.369468e-03
      vertex 2.083974e-02 2.812858e-02 2.981318e-03
      vertex 1.880759e-02 2.791432e-02 6.513740e-03
    endloop
  endfacet
  facet normal 1.073462e-01 -9.941801e-01 9.096438e-03
    outer loop
      vertex 1.945377e-02 2.795664e-02 3.513166e-03
      vertex 2.022727e-02 2.803884e-02 3.369468e-03
      vertex 1.880759e-02 2.791432e-02 6.513740e-03
    endloop
  endfacet
  facet normal 7.862600e-02 -9.969000e-01 2.873128e-03
    outer loop
      vertex 1.931160e-02 2.794543e-02 3.513293e-03
      vertex 1.945377e-02 2.795664e-02 3.513166e-03
      vertex 1.880759e-02 2.791432e-02 6.513740e-03
    endloop
  endfacet
  facet normal -2.691644e-01 -9.627754e-01 2.477795e-02
    outer loop
      vertex 1.186856e-02 2.896696e-02 3.619057e-03
      vertex 1.467311e-02 2.825747e-02 6.517067e-03
      vertex 9.867697e-03 2.960101e-02 6.520408e-03
    endloop
  endfacet
  facet normal -2.264897e-01 -9.738238e-01 -1.922545e-02
    outer loop
      vertex 1.186856e-02 2.896696e-02 3.619057e-03
      vertex 1.572951e-02 2.806904e-02 3.616271e-03
      vertex 1.467311e-02 2.825747e-02 6.517067e-03
    endloop
  endfacet
  facet normal -3.087380e-01 -9.511181e-01 -7.437262e-03
    outer loop
      vertex 7.757743e-03 3.030858e-02 3.621809e-03
      vertex 9.867697e-03 2.960101e-02 6.520408e-03
      vertex 5.461505e-03 3.103126e-02 6.523362e-03
    endloop
  endfacet
  facet normal -3.102561e-01 -9.506327e-01 -6.213724e-03
    outer loop
      vertex 7.757743e-03 3.030858e-02 3.621809e-03
      vertex 1.186856e-02 2.896696e-02 3.619057e-03
      vertex 9.867697e-03 2.960101e-02 6.520408e-03
    endloop
  endfacet
  facet normal -2.112318e-01 -9.771938e-01 -2.175623e-02
    outer loop
      vertex 4.227761e-03 3.136250e-02 3.624226e-03
      vertex 5.461505e-03 3.103126e-02 6.523362e-03
      vertex 1.901330e-03 3.180078e-02 6.525963e-03
    endloop
  endfacet
  facet normal -2.860539e-01 -9.581351e-01 1.226224e-02
    outer loop
      vertex 4.227761e-03 3.136250e-02 3.624226e-03
      vertex 7.757743e-03 3.030858e-02 3.621809e-03
      vertex 5.461505e-03 3.103126e-02 6.523362e-03
    endloop
  endfacet
  facet normal -2.997464e-03 -9.891325e-01 1.469963e-01
    outer loop
      vertex 4.227761e-03 3.136250e-02 3.624226e-03
      vertex 1.901330e-03 3.180078e-02 6.525963e-03
      vertex -9.346769e-04 3.180973e-02 6.528370e-03
    endloop
  endfacet
  facet normal 3.903973e-01 -9.205375e-01 -1.416294e-02
    outer loop
      vertex -1.111205e-03 3.177948e-02 3.628536e-03
      vertex -9.346769e-04 3.180973e-02 6.528370e-03
      vertex -5.485413e-03 2.987970e-02 6.533312e-03
    endloop
  endfacet
  facet normal -7.784373e-02 -9.968506e-01 1.513733e-02
    outer loop
      vertex -1.111205e-03 3.177948e-02 3.628536e-03
      vertex 4.227761e-03 3.136250e-02 3.624226e-03
      vertex -9.346769e-04 3.180973e-02 6.528370e-03
    endloop
  endfacet
  facet normal 2.639187e-01 -9.641659e-01 2.703937e-02
    outer loop
      vertex -7.470944e-03 2.915397e-02 3.540060e-05
      vertex -5.485413e-03 2.987970e-02 6.533312e-03
      vertex -1.063108e-02 2.847133e-02 6.538471e-03
    endloop
  endfacet
  facet normal 3.912192e-01 -9.201446e-01 -1.677568e-02
    outer loop
      vertex -4.646908e-03 3.035473e-02 3.233208e-05
      vertex -5.485413e-03 2.987970e-02 6.533312e-03
      vertex -7.470944e-03 2.915397e-02 3.540060e-05
    endloop
  endfacet
  facet normal 5.020701e-01 -8.648255e-01 1.564220e-03
    outer loop
      vertex -3.515097e-03 3.101273e-02 5.487711e-04
      vertex -5.485413e-03 2.987970e-02 6.533312e-03
      vertex -4.646908e-03 3.035473e-02 3.233208e-05
    endloop
  endfacet
  facet normal 3.984598e-01 -9.171858e-01 1.701686e-04
    outer loop
      vertex -1.111290e-03 3.177942e-02 3.528536e-03
      vertex -1.111205e-03 3.177948e-02 3.628536e-03
      vertex -5.485413e-03 2.987970e-02 6.533312e-03
    endloop
  endfacet
  facet normal 1.500981e-01 -9.196472e-01 -3.629319e-01
    outer loop
      vertex -1.235502e-03 3.175910e-02 3.528653e-03
      vertex -1.111290e-03 3.177942e-02 3.528536e-03
      vertex -5.485413e-03 2.987970e-02 6.533312e-03
    endloop
  endfacet
  facet normal 1.644776e-01 -9.239685e-01 -3.452959e-01
    outer loop
      vertex -1.357896e-03 3.173727e-02 3.528769e-03
      vertex -1.235502e-03 3.175910e-02 3.528653e-03
      vertex -5.485413e-03 2.987970e-02 6.533312e-03
    endloop
  endfacet
  facet normal 3.120031e-01 -9.379595e-01 -1.512816e-01
    outer loop
      vertex -2.551523e-03 3.142191e-02 3.022300e-03
      vertex -1.357896e-03 3.173727e-02 3.528769e-03
      vertex -5.485413e-03 2.987970e-02 6.533312e-03
    endloop
  endfacet
  facet normal 4.331453e-01 -9.006945e-01 -3.368350e-02
    outer loop
      vertex -3.041701e-03 3.123263e-02 1.780480e-03
      vertex -2.551523e-03 3.142191e-02 3.022300e-03
      vertex -5.485413e-03 2.987970e-02 6.533312e-03
    endloop
  endfacet
  facet normal 4.581385e-01 -8.887101e-01 -1.742154e-02
    outer loop
      vertex -3.515097e-03 3.101273e-02 5.487711e-04
      vertex -3.041701e-03 3.123263e-02 1.780480e-03
      vertex -5.485413e-03 2.987970e-02 6.533312e-03
    endloop
  endfacet
  facet normal 2.118586e-01 -9.773003e-01 3.622524e-04
    outer loop
      vertex -7.470944e-03 2.915397e-02 3.540060e-05
      vertex -1.063108e-02 2.847133e-02 6.538471e-03
      vertex -1.063661e-02 2.846772e-02 3.847412e-05
    endloop
  endfacet
  facet normal -8.505686e-04 -5.550520e-04 -9.999995e-01
    outer loop
      vertex 2.316363e-02 2.866954e-02 9.612664e-06
      vertex 2.143119e-02 3.400426e-02 8.125176e-06
      vertex 2.813082e-02 3.837631e-02 -4.261737e-11
    endloop
  endfacet
  facet normal -8.505686e-04 -5.550520e-04 -9.999995e-01
    outer loop
      vertex 2.921476e-02 3.849064e-02 -9.854594e-07
      vertex 2.316363e-02 2.866954e-02 9.612664e-06
      vertex 2.813082e-02 3.837631e-02 -4.261737e-11
    endloop
  endfacet
  facet normal -8.505686e-04 -5.550520e-04 -9.999995e-01
    outer loop
      vertex 2.316363e-02 2.866954e-02 9.612664e-06
      vertex 2.076229e-02 3.367418e-02 8.877330e-06
      vertex 2.143119e-02 3.400426e-02 8.125176e-06
    endloop
  endfacet
  facet normal -8.505686e-04 -5.550520e-04 -9.999995e-01
    outer loop
      vertex 2.316363e-02 2.866954e-02 9.612664e-06
      vertex 2.007576e-02 3.340132e-02 9.612724e-06
      vertex 2.076229e-02 3.367418e-02 8.877330e-06
    endloop
  endfacet
  facet normal -1.660114e-01 -1.083358e-01 -9.801549e-01
    outer loop
      vertex 2.248092e-02 2.847760e-02 1.464594e-04
      vertex 2.007576e-02 3.340132e-02 9.612724e-06
      vertex 2.316363e-02 2.866954e-02 9.612664e-06
    endloop
  endfacet
  facet normal -1.669132e-01 -1.087708e-01 -9.799535e-01
    outer loop
      vertex 1.939961e-02 3.319314e-02 1.478867e-04
      vertex 2.007576e-02 3.340132e-02 9.612724e-06
      vertex 2.248092e-02 2.847760e-02 1.464594e-04
    endloop
  endfacet
  facet normal -8.505686e-04 -5.550520e-04 -9.999995e-01
    outer loop
      vertex 3.130543e-02 3.916060e-02 -3.135587e-06
      vertex 2.752886e-02 3.054821e-02 4.856973e-06
      vertex 2.316363e-02 2.866954e-02 9.612664e-06
    endloop
  endfacet
  facet normal -8.505686e-04 -5.550520e-04 -9.999995e-01
    outer loop
      vertex 3.026404e-02 3.874831e-02 -2.020972e-06
      vertex 3.130543e-02 3.916060e-02 -3.135587e-06
      vertex 2.316363e-02 2.866954e-02 9.612664e-06
    endloop
  endfacet
  facet normal -8.505686e-04 -5.550520e-04 -9.999995e-01
    outer loop
      vertex 2.921476e-02 3.849064e-02 -9.854594e-07
      vertex 3.026404e-02 3.874831e-02 -2.020972e-06
      vertex 2.316363e-02 2.866954e-02 9.612664e-06
    endloop
  endfacet
  facet normal -8.505686e-04 -5.550520e-04 -9.999995e-01
    outer loop
      vertex 3.597377e-02 4.284394e-02 -9.150780e-06
      vertex 3.201687e-02 3.375017e-02 -7.376450e-07
      vertex 2.752886e-02 3.054821e-02 4.856973e-06
    endloop
  endfacet
  facet normal -8.505686e-04 -5.550520e-04 -9.999995e-01
    outer loop
      vertex 3.502880e-02 4.190362e-02 -7.825086e-06
      vertex 3.597377e-02 4.284394e-02 -9.150780e-06
      vertex 2.752886e-02 3.054821e-02 4.856973e-06
    endloop
  endfacet
  facet normal -8.505686e-04 -5.550520e-04 -9.999995e-01
    outer loop
      vertex 3.412090e-02 4.106187e-02 -6.585643e-06
      vertex 3.502880e-02 4.190362e-02 -7.825086e-06
      vertex 2.752886e-02 3.054821e-02 4.856973e-06
    endloop
  endfacet
  facet normal -8.505686e-04 -5.550520e-04 -9.999995e-01
    outer loop
      vertex 3.323434e-02 4.034182e-02 -5.431896e-06
      vertex 3.412090e-02 4.106187e-02 -6.585643e-06
      vertex 2.752886e-02 3.054821e-02 4.856973e-06
    endloop
  endfacet
  facet normal -8.505686e-04 -5.550520e-04 -9.999995e-01
    outer loop
      vertex 3.236733e-02 3.974199e-02 -4.361512e-06
      vertex 3.323434e-02 4.034182e-02 -5.431896e-06
      vertex 2.752886e-02 3.054821e-02 4.856973e-06
    endloop
  endfacet
  facet normal -8.505686e-04 -5.550520e-04 -9.999995e-01
    outer loop
      vertex 3.130543e-02 3.916060e-02 -3.135587e-06
      vertex 3.236733e-02 3.974199e-02 -4.361512e-06
      vertex 2.752886e-02 3.054821e-02 4.856973e-06
    endloop
  endfacet
  facet normal -8.505686e-04 -5.550520e-04 -9.999995e-01
    outer loop
      vertex 3.695520e-02 4.388371e-02 -1.056267e-05
      vertex 3.259455e-02 3.427028e-02 -1.517690e-06
      vertex 3.201687e-02 3.375017e-02 -7.376450e-07
    endloop
  endfacet
  facet normal -8.505686e-04 -5.550520e-04 -9.999995e-01
    outer loop
      vertex 3.597377e-02 4.284394e-02 -9.150780e-06
      vertex 3.695520e-02 4.388371e-02 -1.056267e-05
      vertex 3.201687e-02 3.375017e-02 -7.376450e-07
    endloop
  endfacet
  facet normal -8.505686e-04 -5.550520e-04 -9.999995e-01
    outer loop
      vertex 3.695520e-02 4.388371e-02 -1.056267e-05
      vertex 3.314596e-02 3.477492e-02 -2.266800e-06
      vertex 3.259455e-02 3.427028e-02 -1.517690e-06
    endloop
  endfacet
  facet normal -8.505686e-04 -5.550520e-04 -9.999995e-01
    outer loop
      vertex 3.555848e-02 3.708447e-02 -5.600741e-06
      vertex 3.367013e-02 3.526375e-02 -2.983973e-06
      vertex 3.314596e-02 3.477492e-02 -2.266800e-06
    endloop
  endfacet
  facet normal -8.505686e-04 -5.550520e-04 -9.999995e-01
    outer loop
      vertex 3.618003e-02 3.768306e-02 -6.461660e-06
      vertex 3.555848e-02 3.708447e-02 -5.600741e-06
      vertex 3.314596e-02 3.477492e-02 -2.266800e-06
    endloop
  endfacet
  facet normal -8.505686e-04 -5.550520e-04 -9.999995e-01
    outer loop
      vertex 3.695520e-02 4.388371e-02 -1.056267e-05
      vertex 3.618003e-02 3.768306e-02 -6.461660e-06
      vertex 3.314596e-02 3.477492e-02 -2.266800e-06
    endloop
  endfacet
  facet normal -8.505686e-04 -5.550520e-04 -9.999995e-01
    outer loop
      vertex 3.555848e-02 3.708447e-02 -5.600741e-06
      vertex 3.416411e-02 3.573569e-02 -3.666084e-06
      vertex 3.367013e-02 3.526375e-02 -2.983973e-06
    endloop
  endfacet
  facet normal -8.505686e-04 -5.550520e-04 -9.999995e-01
    outer loop
      vertex 3.555848e-02 3.708447e-02 -5.600741e-06
      vertex 3.464022e-02 3.619519e-02 -4.326095e-06
      vertex 3.416411e-02 3.573569e-02 -3.666084e-06
    endloop
  endfacet
  facet normal -8.505686e-04 -5.550520e-04 -9.999995e-01
    outer loop
      vertex 3.555848e-02 3.708447e-02 -5.600741e-06
      vertex 3.510600e-02 3.664522e-02 -4.972063e-06
      vertex 3.464022e-02 3.619519e-02 -4.326095e-06
    endloop
  endfacet
  facet normal -8.505686e-04 -5.550520e-04 -9.999995e-01
    outer loop
      vertex 3.695520e-02 4.388371e-02 -1.056267e-05
      vertex 3.678754e-02 3.826255e-02 -7.300037e-06
      vertex 3.618003e-02 3.768306e-02 -6.461660e-06
    endloop
  endfacet
  facet normal -8.505686e-04 -5.550520e-04 -9.999995e-01
    outer loop
      vertex 3.695520e-02 4.388371e-02 -1.056267e-05
      vertex 3.738734e-02 3.882479e-02 -8.122274e-06
      vertex 3.678754e-02 3.826255e-02 -7.300037e-06
    endloop
  endfacet
  facet normal -8.505686e-04 -5.550520e-04 -9.999995e-01
    outer loop
      vertex 3.695520e-02 4.388371e-02 -1.056267e-05
      vertex 3.797821e-02 3.936833e-02 -8.926551e-06
      vertex 3.738734e-02 3.882479e-02 -8.122274e-06
    endloop
  endfacet
  facet normal -8.505686e-04 -5.550520e-04 -9.999995e-01
    outer loop
      vertex 3.695520e-02 4.388371e-02 -1.056267e-05
      vertex 3.855772e-02 3.988845e-02 -9.708158e-06
      vertex 3.797821e-02 3.936833e-02 -8.926551e-06
    endloop
  endfacet
  facet normal -8.505686e-04 -5.550520e-04 -9.999995e-01
    outer loop
      vertex 3.695520e-02 4.388371e-02 -1.056267e-05
      vertex 3.926106e-02 4.050006e-02 -1.064587e-05
      vertex 3.855772e-02 3.988845e-02 -9.708158e-06
    endloop
  endfacet
  facet normal -8.505686e-04 -5.550520e-04 -9.999995e-01
    outer loop
      vertex 3.695520e-02 4.388371e-02 -1.056267e-05
      vertex 3.993396e-02 4.106024e-02 -1.152915e-05
      vertex 3.926106e-02 4.050006e-02 -1.064587e-05
    endloop
  endfacet
  facet normal -8.505686e-04 -5.550520e-04 -9.999995e-01
    outer loop
      vertex 4.507885e-02 4.519246e-02 -1.819883e-05
      vertex 4.057011e-02 4.156294e-02 -1.234927e-05
      vertex 3.993396e-02 4.106024e-02 -1.152915e-05
    endloop
  endfacet
  facet normal -8.505686e-04 -5.550520e-04 -9.999995e-01
    outer loop
      vertex 3.695520e-02 4.388371e-02 -1.056267e-05
      vertex 4.507885e-02 4.519246e-02 -1.819883e-05
      vertex 3.993396e-02 4.106024e-02 -1.152915e-05
    endloop
  endfacet
  facet normal -8.505686e-04 -5.550520e-04 -9.999995e-01
    outer loop
      vertex 4.507885e-02 4.519246e-02 -1.819883e-05
      vertex 4.116634e-02 4.200620e-02 -1.310243e-05
      vertex 4.057011e-02 4.156294e-02 -1.234927e-05
    endloop
  endfacet
  facet normal -8.505686e-04 -5.550520e-04 -9.999995e-01
    outer loop
      vertex 4.507885e-02 4.519246e-02 -1.819883e-05
      vertex 4.189350e-02 4.250200e-02 -1.399612e-05
      vertex 4.116634e-02 4.200620e-02 -1.310243e-05
    endloop
  endfacet
  facet normal -8.505686e-04 -5.550520e-04 -9.999995e-01
    outer loop
      vertex 4.507885e-02 4.519246e-02 -1.819883e-05
      vertex 4.254134e-02 4.289250e-02 -1.476390e-05
      vertex 4.189350e-02 4.250200e-02 -1.399612e-05
    endloop
  endfacet
  facet normal -8.505686e-04 -5.550520e-04 -9.999995e-01
    outer loop
      vertex 4.507885e-02 4.519246e-02 -1.819883e-05
      vertex 4.311350e-02 4.318671e-02 -1.541386e-05
      vertex 4.254134e-02 4.289250e-02 -1.476390e-05
    endloop
  endfacet
  facet normal -8.505686e-04 -5.550520e-04 -9.999995e-01
    outer loop
      vertex 4.507885e-02 4.519246e-02 -1.819883e-05
      vertex 4.361511e-02 4.339479e-02 -1.595601e-05
      vertex 4.311350e-02 4.318671e-02 -1.541386e-05
    endloop
  endfacet
  facet normal -8.505686e-04 -5.550520e-04 -9.999995e-01
    outer loop
      vertex 4.507885e-02 4.519246e-02 -1.819883e-05
      vertex 4.404611e-02 4.352624e-02 -1.639557e-05
      vertex 4.361511e-02 4.339479e-02 -1.595601e-05
    endloop
  endfacet
  facet normal -8.505686e-04 -5.550520e-04 -9.999995e-01
    outer loop
      vertex 4.507885e-02 4.519246e-02 -1.819883e-05
      vertex 4.441353e-02 4.359525e-02 -1.674639e-05
      vertex 4.404611e-02 4.352624e-02 -1.639557e-05
    endloop
  endfacet
  facet normal -8.505686e-04 -5.550520e-04 -9.999995e-01
    outer loop
      vertex 5.116327e-02 4.831719e-02 -2.510844e-05
      vertex 4.488789e-02 4.358061e-02 -1.714174e-05
      vertex 4.441353e-02 4.359525e-02 -1.674639e-05
    endloop
  endfacet
  facet normal -8.505686e-04 -5.550520e-04 -9.999995e-01
    outer loop
      vertex 4.507885e-02 4.519246e-02 -1.819883e-05
      vertex 5.116327e-02 4.831719e-02 -2.510844e-05
      vertex 4.441353e-02 4.359525e-02 -1.674639e-05
    endloop
  endfacet
  facet normal -8.505686e-04 -5.550520e-04 -9.999995e-01
    outer loop
      vertex 5.116327e-02 4.831719e-02 -2.510844e-05
      vertex 4.532962e-02 4.332018e-02 -1.737291e-05
      vertex 4.488789e-02 4.358061e-02 -1.714174e-05
    endloop
  endfacet
  facet normal -8.505686e-04 -5.550520e-04 -9.999995e-01
    outer loop
      vertex 5.116327e-02 4.831719e-02 -2.510844e-05
      vertex 4.577018e-02 4.263995e-02 -1.737007e-05
      vertex 4.532962e-02 4.332018e-02 -1.737291e-05
    endloop
  endfacet
  facet normal -8.505686e-04 -5.550520e-04 -9.999995e-01
    outer loop
      vertex 5.116327e-02 4.831719e-02 -2.510844e-05
      vertex 4.623904e-02 4.129163e-02 -1.702049e-05
      vertex 4.577018e-02 4.263995e-02 -1.737007e-05
    endloop
  endfacet
  facet normal -8.505686e-04 -5.550520e-04 -9.999995e-01
    outer loop
      vertex 5.301559e-02 4.582420e-02 -2.530022e-05
      vertex 5.335543e-02 4.494635e-02 -2.510203e-05
      vertex 4.623904e-02 4.129163e-02 -1.702049e-05
    endloop
  endfacet
  facet normal -8.505686e-04 -5.550520e-04 -9.999995e-01
    outer loop
      vertex 5.252113e-02 4.671098e-02 -2.537186e-05
      vertex 5.301559e-02 4.582420e-02 -2.530022e-05
      vertex 4.623904e-02 4.129163e-02 -1.702049e-05
    endloop
  endfacet
  facet normal -8.505686e-04 -5.550520e-04 -9.999995e-01
    outer loop
      vertex 5.189578e-02 4.755815e-02 -2.531018e-05
      vertex 5.252113e-02 4.671098e-02 -2.537186e-05
      vertex 4.623904e-02 4.129163e-02 -1.702049e-05
    endloop
  endfacet
  facet normal -8.505686e-04 -5.550520e-04 -9.999995e-01
    outer loop
      vertex 5.116327e-02 4.831719e-02 -2.510844e-05
      vertex 5.189578e-02 4.755815e-02 -2.531018e-05
      vertex 4.623904e-02 4.129163e-02 -1.702049e-05
    endloop
  endfacet
  facet normal -4.568398e-01 8.895490e-01 -1.051725e-04
    outer loop
      vertex 5.116710e-02 4.831969e-02 4.475064e-03
      vertex 5.116327e-02 4.831719e-02 -2.510844e-05
      vertex 4.507885e-02 4.519246e-02 -1.819883e-05
    endloop
  endfacet
  facet normal -1.590533e-01 9.872699e-01 -4.127006e-04
    outer loop
      vertex 4.508225e-02 4.519468e-02 3.981799e-03
      vertex 4.507885e-02 4.519246e-02 -1.819883e-05
      vertex 3.695520e-02 4.388371e-02 -1.056267e-05
    endloop
  endfacet
  facet normal -4.568398e-01 8.895490e-01 -1.051725e-04
    outer loop
      vertex 5.013405e-02 4.778912e-02 4.207630e-03
      vertex 5.116710e-02 4.831969e-02 4.475064e-03
      vertex 4.507885e-02 4.519246e-02 -1.819883e-05
    endloop
  endfacet
  facet normal -4.568398e-01 8.895490e-01 -1.051725e-04
    outer loop
      vertex 4.508225e-02 4.519468e-02 3.981799e-03
      vertex 4.921327e-02 4.731622e-02 3.977108e-03
      vertex 4.507885e-02 4.519246e-02 -1.819883e-05
    endloop
  endfacet
  facet normal -4.568398e-01 8.895490e-01 -1.051725e-04
    outer loop
      vertex 5.013405e-02 4.778912e-02 4.207630e-03
      vertex 4.507885e-02 4.519246e-02 -1.819883e-05
      vertex 4.921327e-02 4.731622e-02 3.977108e-03
    endloop
  endfacet
  facet normal -7.272140e-01 6.864107e-01 2.375519e-04
    outer loop
      vertex 3.695902e-02 4.388621e-02 4.489493e-03
      vertex 3.695520e-02 4.388371e-02 -1.056267e-05
      vertex 3.597377e-02 4.284394e-02 -9.150780e-06
    endloop
  endfacet
  facet normal -1.590533e-01 9.872699e-01 -4.127006e-04
    outer loop
      vertex 3.880128e-02 4.418288e-02 4.206498e-03
      vertex 3.695520e-02 4.388371e-02 -1.056267e-05
      vertex 3.695902e-02 4.388621e-02 4.489493e-03
    endloop
  endfacet
  facet normal -1.590533e-01 9.872699e-01 -4.127006e-04
    outer loop
      vertex 4.508225e-02 4.519468e-02 3.981799e-03
      vertex 3.695520e-02 4.388371e-02 -1.056267e-05
      vertex 4.028387e-02 4.442164e-02 3.986310e-03
    endloop
  endfacet
  facet normal -1.590533e-01 9.872699e-01 -4.127006e-04
    outer loop
      vertex 3.880128e-02 4.418288e-02 4.206498e-03
      vertex 4.028387e-02 4.442164e-02 3.986310e-03
      vertex 3.695520e-02 4.388371e-02 -1.056267e-05
    endloop
  endfacet
  facet normal -8.505686e-04 -5.550520e-04 -9.999995e-01
    outer loop
      vertex -9.170143e-03 3.677240e-02 3.261726e-05
      vertex -1.063661e-02 2.846772e-02 3.847412e-05
      vertex -1.228507e-02 3.629604e-02 3.553112e-05
    endloop
  endfacet
  facet normal -8.505686e-04 -5.550520e-04 -9.999995e-01
    outer loop
      vertex -1.199585e-02 3.635695e-02 3.525132e-05
      vertex -9.170143e-03 3.677240e-02 3.261726e-05
      vertex -1.228507e-02 3.629604e-02 3.553112e-05
    endloop
  endfacet
  facet normal -8.505686e-04 -5.550520e-04 -9.999995e-01
    outer loop
      vertex -6.035265e-03 3.694788e-02 2.985343e-05
      vertex -7.470944e-03 2.915397e-02 3.540060e-05
      vertex -1.063661e-02 2.846772e-02 3.847412e-05
    endloop
  endfacet
  facet normal -8.505686e-04 -5.550520e-04 -9.999995e-01
    outer loop
      vertex -9.170143e-03 3.677240e-02 3.261726e-05
      vertex -6.035265e-03 3.694788e-02 2.985343e-05
      vertex -1.063661e-02 2.846772e-02 3.847412e-05
    endloop
  endfacet
  facet normal -8.505686e-04 -5.550520e-04 -9.999995e-01
    outer loop
      vertex -6.035265e-03 3.694788e-02 2.985343e-05
      vertex -4.646908e-03 3.035473e-02 3.233208e-05
      vertex -7.470944e-03 2.915397e-02 3.540060e-05
    endloop
  endfacet
  facet normal 3.725174e-01 7.809545e-02 -9.247334e-01
    outer loop
      vertex -4.780143e-03 3.697958e-02 5.381412e-04
      vertex -4.646908e-03 3.035473e-02 3.233208e-05
      vertex -6.035265e-03 3.694788e-02 2.985343e-05
    endloop
  endfacet
  facet normal 3.759388e-01 7.805870e-02 -9.233509e-01
    outer loop
      vertex -4.780143e-03 3.697958e-02 5.381412e-04
      vertex -3.515097e-03 3.101273e-02 5.487711e-04
      vertex -4.646908e-03 3.035473e-02 3.233208e-05
    endloop
  endfacet
  facet normal -2.588271e-02 9.996638e-01 1.562389e-03
    outer loop
      vertex -3.735561e-03 3.700276e-02 3.011569e-03
      vertex -4.780143e-03 3.697958e-02 5.381412e-04
      vertex -6.035265e-03 3.694788e-02 2.985343e-05
    endloop
  endfacet
  facet normal 1.448148e-01 1.990043e-01 -9.692399e-01
    outer loop
      vertex 4.921327e-02 4.731622e-02 3.977108e-03
      vertex 4.990716e-02 4.923837e-02 4.475439e-03
      vertex 5.116710e-02 4.831969e-02 4.475064e-03
    endloop
  endfacet
  facet normal -4.568398e-01 8.895490e-01 -1.051725e-04
    outer loop
      vertex 5.013405e-02 4.778912e-02 4.207630e-03
      vertex 4.921327e-02 4.731622e-02 3.977108e-03
      vertex 5.116710e-02 4.831969e-02 4.475064e-03
    endloop
  endfacet
  facet normal -1.759797e-01 1.674607e-01 -9.700454e-01
    outer loop
      vertex 3.880128e-02 4.418288e-02 4.206498e-03
      vertex 3.695902e-02 4.388621e-02 4.489493e-03
      vertex 3.806011e-02 4.503383e-02 4.487859e-03
    endloop
  endfacet
  facet normal -1.710971e-01 1.731229e-01 -9.699249e-01
    outer loop
      vertex 4.028387e-02 4.442164e-02 3.986310e-03
      vertex 3.806011e-02 4.503383e-02 4.487859e-03
      vertex 3.913907e-02 4.609171e-02 4.486348e-03
    endloop
  endfacet
  facet normal -1.716629e-01 1.712572e-01 -9.701561e-01
    outer loop
      vertex 3.880128e-02 4.418288e-02 4.206498e-03
      vertex 3.806011e-02 4.503383e-02 4.487859e-03
      vertex 4.028387e-02 4.442164e-02 3.986310e-03
    endloop
  endfacet
  facet normal -1.604667e-01 1.805485e-01 -9.703879e-01
    outer loop
      vertex 4.028387e-02 4.442164e-02 3.986310e-03
      vertex 3.913907e-02 4.609171e-02 4.486348e-03
      vertex 4.021106e-02 4.703685e-02 4.484930e-03
    endloop
  endfacet
  facet normal -1.399608e-01 1.816834e-01 -9.733458e-01
    outer loop
      vertex 4.028387e-02 4.442164e-02 3.986310e-03
      vertex 4.021106e-02 4.703685e-02 4.484930e-03
      vertex 4.128423e-02 4.785626e-02 4.483565e-03
    endloop
  endfacet
  facet normal -1.130949e-01 1.745514e-01 -9.781316e-01
    outer loop
      vertex 4.028387e-02 4.442164e-02 3.986310e-03
      vertex 4.128423e-02 4.785626e-02 4.483565e-03
      vertex 4.234321e-02 4.853512e-02 4.482268e-03
    endloop
  endfacet
  facet normal -1.121181e-01 2.173805e-01 -9.696263e-01
    outer loop
      vertex 4.406671e-02 4.719062e-02 3.981555e-03
      vertex 4.234321e-02 4.853512e-02 4.482268e-03
      vertex 4.363697e-02 4.919585e-02 4.480799e-03
    endloop
  endfacet
  facet normal -1.374530e-01 1.861110e-01 -9.728666e-01
    outer loop
      vertex 4.028387e-02 4.442164e-02 3.986310e-03
      vertex 4.234321e-02 4.853512e-02 4.482268e-03
      vertex 4.406671e-02 4.719062e-02 3.981555e-03
    endloop
  endfacet
  facet normal -8.355768e-02 2.238519e-01 -9.710347e-01
    outer loop
      vertex 4.406671e-02 4.719062e-02 3.981555e-03
      vertex 4.363697e-02 4.919585e-02 4.480799e-03
      vertex 4.488772e-02 4.965700e-02 4.479480e-03
    endloop
  endfacet
  facet normal -4.802766e-02 2.130009e-01 -9.758709e-01
    outer loop
      vertex 4.406671e-02 4.719062e-02 3.981555e-03
      vertex 4.488772e-02 4.965700e-02 4.479480e-03
      vertex 4.608890e-02 4.992257e-02 4.478330e-03
    endloop
  endfacet
  facet normal -1.574423e-02 2.432179e-01 -9.698439e-01
    outer loop
      vertex 4.707722e-02 4.799365e-02 3.978549e-03
      vertex 4.608890e-02 4.992257e-02 4.478330e-03
      vertex 4.722379e-02 4.999211e-02 4.477345e-03
    endloop
  endfacet
  facet normal -6.003582e-02 2.214268e-01 -9.733272e-01
    outer loop
      vertex 4.406671e-02 4.719062e-02 3.981555e-03
      vertex 4.608890e-02 4.992257e-02 4.478330e-03
      vertex 4.707722e-02 4.799365e-02 3.978549e-03
    endloop
  endfacet
  facet normal 3.450340e-02 2.396340e-01 -9.702500e-01
    outer loop
      vertex 4.707722e-02 4.799365e-02 3.978549e-03
      vertex 4.722379e-02 4.999211e-02 4.477345e-03
      vertex 4.860941e-02 4.978777e-02 4.476151e-03
    endloop
  endfacet
  facet normal 8.380597e-02 1.992252e-01 -9.763636e-01
    outer loop
      vertex 4.707722e-02 4.799365e-02 3.978549e-03
      vertex 4.860941e-02 4.978777e-02 4.476151e-03
      vertex 4.990716e-02 4.923837e-02 4.475439e-03
    endloop
  endfacet
  facet normal 7.108317e-02 2.262028e-01 -9.714831e-01
    outer loop
      vertex 4.707722e-02 4.799365e-02 3.978549e-03
      vertex 4.990716e-02 4.923837e-02 4.475439e-03
      vertex 4.921327e-02 4.731622e-02 3.977108e-03
    endloop
  endfacet
  facet normal -8.505686e-04 -5.550520e-04 -9.999995e-01
    outer loop
      vertex 1.591245e-02 3.292602e-02 3.613420e-03
      vertex 1.916919e-02 2.793546e-02 3.613420e-03
      vertex 1.572951e-02 2.806904e-02 3.616271e-03
    endloop
  endfacet
  facet normal 7.019067e-02 -9.975335e-01 4.939813e-04
    outer loop
      vertex 1.916911e-02 2.793540e-02 3.513420e-03
      vertex 1.931160e-02 2.794543e-02 3.513293e-03
      vertex 1.916919e-02 2.793546e-02 3.613420e-03
    endloop
  endfacet
  facet normal -8.374542e-01 -5.465066e-01 1.015652e-03
    outer loop
      vertex 1.591245e-02 3.292602e-02 3.613420e-03
      vertex 1.916911e-02 2.793540e-02 3.513420e-03
      vertex 1.916919e-02 2.793546e-02 3.613420e-03
    endloop
  endfacet
  facet normal -8.505686e-04 -5.550520e-04 -9.999995e-01
    outer loop
      vertex 1.591245e-02 3.292602e-02 3.613420e-03
      vertex 1.572951e-02 2.806904e-02 3.616271e-03
      vertex 1.186856e-02 2.896696e-02 3.619057e-03
    endloop
  endfacet
  facet normal -8.505686e-04 -5.550520e-04 -9.999995e-01
    outer loop
      vertex 1.251518e-02 3.363707e-02 3.615915e-03
      vertex 1.186856e-02 2.896696e-02 3.619057e-03
      vertex 7.757743e-03 3.030858e-02 3.621809e-03
    endloop
  endfacet
  facet normal -8.505686e-04 -5.550520e-04 -9.999995e-01
    outer loop
      vertex 1.591245e-02 3.292602e-02 3.613420e-03
      vertex 1.186856e-02 2.896696e-02 3.619057e-03
      vertex 1.251518e-02 3.363707e-02 3.615915e-03
    endloop
  endfacet
  facet normal -8.505686e-04 -5.550520e-04 -9.999995e-01
    outer loop
      vertex 8.379358e-03 3.508174e-02 3.618630e-03
      vertex 7.757743e-03 3.030858e-02 3.621809e-03
      vertex 4.227761e-03 3.136250e-02 3.624226e-03
    endloop
  endfacet
  facet normal -8.505686e-04 -5.550520e-04 -9.999995e-01
    outer loop
      vertex 1.251518e-02 3.363707e-02 3.615915e-03
      vertex 7.757743e-03 3.030858e-02 3.621809e-03
      vertex 8.379358e-03 3.508174e-02 3.618630e-03
    endloop
  endfacet
  facet normal -8.505686e-04 -5.550520e-04 -9.999995e-01
    outer loop
      vertex 3.259720e-03 3.659987e-02 3.622142e-03
      vertex 4.227761e-03 3.136250e-02 3.624226e-03
      vertex -1.111205e-03 3.177948e-02 3.628536e-03
    endloop
  endfacet
  facet normal -8.505686e-04 -5.550520e-04 -9.999995e-01
    outer loop
      vertex 8.379358e-03 3.508174e-02 3.618630e-03
      vertex 4.227761e-03 3.136250e-02 3.624226e-03
      vertex 3.259720e-03 3.659987e-02 3.622142e-03
    endloop
  endfacet
  facet normal 9.785397e-01 2.060563e-01 -9.466876e-04
    outer loop
      vertex -2.214640e-03 3.701911e-02 3.526566e-03
      vertex -1.111205e-03 3.177948e-02 3.628536e-03
      vertex -1.111290e-03 3.177942e-02 3.528536e-03
    endloop
  endfacet
  facet normal -8.505686e-04 -5.550520e-04 -9.999995e-01
    outer loop
      vertex 3.259720e-03 3.659987e-02 3.622142e-03
      vertex -1.111205e-03 3.177948e-02 3.628536e-03
      vertex -2.214555e-03 3.701917e-02 3.626566e-03
    endloop
  endfacet
  facet normal 9.785397e-01 2.060563e-01 -9.466876e-04
    outer loop
      vertex -2.214640e-03 3.701911e-02 3.526566e-03
      vertex -2.214555e-03 3.701917e-02 3.626566e-03
      vertex -1.111205e-03 3.177948e-02 3.628536e-03
    endloop
  endfacet
  facet normal -8.505686e-04 -5.550520e-04 -9.999995e-01
    outer loop
      vertex -2.214640e-03 3.701911e-02 3.526566e-03
      vertex -1.111290e-03 3.177942e-02 3.528536e-03
      vertex -1.235502e-03 3.175910e-02 3.528653e-03
    endloop
  endfacet
  facet normal -8.505686e-04 -5.550520e-04 -9.999995e-01
    outer loop
      vertex -2.214640e-03 3.701911e-02 3.526566e-03
      vertex -1.235502e-03 3.175910e-02 3.528653e-03
      vertex -1.357896e-03 3.173727e-02 3.528769e-03
    endloop
  endfacet
  facet normal 3.718889e-01 7.796299e-02 -9.249975e-01
    outer loop
      vertex -2.469985e-03 3.701846e-02 3.526784e-03
      vertex -1.357896e-03 3.173727e-02 3.528769e-03
      vertex -2.551523e-03 3.142191e-02 3.022300e-03
    endloop
  endfacet
  facet normal -8.505686e-04 -5.550520e-04 -9.999995e-01
    outer loop
      vertex -2.214640e-03 3.701911e-02 3.526566e-03
      vertex -1.357896e-03 3.173727e-02 3.528769e-03
      vertex -2.469985e-03 3.701846e-02 3.526784e-03
    endloop
  endfacet
  facet normal 9.027927e-01 1.907961e-01 -3.854377e-01
    outer loop
      vertex -3.735561e-03 3.700276e-02 3.011569e-03
      vertex -2.551523e-03 3.142191e-02 3.022300e-03
      vertex -3.041701e-03 3.123263e-02 1.780480e-03
    endloop
  endfacet
  facet normal 3.750814e-01 7.780143e-02 -9.237212e-01
    outer loop
      vertex -2.469985e-03 3.701846e-02 3.526784e-03
      vertex -2.551523e-03 3.142191e-02 3.022300e-03
      vertex -3.735561e-03 3.700276e-02 3.011569e-03
    endloop
  endfacet
  facet normal 9.045126e-01 1.903249e-01 -3.816193e-01
    outer loop
      vertex -4.254442e-03 3.699180e-02 1.778315e-03
      vertex -3.041701e-03 3.123263e-02 1.780480e-03
      vertex -3.515097e-03 3.101273e-02 5.487711e-04
    endloop
  endfacet
  facet normal 9.042920e-01 1.902782e-01 -3.821651e-01
    outer loop
      vertex -3.735561e-03 3.700276e-02 3.011569e-03
      vertex -3.041701e-03 3.123263e-02 1.780480e-03
      vertex -4.254442e-03 3.699180e-02 1.778315e-03
    endloop
  endfacet
  facet normal 9.031094e-01 1.907850e-01 -3.847005e-01
    outer loop
      vertex -4.254442e-03 3.699180e-02 1.778315e-03
      vertex -3.515097e-03 3.101273e-02 5.487711e-04
      vertex -4.780143e-03 3.697958e-02 5.381412e-04
    endloop
  endfacet
  facet normal 2.489926e-01 -9.683134e-01 1.928233e-02
    outer loop
      vertex 2.136724e-02 2.822338e-02 1.761389e-03
      vertex 2.189500e-02 2.833461e-02 5.320568e-04
      vertex 2.248092e-02 2.847760e-02 1.464594e-04
    endloop
  endfacet
  facet normal -4.698584e-01 -3.067727e-01 -8.277219e-01
    outer loop
      vertex 1.939961e-02 3.319314e-02 1.478867e-04
      vertex 2.248092e-02 2.847760e-02 1.464594e-04
      vertex 2.189500e-02 2.833461e-02 5.320568e-04
    endloop
  endfacet
  facet normal 2.955471e-01 -9.538195e-01 5.366868e-02
    outer loop
      vertex 2.083974e-02 2.812858e-02 2.981318e-03
      vertex 2.136724e-02 2.822338e-02 1.761389e-03
      vertex 2.248092e-02 2.847760e-02 1.464594e-04
    endloop
  endfacet
  facet normal -7.749080e-01 -5.062363e-01 -3.784738e-01
    outer loop
      vertex 1.880794e-02 3.305640e-02 5.369349e-04
      vertex 2.189500e-02 2.833461e-02 5.320568e-04
      vertex 2.136724e-02 2.822338e-02 1.761389e-03
    endloop
  endfacet
  facet normal -4.720603e-01 -3.077750e-01 -8.260954e-01
    outer loop
      vertex 1.939961e-02 3.319314e-02 1.478867e-04
      vertex 2.189500e-02 2.833461e-02 5.320568e-04
      vertex 1.880794e-02 3.305640e-02 5.369349e-04
    endloop
  endfacet
  facet normal -7.763219e-01 -5.066128e-01 -3.750570e-01
    outer loop
      vertex 1.827129e-02 3.296755e-02 1.761389e-03
      vertex 2.136724e-02 2.822338e-02 1.761389e-03
      vertex 2.083974e-02 2.812858e-02 2.981318e-03
    endloop
  endfacet
  facet normal -7.757540e-01 -5.062422e-01 -3.767288e-01
    outer loop
      vertex 1.880794e-02 3.305640e-02 5.369349e-04
      vertex 2.136724e-02 2.822338e-02 1.761389e-03
      vertex 1.827129e-02 3.296755e-02 1.761389e-03
    endloop
  endfacet
  facet normal -4.760594e-01 -3.101964e-01 -8.228886e-01
    outer loop
      vertex 1.708127e-02 3.287962e-02 3.364717e-03
      vertex 2.083974e-02 2.812858e-02 2.981318e-03
      vertex 2.022727e-02 2.803884e-02 3.369468e-03
    endloop
  endfacet
  facet normal -4.794354e-01 -3.131149e-01 -8.198175e-01
    outer loop
      vertex 1.772501e-02 3.290926e-02 2.976934e-03
      vertex 2.083974e-02 2.812858e-02 2.981318e-03
      vertex 1.708127e-02 3.287962e-02 3.364717e-03
    endloop
  endfacet
  facet normal -7.770633e-01 -5.066170e-01 -3.735128e-01
    outer loop
      vertex 1.827129e-02 3.296755e-02 1.761389e-03
      vertex 2.083974e-02 2.812858e-02 2.981318e-03
      vertex 1.772501e-02 3.290926e-02 2.976934e-03
    endloop
  endfacet
  facet normal -1.700480e-01 -1.114743e-01 -9.791104e-01
    outer loop
      vertex 1.708127e-02 3.287962e-02 3.364717e-03
      vertex 2.022727e-02 2.803884e-02 3.369468e-03
      vertex 1.945377e-02 2.795664e-02 3.513166e-03
    endloop
  endfacet
  facet normal -8.505686e-04 -5.550520e-04 -9.999995e-01
    outer loop
      vertex 1.916911e-02 2.793540e-02 3.513420e-03
      vertex 1.945377e-02 2.795664e-02 3.513166e-03
      vertex 1.931160e-02 2.794543e-02 3.513293e-03
    endloop
  endfacet
  facet normal -8.505686e-04 -5.550520e-04 -9.999995e-01
    outer loop
      vertex 1.622698e-02 3.290131e-02 3.513166e-03
      vertex 1.945377e-02 2.795664e-02 3.513166e-03
      vertex 1.916911e-02 2.793540e-02 3.513420e-03
    endloop
  endfacet
  facet normal -1.728874e-01 -1.128230e-01 -9.784584e-01
    outer loop
      vertex 1.708127e-02 3.287962e-02 3.364717e-03
      vertex 1.945377e-02 2.795664e-02 3.513166e-03
      vertex 1.622698e-02 3.290131e-02 3.513166e-03
    endloop
  endfacet
  facet normal -8.374542e-01 -5.465066e-01 1.015652e-03
    outer loop
      vertex 1.591236e-02 3.292596e-02 3.513420e-03
      vertex 1.916911e-02 2.793540e-02 3.513420e-03
      vertex 1.591245e-02 3.292602e-02 3.613420e-03
    endloop
  endfacet
  facet normal -8.505686e-04 -5.550520e-04 -9.999995e-01
    outer loop
      vertex 1.607054e-02 3.291250e-02 3.513293e-03
      vertex 1.916911e-02 2.793540e-02 3.513420e-03
      vertex 1.591236e-02 3.292596e-02 3.513420e-03
    endloop
  endfacet
  facet normal -8.505686e-04 -5.550520e-04 -9.999995e-01
    outer loop
      vertex 1.622698e-02 3.290131e-02 3.513166e-03
      vertex 1.916911e-02 2.793540e-02 3.513420e-03
      vertex 1.607054e-02 3.291250e-02 3.513293e-03
    endloop
  endfacet
  facet normal -1.572852e-03 9.999986e-01 -5.537137e-04
    outer loop
      vertex -2.214640e-03 3.701911e-02 3.526566e-03
      vertex -2.342175e-03 3.701891e-02 3.526675e-03
      vertex -2.214555e-03 3.701917e-02 3.626566e-03
    endloop
  endfacet
  facet normal -2.884080e-01 9.508294e-01 1.128901e-01
    outer loop
      vertex -3.735561e-03 3.700276e-02 3.011569e-03
      vertex -4.254442e-03 3.699180e-02 1.778315e-03
      vertex -4.780143e-03 3.697958e-02 5.381412e-04
    endloop
  endfacet
  facet normal -8.505686e-04 -5.550520e-04 -9.999995e-01
    outer loop
      vertex -2.214640e-03 3.701911e-02 3.526566e-03
      vertex -2.469985e-03 3.701846e-02 3.526784e-03
      vertex -2.342175e-03 3.701891e-02 3.526675e-03
    endloop
  endfacet
  facet normal -8.505686e-04 -5.550520e-04 -9.999995e-01
    outer loop
      vertex 4.508225e-02 4.519468e-02 3.981799e-03
      vertex 4.707722e-02 4.799365e-02 3.978549e-03
      vertex 4.921327e-02 4.731622e-02 3.977108e-03
    endloop
  endfacet
  facet normal -8.505686e-04 -5.550520e-04 -9.999995e-01
    outer loop
      vertex 4.508225e-02 4.519468e-02 3.981799e-03
      vertex 4.406671e-02 4.719062e-02 3.981555e-03
      vertex 4.707722e-02 4.799365e-02 3.978549e-03
    endloop
  endfacet
  facet normal -8.505686e-04 -5.550520e-04 -9.999995e-01
    outer loop
      vertex 4.508225e-02 4.519468e-02 3.981799e-03
      vertex 4.028387e-02 4.442164e-02 3.986310e-03
      vertex 4.406671e-02 4.719062e-02 3.981555e-03
    endloop
  endfacet
endsolid ASM0002
