solid ASM0002
  facet normal 2.074886e-14 1.319703e-13 -1.000000e+00
    outer loop
      vertex -9.214531e-04 1.358023e-02 -7.652162e-15
      vertex 5.752585e-03 9.159305e-03 -8.097114e-15
      vertex 5.580380e-03 8.919095e-03 -8.132387e-15
    endloop
  endfacet
  facet normal 8.127291e-01 -5.826417e-01 -6.033037e-14
    outer loop
      vertex 5.752585e-03 9.159305e-03 6.500000e-03
      vertex 5.580380e-03 8.919095e-03 -8.132387e-15
      vertex 5.752585e-03 9.159305e-03 -8.097114e-15
    endloop
  endfacet
  facet normal -5.826417e-01 -8.127291e-01 -1.191840e-13
    outer loop
      vertex -9.214531e-04 1.358023e-02 6.500000e-03
      vertex -9.214531e-04 1.358023e-02 -7.652162e-15
      vertex 5.580380e-03 8.919095e-03 -8.132387e-15
    endloop
  endfacet
  facet normal -5.826417e-01 -8.127291e-01 -1.191710e-13
    outer loop
      vertex -9.214531e-04 1.358023e-02 6.500000e-03
      vertex 5.580380e-03 8.919095e-03 -8.132387e-15
      vertex 5.580380e-03 8.919095e-03 6.500000e-03
    endloop
  endfacet
  facet normal 8.127291e-01 -5.826417e-01 -6.048621e-14
    outer loop
      vertex 5.752585e-03 9.159305e-03 6.500000e-03
      vertex 5.580380e-03 8.919095e-03 6.500000e-03
      vertex 5.580380e-03 8.919095e-03 -8.132387e-15
    endloop
  endfacet
  facet normal 2.074886e-14 1.319703e-13 -1.000000e+00
    outer loop
      vertex -9.214531e-04 1.358023e-02 -7.652162e-15
      vertex 8.422610e-03 1.380493e-02 -7.428629e-15
      vertex 5.752585e-03 9.159305e-03 -8.097114e-15
    endloop
  endfacet
  facet normal 8.670040e-01 -4.983012e-01 -4.811015e-14
    outer loop
      vertex 5.752585e-03 9.159305e-03 6.500000e-03
      vertex 5.752585e-03 9.159305e-03 -8.097114e-15
      vertex 8.422610e-03 1.380493e-02 -7.428629e-15
    endloop
  endfacet
  facet normal 2.074886e-14 1.319703e-13 -1.000000e+00
    outer loop
      vertex 2.439700e-03 1.772319e-02 -7.035674e-15
      vertex 1.083936e-02 1.912690e-02 -6.676143e-15
      vertex 8.422610e-03 1.380493e-02 -7.428629e-15
    endloop
  endfacet
  facet normal 9.104684e-01 -4.134509e-01 -1.027960e-02
    outer loop
      vertex 9.667368e-03 1.645862e-02 3.516300e-03
      vertex 8.422610e-03 1.380493e-02 -7.428629e-15
      vertex 1.083936e-02 1.912690e-02 -6.676143e-15
    endloop
  endfacet
  facet normal 2.074886e-14 1.319703e-13 -1.000000e+00
    outer loop
      vertex -9.214531e-04 1.358023e-02 -7.652162e-15
      vertex 2.439700e-03 1.772319e-02 -7.035674e-15
      vertex 8.422610e-03 1.380493e-02 -7.428629e-15
    endloop
  endfacet
  facet normal 8.914064e-01 -4.531966e-01 2.740305e-03
    outer loop
      vertex 7.270701e-03 1.157851e-02 6.500000e-03
      vertex 8.422610e-03 1.380493e-02 -7.428629e-15
      vertex 8.693647e-03 1.437735e-02 6.500000e-03
    endloop
  endfacet
  facet normal 9.055517e-01 -4.242358e-01 -3.999195e-04
    outer loop
      vertex 9.667368e-03 1.645862e-02 3.516300e-03
      vertex 8.693647e-03 1.437735e-02 6.500000e-03
      vertex 8.422610e-03 1.380493e-02 -7.428629e-15
    endloop
  endfacet
  facet normal 8.466029e-01 -5.312657e-01 -3.194037e-02
    outer loop
      vertex 5.752585e-03 9.159305e-03 6.500000e-03
      vertex 8.422610e-03 1.380493e-02 -7.428629e-15
      vertex 7.270701e-03 1.157851e-02 6.500000e-03
    endloop
  endfacet
  facet normal 2.074886e-14 1.319703e-13 -1.000000e+00
    outer loop
      vertex 7.172573e-03 2.371105e-02 -6.147253e-15
      vertex 1.229051e-02 2.388491e-02 -6.018117e-15
      vertex 1.083936e-02 1.912690e-02 -6.676143e-15
    endloop
  endfacet
  facet normal 9.561085e-01 -2.916047e-01 -2.869307e-02
    outer loop
      vertex 1.211485e-02 2.302361e-02 2.900000e-03
      vertex 1.083936e-02 1.912690e-02 -6.676143e-15
      vertex 1.229051e-02 2.388491e-02 -6.018117e-15
    endloop
  endfacet
  facet normal 2.074886e-14 1.319703e-13 -1.000000e+00
    outer loop
      vertex 6.038791e-03 2.111152e-02 -6.513838e-15
      vertex 7.172573e-03 2.371105e-02 -6.147253e-15
      vertex 1.083936e-02 1.912690e-02 -6.676143e-15
    endloop
  endfacet
  facet normal 2.074886e-14 1.319703e-13 -1.000000e+00
    outer loop
      vertex 2.439700e-03 1.772319e-02 -7.035674e-15
      vertex 6.038791e-03 2.111152e-02 -6.513838e-15
      vertex 1.083936e-02 1.912690e-02 -6.676143e-15
    endloop
  endfacet
  facet normal 9.429823e-01 -3.314336e-01 3.059782e-02
    outer loop
      vertex 1.211485e-02 2.302361e-02 2.900000e-03
      vertex 1.029432e-02 1.784391e-02 2.900000e-03
      vertex 1.083936e-02 1.912690e-02 -6.676143e-15
    endloop
  endfacet
  facet normal 9.111292e-01 -4.119735e-01 -1.102033e-02
    outer loop
      vertex 1.024278e-02 1.772726e-02 3.000000e-03
      vertex 1.083936e-02 1.912690e-02 -6.676143e-15
      vertex 1.029432e-02 1.784391e-02 2.900000e-03
    endloop
  endfacet
  facet normal 9.075432e-01 -4.196552e-01 -1.596264e-02
    outer loop
      vertex 1.019090e-02 1.761045e-02 3.000000e-03
      vertex 9.667368e-03 1.645862e-02 3.516300e-03
      vertex 1.083936e-02 1.912690e-02 -6.676143e-15
    endloop
  endfacet
  facet normal 9.138861e-01 -4.058987e-01 -7.637928e-03
    outer loop
      vertex 1.024278e-02 1.772726e-02 3.000000e-03
      vertex 1.019090e-02 1.761045e-02 3.000000e-03
      vertex 1.083936e-02 1.912690e-02 -6.676143e-15
    endloop
  endfacet
  facet normal 2.074886e-14 1.319703e-13 -1.000000e+00
    outer loop
      vertex 7.901778e-03 2.727970e-02 -5.661167e-15
      vertex 1.280774e-02 2.866718e-02 -5.376267e-15
      vertex 1.229051e-02 2.388491e-02 -6.018117e-15
    endloop
  endfacet
  facet normal 9.941860e-01 -1.075282e-01 -5.638571e-03
    outer loop
      vertex 1.278677e-02 2.832115e-02 2.900000e-03
      vertex 1.229051e-02 2.388491e-02 -6.018117e-15
      vertex 1.280774e-02 2.866718e-02 -5.376267e-15
    endloop
  endfacet
  facet normal 2.074886e-14 1.319703e-13 -1.000000e+00
    outer loop
      vertex 7.172573e-03 2.371105e-02 -6.147253e-15
      vertex 7.901778e-03 2.727970e-02 -5.661167e-15
      vertex 1.229051e-02 2.388491e-02 -6.018117e-15
    endloop
  endfacet
  facet normal 9.917962e-01 -1.257953e-01 2.271420e-02
    outer loop
      vertex 1.278677e-02 2.832115e-02 2.900000e-03
      vertex 1.211485e-02 2.302361e-02 2.900000e-03
      vertex 1.229051e-02 2.388491e-02 -6.018117e-15
    endloop
  endfacet
  facet normal 2.074886e-14 1.319703e-13 -1.000000e+00
    outer loop
      vertex 8.366849e-03 3.188881e-02 -5.043252e-15
      vertex 1.315366e-02 3.286061e-02 -4.815682e-15
      vertex 1.280774e-02 2.866718e-02 -5.376267e-15
    endloop
  endfacet
  facet normal 9.966095e-01 -8.220923e-02 3.332771e-03
    outer loop
      vertex 1.312977e-02 3.268858e-02 2.900000e-03
      vertex 1.280774e-02 2.866718e-02 -5.376267e-15
      vertex 1.315366e-02 3.286061e-02 -4.815682e-15
    endloop
  endfacet
  facet normal 2.074886e-14 1.319703e-13 -1.000000e+00
    outer loop
      vertex 7.901778e-03 2.727970e-02 -5.661167e-15
      vertex 8.366849e-03 3.188881e-02 -5.043252e-15
      vertex 1.280774e-02 2.866718e-02 -5.376267e-15
    endloop
  endfacet
  facet normal 9.969280e-01 -7.829490e-02 -2.130535e-03
    outer loop
      vertex 1.312977e-02 3.268858e-02 2.900000e-03
      vertex 1.278677e-02 2.832115e-02 2.900000e-03
      vertex 1.280774e-02 2.866718e-02 -5.376267e-15
    endloop
  endfacet
  facet normal 2.074886e-14 1.319703e-13 -1.000000e+00
    outer loop
      vertex 9.072042e-03 3.682843e-02 -4.376737e-15
      vertex 1.390275e-02 3.624761e-02 -4.353156e-15
      vertex 1.315366e-02 3.286061e-02 -4.815682e-15
    endloop
  endfacet
  facet normal 9.763828e-01 -2.159448e-01 6.667938e-03
    outer loop
      vertex 1.384689e-02 3.608457e-02 2.900000e-03
      vertex 1.315366e-02 3.286061e-02 -4.815682e-15
      vertex 1.390275e-02 3.624761e-02 -4.353156e-15
    endloop
  endfacet
  facet normal 2.074886e-14 1.319703e-13 -1.000000e+00
    outer loop
      vertex 8.366849e-03 3.188881e-02 -5.043252e-15
      vertex 9.072042e-03 3.682843e-02 -4.376737e-15
      vertex 1.315366e-02 3.286061e-02 -4.815682e-15
    endloop
  endfacet
  facet normal 9.784146e-01 -2.066089e-01 -4.196598e-03
    outer loop
      vertex 1.384689e-02 3.608457e-02 2.900000e-03
      vertex 1.312977e-02 3.268858e-02 2.900000e-03
      vertex 1.315366e-02 3.286061e-02 -4.815682e-15
    endloop
  endfacet
  facet normal 2.074886e-14 1.319703e-13 -1.000000e+00
    outer loop
      vertex 9.072042e-03 3.682843e-02 -4.376737e-15
      vertex 1.705915e-02 4.070395e-02 -3.699559e-15
      vertex 1.390275e-02 3.624761e-02 -4.353156e-15
    endloop
  endfacet
  facet normal 8.159726e-01 -5.779475e-01 1.285829e-02
    outer loop
      vertex 1.395100e-02 3.638248e-02 3.000000e-03
      vertex 1.390275e-02 3.624761e-02 -4.353156e-15
      vertex 1.705915e-02 4.070395e-02 -3.699559e-15
    endloop
  endfacet
  facet normal 9.460091e-01 -3.241400e-01 2.065911e-14
    outer loop
      vertex 1.384689e-02 3.608457e-02 3.000000e-03
      vertex 1.384689e-02 3.608457e-02 2.900000e-03
      vertex 1.390275e-02 3.624761e-02 -4.353156e-15
    endloop
  endfacet
  facet normal 9.461955e-01 -3.235956e-01 3.305508e-05
    outer loop
      vertex 1.389826e-02 3.623478e-02 3.000000e-03
      vertex 1.384689e-02 3.608457e-02 3.000000e-03
      vertex 1.390275e-02 3.624761e-02 -4.353156e-15
    endloop
  endfacet
  facet normal 9.417523e-01 -3.363073e-01 -2.798135e-05
    outer loop
      vertex 1.395100e-02 3.638248e-02 3.000000e-03
      vertex 1.389826e-02 3.623478e-02 3.000000e-03
      vertex 1.390275e-02 3.624761e-02 -4.353156e-15
    endloop
  endfacet
  facet normal 2.074886e-14 1.319703e-13 -1.000000e+00
    outer loop
      vertex 1.272976e-02 4.426570e-02 -3.319344e-15
      vertex 2.375883e-02 4.507593e-02 -2.983577e-15
      vertex 1.705915e-02 4.070395e-02 -3.699559e-15
    endloop
  endfacet
  facet normal 5.464981e-01 -8.374604e-01 -9.977235e-14
    outer loop
      vertex 1.705915e-02 4.070395e-02 6.500000e-03
      vertex 1.705915e-02 4.070395e-02 -3.699559e-15
      vertex 2.375883e-02 4.507593e-02 -2.983577e-15
    endloop
  endfacet
  facet normal 2.074886e-14 1.319703e-13 -1.000000e+00
    outer loop
      vertex 1.042278e-02 4.075107e-02 -3.831037e-15
      vertex 1.272976e-02 4.426570e-02 -3.319344e-15
      vertex 1.705915e-02 4.070395e-02 -3.699559e-15
    endloop
  endfacet
  facet normal 2.074886e-14 1.319703e-13 -1.000000e+00
    outer loop
      vertex 9.072042e-03 3.682843e-02 -4.376737e-15
      vertex 1.042278e-02 4.075107e-02 -3.831037e-15
      vertex 1.705915e-02 4.070395e-02 -3.699559e-15
    endloop
  endfacet
  facet normal 6.426603e-01 -7.661512e-01 -8.837829e-14
    outer loop
      vertex 1.648767e-02 4.022459e-02 6.500000e-03
      vertex 1.705915e-02 4.070395e-02 -3.699559e-15
      vertex 1.705915e-02 4.070395e-02 6.500000e-03
    endloop
  endfacet
  facet normal 7.018681e-01 -7.122477e-01 9.180825e-03
    outer loop
      vertex 1.596146e-02 3.970605e-02 6.500000e-03
      vertex 1.705915e-02 4.070395e-02 -3.699559e-15
      vertex 1.648767e-02 4.022459e-02 6.500000e-03
    endloop
  endfacet
  facet normal 7.527009e-01 -6.578444e-01 2.611740e-02
    outer loop
      vertex 1.549852e-02 3.917089e-02 6.362417e-03
      vertex 1.705915e-02 4.070395e-02 -3.699559e-15
      vertex 1.596146e-02 3.970605e-02 6.500000e-03
    endloop
  endfacet
  facet normal 8.608672e-01 -4.094506e-01 3.020893e-01
    outer loop
      vertex 1.427528e-02 3.717327e-02 3.147734e-03
      vertex 1.395100e-02 3.638248e-02 3.000000e-03
      vertex 1.705915e-02 4.070395e-02 -3.699559e-15
    endloop
  endfacet
  facet normal 8.387228e-01 -5.214830e-01 1.568427e-01
    outer loop
      vertex 1.456195e-02 3.775080e-02 3.534953e-03
      vertex 1.427528e-02 3.717327e-02 3.147734e-03
      vertex 1.705915e-02 4.070395e-02 -3.699559e-15
    endloop
  endfacet
  facet normal 7.952163e-01 -6.035920e-01 5.751333e-02
    outer loop
      vertex 1.483631e-02 3.822803e-02 4.750000e-03
      vertex 1.456195e-02 3.775080e-02 3.534953e-03
      vertex 1.705915e-02 4.070395e-02 -3.699559e-15
    endloop
  endfacet
  facet normal 7.816102e-01 -6.223954e-01 4.134498e-02
    outer loop
      vertex 1.513478e-02 3.868415e-02 5.973948e-03
      vertex 1.483631e-02 3.822803e-02 4.750000e-03
      vertex 1.705915e-02 4.070395e-02 -3.699559e-15
    endloop
  endfacet
  facet normal 7.835936e-01 -6.197934e-01 4.286360e-02
    outer loop
      vertex 1.549852e-02 3.917089e-02 6.362417e-03
      vertex 1.513478e-02 3.868415e-02 5.973948e-03
      vertex 1.705915e-02 4.070395e-02 -3.699559e-15
    endloop
  endfacet
  facet normal 2.074886e-14 1.319703e-13 -1.000000e+00
    outer loop
      vertex 1.624888e-02 4.760015e-02 -2.806278e-15
      vertex 2.434162e-02 4.608426e-02 -2.838415e-15
      vertex 2.375883e-02 4.507593e-02 -2.983577e-15
    endloop
  endfacet
  facet normal 8.657889e-01 -5.004094e-01 -4.814564e-14
    outer loop
      vertex 2.375883e-02 4.507593e-02 6.500000e-03
      vertex 2.375883e-02 4.507593e-02 -2.983577e-15
      vertex 2.434162e-02 4.608426e-02 -2.838415e-15
    endloop
  endfacet
  facet normal 2.074886e-14 1.319703e-13 -1.000000e+00
    outer loop
      vertex 1.272976e-02 4.426570e-02 -3.319344e-15
      vertex 1.624888e-02 4.760015e-02 -2.806278e-15
      vertex 2.375883e-02 4.507593e-02 -2.983577e-15
    endloop
  endfacet
  facet normal 5.464981e-01 -8.374604e-01 -9.884223e-14
    outer loop
      vertex 1.705915e-02 4.070395e-02 6.500000e-03
      vertex 2.375883e-02 4.507593e-02 -2.983577e-15
      vertex 2.375883e-02 4.507593e-02 6.500000e-03
    endloop
  endfacet
  facet normal 2.074886e-14 1.319703e-13 -1.000000e+00
    outer loop
      vertex 1.624888e-02 4.760015e-02 -2.806278e-15
      vertex 2.506202e-02 4.699452e-02 -2.703340e-15
      vertex 2.434162e-02 4.608426e-02 -2.838415e-15
    endloop
  endfacet
  facet normal 7.841375e-01 -6.205854e-01 1.458396e-03
    outer loop
      vertex 2.495832e-02 4.687877e-02 6.500000e-03
      vertex 2.434162e-02 4.608426e-02 -2.838415e-15
      vertex 2.506202e-02 4.699452e-02 -2.703340e-15
    endloop
  endfacet
  facet normal 8.680577e-01 -4.964627e-01 8.156591e-04
    outer loop
      vertex 2.429995e-02 4.602207e-02 6.500000e-03
      vertex 2.375883e-02 4.507593e-02 6.500000e-03
      vertex 2.434162e-02 4.608426e-02 -2.838415e-15
    endloop
  endfacet
  facet normal 7.929012e-01 -6.093498e-01 -7.464095e-04
    outer loop
      vertex 2.429995e-02 4.602207e-02 6.500000e-03
      vertex 2.434162e-02 4.608426e-02 -2.838415e-15
      vertex 2.495832e-02 4.687877e-02 6.500000e-03
    endloop
  endfacet
  facet normal 2.074886e-14 1.319703e-13 -1.000000e+00
    outer loop
      vertex 1.624888e-02 4.760015e-02 -2.806278e-15
      vertex 2.594064e-02 4.782315e-02 -2.575756e-15
      vertex 2.506202e-02 4.699452e-02 -2.703340e-15
    endloop
  endfacet
  facet normal 6.861058e-01 -7.274990e-01 2.001051e-03
    outer loop
      vertex 2.575504e-02 4.766599e-02 6.500000e-03
      vertex 2.506202e-02 4.699452e-02 -2.703340e-15
      vertex 2.594064e-02 4.782315e-02 -2.575756e-15
    endloop
  endfacet
  facet normal 7.028530e-01 -7.113336e-01 -1.454438e-03
    outer loop
      vertex 2.495832e-02 4.687877e-02 6.500000e-03
      vertex 2.506202e-02 4.699452e-02 -2.703340e-15
      vertex 2.575504e-02 4.766599e-02 6.500000e-03
    endloop
  endfacet
  facet normal 2.074886e-14 1.319703e-13 -1.000000e+00
    outer loop
      vertex 2.108911e-02 5.049581e-02 -2.323707e-15
      vertex 2.701374e-02 4.859989e-02 -2.450984e-15
      vertex 2.594064e-02 4.782315e-02 -2.575756e-15
    endloop
  endfacet
  facet normal 5.863449e-01 -8.100576e-01 2.537645e-03
    outer loop
      vertex 2.671482e-02 4.840388e-02 6.500000e-03
      vertex 2.594064e-02 4.782315e-02 -2.575756e-15
      vertex 2.701374e-02 4.859989e-02 -2.450984e-15
    endloop
  endfacet
  facet normal 2.074886e-14 1.319703e-13 -1.000000e+00
    outer loop
      vertex 1.624888e-02 4.760015e-02 -2.806278e-15
      vertex 2.108911e-02 5.049581e-02 -2.323707e-15
      vertex 2.594064e-02 4.782315e-02 -2.575756e-15
    endloop
  endfacet
  facet normal 6.095052e-01 -7.927801e-01 -1.764500e-03
    outer loop
      vertex 2.575504e-02 4.766599e-02 6.500000e-03
      vertex 2.594064e-02 4.782315e-02 -2.575756e-15
      vertex 2.671482e-02 4.840388e-02 6.500000e-03
    endloop
  endfacet
  facet normal 2.074886e-14 1.319703e-13 -1.000000e+00
    outer loop
      vertex 2.108911e-02 5.049581e-02 -2.323707e-15
      vertex 2.802323e-02 4.917654e-02 -2.353937e-15
      vertex 2.701374e-02 4.859989e-02 -2.450984e-15
    endloop
  endfacet
  facet normal 4.960087e-01 -8.683156e-01 1.839190e-03
    outer loop
      vertex 2.761298e-02 4.895596e-02 6.500000e-03
      vertex 2.701374e-02 4.859989e-02 -2.450984e-15
      vertex 2.802323e-02 4.917654e-02 -2.353937e-15
    endloop
  endfacet
  facet normal 5.236587e-01 -8.519266e-01 -1.607700e-03
    outer loop
      vertex 2.671482e-02 4.840388e-02 6.500000e-03
      vertex 2.701374e-02 4.859989e-02 -2.450984e-15
      vertex 2.761298e-02 4.895596e-02 6.500000e-03
    endloop
  endfacet
  facet normal 2.074886e-14 1.319703e-13 -1.000000e+00
    outer loop
      vertex 2.108911e-02 5.049581e-02 -2.323707e-15
      vertex 2.916570e-02 4.971948e-02 -2.258580e-15
      vertex 2.802323e-02 4.917654e-02 -2.353937e-15
    endloop
  endfacet
  facet normal 4.292288e-01 -9.031940e-01 1.815636e-03
    outer loop
      vertex 2.862907e-02 4.947753e-02 6.500000e-03
      vertex 2.802323e-02 4.917654e-02 -2.353937e-15
      vertex 2.916570e-02 4.971948e-02 -2.258580e-15
    endloop
  endfacet
  facet normal 4.566562e-01 -8.896422e-01 -1.368285e-03
    outer loop
      vertex 2.761298e-02 4.895596e-02 6.500000e-03
      vertex 2.802323e-02 4.917654e-02 -2.353937e-15
      vertex 2.862907e-02 4.947753e-02 6.500000e-03
    endloop
  endfacet
  facet normal 2.074886e-14 1.319703e-13 -1.000000e+00
    outer loop
      vertex 2.108911e-02 5.049581e-02 -2.323707e-15
      vertex 3.044653e-02 5.023618e-02 -2.163815e-15
      vertex 2.916570e-02 4.971948e-02 -2.258580e-15
    endloop
  endfacet
  facet normal 3.741120e-01 -9.273828e-01 1.186825e-03
    outer loop
      vertex 2.976515e-02 4.996962e-02 6.500000e-03
      vertex 2.916570e-02 4.971948e-02 -2.258580e-15
      vertex 3.044653e-02 5.023618e-02 -2.163815e-15
    endloop
  endfacet
  facet normal 3.974692e-01 -9.176146e-01 -1.343147e-03
    outer loop
      vertex 2.862907e-02 4.947753e-02 6.500000e-03
      vertex 2.916570e-02 4.971948e-02 -2.258580e-15
      vertex 2.976515e-02 4.996962e-02 6.500000e-03
    endloop
  endfacet
  facet normal 2.074886e-14 1.319703e-13 -1.000000e+00
    outer loop
      vertex 2.108911e-02 5.049581e-02 -2.323707e-15
      vertex 3.183551e-02 5.075307e-02 -2.066781e-15
      vertex 3.044653e-02 5.023618e-02 -2.163815e-15
    endloop
  endfacet
  facet normal 3.487712e-01 -9.372065e-01 1.649363e-03
    outer loop
      vertex 3.100638e-02 5.045596e-02 6.500000e-03
      vertex 3.044653e-02 5.023618e-02 -2.163815e-15
      vertex 3.183551e-02 5.075307e-02 -2.066781e-15
    endloop
  endfacet
  facet normal 3.648139e-01 -9.310805e-01 6.047225e-05
    outer loop
      vertex 2.976515e-02 4.996962e-02 6.500000e-03
      vertex 3.044653e-02 5.023618e-02 -2.163815e-15
      vertex 3.100638e-02 5.045596e-02 6.500000e-03
    endloop
  endfacet
  facet normal 2.074886e-14 1.319703e-13 -1.000000e+00
    outer loop
      vertex 2.248176e-02 5.111668e-02 -2.212875e-15
      vertex 3.333901e-02 5.129065e-02 -1.964641e-15
      vertex 3.183551e-02 5.075307e-02 -2.066781e-15
    endloop
  endfacet
  facet normal 3.366763e-01 -9.416197e-01 -1.221173e-03
    outer loop
      vertex 3.235331e-02 5.093562e-02 1.999942e-03
      vertex 3.183551e-02 5.075307e-02 -2.066781e-15
      vertex 3.333901e-02 5.129065e-02 -1.964641e-15
    endloop
  endfacet
  facet normal 2.074886e-14 1.319703e-13 -1.000000e+00
    outer loop
      vertex 2.179781e-02 5.081516e-02 -2.266859e-15
      vertex 2.248176e-02 5.111668e-02 -2.212875e-15
      vertex 3.183551e-02 5.075307e-02 -2.066781e-15
    endloop
  endfacet
  facet normal 2.074886e-14 1.319703e-13 -1.000000e+00
    outer loop
      vertex 2.108911e-02 5.049581e-02 -2.323707e-15
      vertex 2.179781e-02 5.081516e-02 -2.266859e-15
      vertex 3.183551e-02 5.075307e-02 -2.066781e-15
    endloop
  endfacet
  facet normal 3.340894e-01 -9.425413e-01 -4.672824e-04
    outer loop
      vertex 3.235331e-02 5.093562e-02 1.999942e-03
      vertex 3.100638e-02 5.045596e-02 6.500000e-03
      vertex 3.183551e-02 5.075307e-02 -2.066781e-15
    endloop
  endfacet
  facet normal 2.074886e-14 1.319703e-13 -1.000000e+00
    outer loop
      vertex 2.377117e-02 5.166177e-02 -2.114186e-15
      vertex 3.478475e-02 5.185314e-02 -1.860412e-15
      vertex 3.333901e-02 5.129065e-02 -1.964641e-15
    endloop
  endfacet
  facet normal 3.625898e-01 -9.319432e-01 -3.253322e-03
    outer loop
      vertex 3.384717e-02 5.148137e-02 2.000003e-03
      vertex 3.333901e-02 5.129065e-02 -1.964641e-15
      vertex 3.478475e-02 5.185314e-02 -1.860412e-15
    endloop
  endfacet
  facet normal 2.074886e-14 1.319703e-13 -1.000000e+00
    outer loop
      vertex 2.314028e-02 5.139965e-02 -2.161869e-15
      vertex 2.377117e-02 5.166177e-02 -2.114186e-15
      vertex 3.333901e-02 5.129065e-02 -1.964641e-15
    endloop
  endfacet
  facet normal 2.074886e-14 1.319703e-13 -1.000000e+00
    outer loop
      vertex 2.248176e-02 5.111668e-02 -2.212875e-15
      vertex 2.314028e-02 5.139965e-02 -2.161869e-15
      vertex 3.333901e-02 5.129065e-02 -1.964641e-15
    endloop
  endfacet
  facet normal 3.431500e-01 -9.392776e-01 2.385275e-03
    outer loop
      vertex 3.384717e-02 5.148137e-02 2.000003e-03
      vertex 3.235331e-02 5.093562e-02 1.999942e-03
      vertex 3.333901e-02 5.129065e-02 -1.964641e-15
    endloop
  endfacet
  facet normal 2.074886e-14 1.319703e-13 -1.000000e+00
    outer loop
      vertex 2.556725e-02 5.239499e-02 -1.980156e-15
      vertex 3.613631e-02 5.244293e-02 -1.754533e-15
      vertex 3.478475e-02 5.185314e-02 -1.860412e-15
    endloop
  endfacet
  facet normal 3.999484e-01 -9.165179e-01 -6.013585e-03
    outer loop
      vertex 3.524995e-02 5.204302e-02 2.000008e-03
      vertex 3.478475e-02 5.185314e-02 -1.860412e-15
      vertex 3.613631e-02 5.244293e-02 -1.754533e-15
    endloop
  endfacet
  facet normal 2.074886e-14 1.319703e-13 -1.000000e+00
    outer loop
      vertex 2.498298e-02 5.215768e-02 -2.023597e-15
      vertex 2.556725e-02 5.239499e-02 -1.980156e-15
      vertex 3.478475e-02 5.185314e-02 -1.860412e-15
    endloop
  endfacet
  facet normal 2.074886e-14 1.319703e-13 -1.000000e+00
    outer loop
      vertex 2.438349e-02 5.191255e-02 -2.068385e-15
      vertex 2.498298e-02 5.215768e-02 -2.023597e-15
      vertex 3.478475e-02 5.185314e-02 -1.860412e-15
    endloop
  endfacet
  facet normal 2.074886e-14 1.319703e-13 -1.000000e+00
    outer loop
      vertex 2.377117e-02 5.166177e-02 -2.114186e-15
      vertex 2.438349e-02 5.191255e-02 -2.068385e-15
      vertex 3.478475e-02 5.185314e-02 -1.860412e-15
    endloop
  endfacet
  facet normal 3.716943e-01 -9.283537e-01 1.682029e-03
    outer loop
      vertex 3.524995e-02 5.204302e-02 2.000008e-03
      vertex 3.384717e-02 5.148137e-02 2.000003e-03
      vertex 3.478475e-02 5.185314e-02 -1.860412e-15
    endloop
  endfacet
  facet normal 2.074886e-14 1.319703e-13 -1.000000e+00
    outer loop
      vertex 2.714050e-02 5.304563e-02 -1.861648e-15
      vertex 3.736107e-02 5.308250e-02 -1.644716e-15
      vertex 3.613631e-02 5.244293e-02 -1.754533e-15
    endloop
  endfacet
  facet normal 4.628811e-01 -8.864000e-01 -6.015097e-03
    outer loop
      vertex 3.654674e-02 5.264369e-02 1.999990e-03
      vertex 3.613631e-02 5.244293e-02 -1.754533e-15
      vertex 3.736107e-02 5.308250e-02 -1.644716e-15
    endloop
  endfacet
  facet normal 2.074886e-14 1.319703e-13 -1.000000e+00
    outer loop
      vertex 2.636545e-02 5.272289e-02 -1.920322e-15
      vertex 2.714050e-02 5.304563e-02 -1.861648e-15
      vertex 3.613631e-02 5.244293e-02 -1.754533e-15
    endloop
  endfacet
  facet normal 2.074886e-14 1.319703e-13 -1.000000e+00
    outer loop
      vertex 2.556725e-02 5.239499e-02 -1.980156e-15
      vertex 2.636545e-02 5.272289e-02 -1.920322e-15
      vertex 3.613631e-02 5.244293e-02 -1.754533e-15
    endloop
  endfacet
  facet normal 4.202921e-01 -9.073760e-01 4.830256e-03
    outer loop
      vertex 3.654674e-02 5.264369e-02 1.999990e-03
      vertex 3.524995e-02 5.204302e-02 2.000008e-03
      vertex 3.613631e-02 5.244293e-02 -1.754533e-15
    endloop
  endfacet
  facet normal 2.074886e-14 1.319703e-13 -1.000000e+00
    outer loop
      vertex 2.863213e-02 5.369024e-02 -1.745629e-15
      vertex 3.845883e-02 5.376775e-02 -1.531507e-15
      vertex 3.736107e-02 5.308250e-02 -1.644716e-15
    endloop
  endfacet
  facet normal 5.295124e-01 -8.482748e-01 -6.813430e-03
    outer loop
      vertex 3.772892e-02 5.329606e-02 1.999988e-03
      vertex 3.736107e-02 5.308250e-02 -1.644716e-15
      vertex 3.845883e-02 5.376775e-02 -1.531507e-15
    endloop
  endfacet
  facet normal 2.074886e-14 1.319703e-13 -1.000000e+00
    outer loop
      vertex 2.789666e-02 5.336825e-02 -1.803381e-15
      vertex 2.863213e-02 5.369024e-02 -1.745629e-15
      vertex 3.736107e-02 5.308250e-02 -1.644716e-15
    endloop
  endfacet
  facet normal 2.074886e-14 1.319703e-13 -1.000000e+00
    outer loop
      vertex 2.714050e-02 5.304563e-02 -1.861648e-15
      vertex 2.789666e-02 5.336825e-02 -1.803381e-15
      vertex 3.736107e-02 5.308250e-02 -1.644716e-15
    endloop
  endfacet
  facet normal 4.831497e-01 -8.755255e-01 4.623601e-03
    outer loop
      vertex 3.772892e-02 5.329606e-02 1.999988e-03
      vertex 3.654674e-02 5.264369e-02 1.999990e-03
      vertex 3.736107e-02 5.308250e-02 -1.644716e-15
    endloop
  endfacet
  facet normal 2.074886e-14 1.319703e-13 -1.000000e+00
    outer loop
      vertex 3.018461e-02 5.440877e-02 -1.618592e-15
      vertex 3.942324e-02 5.449400e-02 -1.415653e-15
      vertex 3.845883e-02 5.376775e-02 -1.531507e-15
    endloop
  endfacet
  facet normal 6.015465e-01 -7.988150e-01 -6.038057e-03
    outer loop
      vertex 3.877674e-02 5.399203e-02 2.000007e-03
      vertex 3.845883e-02 5.376775e-02 -1.531507e-15
      vertex 3.942324e-02 5.449400e-02 -1.415653e-15
    endloop
  endfacet
  facet normal 2.074886e-14 1.319703e-13 -1.000000e+00
    outer loop
      vertex 2.934157e-02 5.401125e-02 -1.688545e-15
      vertex 3.018461e-02 5.440877e-02 -1.618592e-15
      vertex 3.845883e-02 5.376775e-02 -1.531507e-15
    endloop
  endfacet
  facet normal 2.074886e-14 1.319703e-13 -1.000000e+00
    outer loop
      vertex 2.863213e-02 5.369024e-02 -1.745629e-15
      vertex 2.934157e-02 5.401125e-02 -1.688545e-15
      vertex 3.845883e-02 5.376775e-02 -1.531507e-15
    endloop
  endfacet
  facet normal 5.532751e-01 -8.329807e-01 5.466076e-03
    outer loop
      vertex 3.877674e-02 5.399203e-02 2.000007e-03
      vertex 3.772892e-02 5.329606e-02 1.999988e-03
      vertex 3.845883e-02 5.376775e-02 -1.531507e-15
    endloop
  endfacet
  facet normal 2.074886e-14 1.319703e-13 -1.000000e+00
    outer loop
      vertex 3.168463e-02 5.517902e-02 -1.485818e-15
      vertex 4.043350e-02 5.542909e-02 -1.271288e-15
      vertex 3.942324e-02 5.449400e-02 -1.415653e-15
    endloop
  endfacet
  facet normal 6.792420e-01 -7.338457e-01 -1.004412e-02
    outer loop
      vertex 3.990249e-02 5.491021e-02 2.000009e-03
      vertex 3.942324e-02 5.449400e-02 -1.415653e-15
      vertex 4.043350e-02 5.542909e-02 -1.271288e-15
    endloop
  endfacet
  facet normal 2.074886e-14 1.319703e-13 -1.000000e+00
    outer loop
      vertex 3.096833e-02 5.479914e-02 -1.550813e-15
      vertex 3.168463e-02 5.517902e-02 -1.485818e-15
      vertex 3.942324e-02 5.449400e-02 -1.415653e-15
    endloop
  endfacet
  facet normal 2.074886e-14 1.319703e-13 -1.000000e+00
    outer loop
      vertex 3.018461e-02 5.440877e-02 -1.618592e-15
      vertex 3.096833e-02 5.479914e-02 -1.550813e-15
      vertex 3.942324e-02 5.449400e-02 -1.415653e-15
    endloop
  endfacet
  facet normal 6.320153e-01 -7.748938e-01 9.814771e-03
    outer loop
      vertex 3.990249e-02 5.491021e-02 2.000009e-03
      vertex 3.877674e-02 5.399203e-02 2.000007e-03
      vertex 3.942324e-02 5.449400e-02 -1.415653e-15
    endloop
  endfacet
  facet normal 2.074886e-14 1.319703e-13 -1.000000e+00
    outer loop
      vertex 3.307708e-02 5.601225e-02 -1.346965e-15
      vertex 4.121979e-02 5.636750e-02 -1.131131e-15
      vertex 4.043350e-02 5.542909e-02 -1.271288e-15
    endloop
  endfacet
  facet normal 7.664598e-01 -6.422161e-01 -9.889557e-03
    outer loop
      vertex 4.082824e-02 5.586939e-02 2.000008e-03
      vertex 4.043350e-02 5.542909e-02 -1.271288e-15
      vertex 4.121979e-02 5.636750e-02 -1.131131e-15
    endloop
  endfacet
  facet normal 2.074886e-14 1.319703e-13 -1.000000e+00
    outer loop
      vertex 3.233045e-02 5.554628e-02 -1.423951e-15
      vertex 3.307708e-02 5.601225e-02 -1.346965e-15
      vertex 4.043350e-02 5.542909e-02 -1.271288e-15
    endloop
  endfacet
  facet normal 2.074886e-14 1.319703e-13 -1.000000e+00
    outer loop
      vertex 3.168463e-02 5.517902e-02 -1.485818e-15
      vertex 3.233045e-02 5.554628e-02 -1.423951e-15
      vertex 4.043350e-02 5.542909e-02 -1.271288e-15
    endloop
  endfacet
  facet normal 7.194922e-01 -6.944154e-01 1.087218e-02
    outer loop
      vertex 4.082824e-02 5.586939e-02 2.000008e-03
      vertex 3.990249e-02 5.491021e-02 2.000009e-03
      vertex 4.043350e-02 5.542909e-02 -1.271288e-15
    endloop
  endfacet
  facet normal 2.074886e-14 1.319703e-13 -1.000000e+00
    outer loop
      vertex 3.458753e-02 5.722861e-02 -1.155101e-15
      vertex 4.179649e-02 5.728157e-02 -9.985342e-16
      vertex 4.121979e-02 5.636750e-02 -1.131131e-15
    endloop
  endfacet
  facet normal 8.457035e-01 -5.335624e-01 -9.836410e-03
    outer loop
      vertex 4.155501e-02 5.686195e-02 1.999989e-03
      vertex 4.121979e-02 5.636750e-02 -1.131131e-15
      vertex 4.179649e-02 5.728157e-02 -9.985342e-16
    endloop
  endfacet
  facet normal 2.074886e-14 1.319703e-13 -1.000000e+00
    outer loop
      vertex 3.419508e-02 5.685326e-02 -1.212780e-15
      vertex 3.458753e-02 5.722861e-02 -1.155101e-15
      vertex 4.121979e-02 5.636750e-02 -1.131131e-15
    endloop
  endfacet
  facet normal 2.074886e-14 1.319703e-13 -1.000000e+00
    outer loop
      vertex 3.369540e-02 5.644800e-02 -1.276630e-15
      vertex 3.419508e-02 5.685326e-02 -1.212780e-15
      vertex 4.121979e-02 5.636750e-02 -1.131131e-15
    endloop
  endfacet
  facet normal 2.074886e-14 1.319703e-13 -1.000000e+00
    outer loop
      vertex 3.307708e-02 5.601225e-02 -1.346965e-15
      vertex 3.369540e-02 5.644800e-02 -1.276630e-15
      vertex 4.121979e-02 5.636750e-02 -1.131131e-15
    endloop
  endfacet
  facet normal 8.067850e-01 -5.907459e-01 1.082395e-02
    outer loop
      vertex 4.155501e-02 5.686195e-02 1.999989e-03
      vertex 4.082824e-02 5.586939e-02 2.000008e-03
      vertex 4.121979e-02 5.636750e-02 -1.131131e-15
    endloop
  endfacet
  facet normal 2.074886e-14 1.319703e-13 -1.000000e+00
    outer loop
      vertex 3.509252e-02 5.787872e-02 -1.058828e-15
      vertex 4.218740e-02 5.815942e-02 -8.745729e-16
      vertex 4.179649e-02 5.728157e-02 -9.985342e-16
    endloop
  endfacet
  facet normal 9.134950e-01 -4.067852e-01 -7.260925e-03
    outer loop
      vertex 4.207565e-02 5.787276e-02 1.999970e-03
      vertex 4.179649e-02 5.728157e-02 -9.985342e-16
      vertex 4.218740e-02 5.815942e-02 -8.745729e-16
    endloop
  endfacet
  facet normal 2.074886e-14 1.319703e-13 -1.000000e+00
    outer loop
      vertex 3.488141e-02 5.757019e-02 -1.103925e-15
      vertex 3.509252e-02 5.787872e-02 -1.058828e-15
      vertex 4.179649e-02 5.728157e-02 -9.985342e-16
    endloop
  endfacet
  facet normal 2.074886e-14 1.319703e-13 -1.000000e+00
    outer loop
      vertex 3.458753e-02 5.722861e-02 -1.155101e-15
      vertex 3.488141e-02 5.757019e-02 -1.103925e-15
      vertex 4.179649e-02 5.728157e-02 -9.985342e-16
    endloop
  endfacet
  facet normal 8.889476e-01 -4.578703e-01 1.126614e-02
    outer loop
      vertex 4.207565e-02 5.787276e-02 1.999970e-03
      vertex 4.155501e-02 5.686195e-02 1.999989e-03
      vertex 4.179649e-02 5.728157e-02 -9.985342e-16
    endloop
  endfacet
  facet normal 2.074886e-14 1.319703e-13 -1.000000e+00
    outer loop
      vertex 3.520963e-02 5.882802e-02 -9.311189e-16
      vertex 4.245736e-02 5.929838e-02 -7.186630e-16
      vertex 4.218740e-02 5.815942e-02 -8.745729e-16
    endloop
  endfacet
  facet normal 9.730364e-01 -2.306267e-01 -3.392961e-03
    outer loop
      vertex 4.244655e-02 5.922336e-02 2.000099e-03
      vertex 4.218740e-02 5.815942e-02 -8.745729e-16
      vertex 4.245736e-02 5.929838e-02 -7.186630e-16
    endloop
  endfacet
  facet normal 2.074886e-14 1.319703e-13 -1.000000e+00
    outer loop
      vertex 3.527014e-02 5.831882e-02 -9.970627e-16
      vertex 3.520963e-02 5.882802e-02 -9.311189e-16
      vertex 4.218740e-02 5.815942e-02 -8.745729e-16
    endloop
  endfacet
  facet normal 2.074886e-14 1.319703e-13 -1.000000e+00
    outer loop
      vertex 3.509252e-02 5.787872e-02 -1.058828e-15
      vertex 3.527014e-02 5.831882e-02 -9.970627e-16
      vertex 4.218740e-02 5.815942e-02 -8.745729e-16
    endloop
  endfacet
  facet normal 9.641763e-01 -2.647837e-01 1.592456e-02
    outer loop
      vertex 4.244655e-02 5.922336e-02 2.000099e-03
      vertex 4.207565e-02 5.787276e-02 1.999970e-03
      vertex 4.218740e-02 5.815942e-02 -8.745729e-16
    endloop
  endfacet
  facet normal 2.074886e-14 1.319703e-13 -1.000000e+00
    outer loop
      vertex 3.371900e-02 6.047730e-02 -7.443921e-16
      vertex 4.247753e-02 6.050158e-02 -5.594584e-16
      vertex 4.245736e-02 5.929838e-02 -7.186630e-16
    endloop
  endfacet
  facet normal 9.998481e-01 -1.676117e-02 4.773924e-03
    outer loop
      vertex 4.244655e-02 5.922336e-02 2.000099e-03
      vertex 4.245736e-02 5.929838e-02 -7.186630e-16
      vertex 4.247753e-02 6.050158e-02 -5.594584e-16
    endloop
  endfacet
  facet normal 2.074886e-14 1.319703e-13 -1.000000e+00
    outer loop
      vertex 3.476438e-02 5.950519e-02 -8.509904e-16
      vertex 3.371900e-02 6.047730e-02 -7.443921e-16
      vertex 4.245736e-02 5.929838e-02 -7.186630e-16
    endloop
  endfacet
  facet normal 2.074886e-14 1.319703e-13 -1.000000e+00
    outer loop
      vertex 3.520963e-02 5.882802e-02 -9.311189e-16
      vertex 3.476438e-02 5.950519e-02 -8.509904e-16
      vertex 4.245736e-02 5.929838e-02 -7.186630e-16
    endloop
  endfacet
  facet normal 2.074886e-14 1.319703e-13 -1.000000e+00
    outer loop
      vertex 3.992989e-02 6.551961e-02 4.991179e-17
      vertex 4.222820e-02 6.184251e-02 -3.876686e-16
      vertex 4.247753e-02 6.050158e-02 -5.594584e-16
    endloop
  endfacet
  facet normal 9.831299e-01 1.827964e-01 -6.408793e-03
    outer loop
      vertex 4.246623e-02 6.063248e-02 2.000012e-03
      vertex 4.247753e-02 6.050158e-02 -5.594584e-16
      vertex 4.222820e-02 6.184251e-02 -3.876686e-16
    endloop
  endfacet
  facet normal 2.074886e-14 1.319703e-13 -1.000000e+00
    outer loop
      vertex 3.371900e-02 6.047730e-02 -7.443921e-16
      vertex 3.992989e-02 6.551961e-02 4.991179e-17
      vertex 4.247753e-02 6.050158e-02 -5.594584e-16
    endloop
  endfacet
  facet normal 9.998810e-01 -1.396146e-02 6.563661e-03
    outer loop
      vertex 4.246623e-02 6.063248e-02 2.000012e-03
      vertex 4.244655e-02 5.922336e-02 2.000099e-03
      vertex 4.247753e-02 6.050158e-02 -5.594584e-16
    endloop
  endfacet
  facet normal 2.074886e-14 1.319703e-13 -1.000000e+00
    outer loop
      vertex 3.992989e-02 6.551961e-02 4.991179e-17
      vertex 4.167803e-02 6.324149e-02 -2.144598e-16
      vertex 4.222820e-02 6.184251e-02 -3.876686e-16
    endloop
  endfacet
  facet normal 9.305447e-01 3.659529e-01 -1.284842e-02
    outer loop
      vertex 4.213266e-02 6.215568e-02 1.999825e-03
      vertex 4.222820e-02 6.184251e-02 -3.876686e-16
      vertex 4.167803e-02 6.324149e-02 -2.144598e-16
    endloop
  endfacet
  facet normal 9.767654e-01 2.139061e-01 1.317034e-02
    outer loop
      vertex 4.246623e-02 6.063248e-02 2.000012e-03
      vertex 4.222820e-02 6.184251e-02 -3.876686e-16
      vertex 4.213266e-02 6.215568e-02 1.999825e-03
    endloop
  endfacet
  facet normal 2.074886e-14 1.319703e-13 -1.000000e+00
    outer loop
      vertex 3.992989e-02 6.551961e-02 4.991179e-17
      vertex 4.087079e-02 6.452055e-02 -6.241132e-17
      vertex 4.167803e-02 6.324149e-02 -2.144598e-16
    endloop
  endfacet
  facet normal 8.456542e-01 5.337077e-01 -5.008588e-03
    outer loop
      vertex 4.120919e-02 6.404537e-02 6.500000e-03
      vertex 4.167803e-02 6.324149e-02 -2.144598e-16
      vertex 4.087079e-02 6.452055e-02 -6.241132e-17
    endloop
  endfacet
  facet normal 8.675784e-01 4.972993e-01 1.075524e-03
    outer loop
      vertex 4.173283e-02 6.313183e-02 6.500000e-03
      vertex 4.167803e-02 6.324149e-02 -2.144598e-16
      vertex 4.120919e-02 6.404537e-02 6.500000e-03
    endloop
  endfacet
  facet normal 9.253827e-01 3.790314e-01 -1.407228e-03
    outer loop
      vertex 4.213266e-02 6.215568e-02 6.500000e-03
      vertex 4.167803e-02 6.324149e-02 -2.144598e-16
      vertex 4.173283e-02 6.313183e-02 6.500000e-03
    endloop
  endfacet
  facet normal 9.224105e-01 3.862110e-01 7.112536e-14
    outer loop
      vertex 4.213266e-02 6.215568e-02 1.999825e-03
      vertex 4.167803e-02 6.324149e-02 -2.144598e-16
      vertex 4.213266e-02 6.215568e-02 6.500000e-03
    endloop
  endfacet
  facet normal 7.279691e-01 6.855948e-01 -4.571361e-03
    outer loop
      vertex 4.059658e-02 6.485505e-02 6.500000e-03
      vertex 4.087079e-02 6.452055e-02 -6.241132e-17
      vertex 3.992989e-02 6.551961e-02 4.991179e-17
    endloop
  endfacet
  facet normal 7.974643e-01 6.033605e-01 2.592196e-03
    outer loop
      vertex 4.120919e-02 6.404537e-02 6.500000e-03
      vertex 4.087079e-02 6.452055e-02 -6.241132e-17
      vertex 4.059658e-02 6.485505e-02 6.500000e-03
    endloop
  endfacet
  facet normal -6.302887e-01 7.763609e-01 8.931207e-14
    outer loop
      vertex 3.992989e-02 6.551961e-02 6.500000e-03
      vertex 3.992989e-02 6.551961e-02 4.991179e-17
      vertex 3.371900e-02 6.047730e-02 -7.443921e-16
    endloop
  endfacet
  facet normal 7.059723e-01 7.082394e-01 1.088257e-13
    outer loop
      vertex 4.059658e-02 6.485505e-02 6.500000e-03
      vertex 3.992989e-02 6.551961e-02 4.991179e-17
      vertex 3.992989e-02 6.551961e-02 6.500000e-03
    endloop
  endfacet
  facet normal -6.809752e-01 -7.323064e-01 -1.114765e-13
    outer loop
      vertex 3.371900e-02 6.047730e-02 6.500000e-03
      vertex 3.371900e-02 6.047730e-02 -7.443921e-16
      vertex 3.476438e-02 5.950519e-02 -8.509904e-16
    endloop
  endfacet
  facet normal -6.302887e-01 7.763609e-01 8.939455e-14
    outer loop
      vertex 3.992989e-02 6.551961e-02 6.500000e-03
      vertex 3.371900e-02 6.047730e-02 -7.443921e-16
      vertex 3.371900e-02 6.047730e-02 6.500000e-03
    endloop
  endfacet
  facet normal -8.355660e-01 -5.493900e-01 -9.056397e-14
    outer loop
      vertex 3.476438e-02 5.950519e-02 6.500000e-03
      vertex 3.476438e-02 5.950519e-02 -8.509904e-16
      vertex 3.520963e-02 5.882802e-02 -9.311189e-16
    endloop
  endfacet
  facet normal -6.809752e-01 -7.323064e-01 -1.114607e-13
    outer loop
      vertex 3.371900e-02 6.047730e-02 6.500000e-03
      vertex 3.476438e-02 5.950519e-02 -8.509904e-16
      vertex 3.476438e-02 5.950519e-02 6.500000e-03
    endloop
  endfacet
  facet normal -9.930133e-01 -1.180027e-01 -3.682162e-14
    outer loop
      vertex 3.520963e-02 5.882802e-02 6.500000e-03
      vertex 3.520963e-02 5.882802e-02 -9.311189e-16
      vertex 3.527014e-02 5.831882e-02 -9.970627e-16
    endloop
  endfacet
  facet normal -8.355660e-01 -5.493900e-01 -9.055658e-14
    outer loop
      vertex 3.476438e-02 5.950519e-02 6.500000e-03
      vertex 3.520963e-02 5.882802e-02 -9.311189e-16
      vertex 3.520963e-02 5.882802e-02 6.500000e-03
    endloop
  endfacet
  facet normal -9.273282e-01 3.742490e-01 2.934199e-14
    outer loop
      vertex 3.527014e-02 5.831882e-02 6.500000e-03
      vertex 3.527014e-02 5.831882e-02 -9.970627e-16
      vertex 3.509252e-02 5.787872e-02 -1.058828e-15
    endloop
  endfacet
  facet normal -9.930133e-01 -1.180027e-01 -3.669578e-14
    outer loop
      vertex 3.520963e-02 5.882802e-02 6.500000e-03
      vertex 3.527014e-02 5.831882e-02 -9.970627e-16
      vertex 3.527014e-02 5.831882e-02 6.500000e-03
    endloop
  endfacet
  facet normal -8.252845e-01 5.647172e-01 5.713297e-14
    outer loop
      vertex 3.509252e-02 5.787872e-02 6.500000e-03
      vertex 3.509252e-02 5.787872e-02 -1.058828e-15
      vertex 3.488141e-02 5.757019e-02 -1.103925e-15
    endloop
  endfacet
  facet normal -9.273282e-01 3.742490e-01 2.974056e-14
    outer loop
      vertex 3.527014e-02 5.831882e-02 6.500000e-03
      vertex 3.509252e-02 5.787872e-02 -1.058828e-15
      vertex 3.509252e-02 5.787872e-02 6.500000e-03
    endloop
  endfacet
  facet normal -7.580611e-01 6.521835e-01 6.945016e-14
    outer loop
      vertex 3.488141e-02 5.757019e-02 6.500000e-03
      vertex 3.488141e-02 5.757019e-02 -1.103925e-15
      vertex 3.458753e-02 5.722861e-02 -1.155101e-15
    endloop
  endfacet
  facet normal -8.252845e-01 5.647172e-01 5.653437e-14
    outer loop
      vertex 3.509252e-02 5.787872e-02 6.500000e-03
      vertex 3.488141e-02 5.757019e-02 -1.103925e-15
      vertex 3.488141e-02 5.757019e-02 6.500000e-03
    endloop
  endfacet
  facet normal -6.911929e-01 7.226703e-01 8.090457e-14
    outer loop
      vertex 3.458753e-02 5.722861e-02 6.500000e-03
      vertex 3.458753e-02 5.722861e-02 -1.155101e-15
      vertex 3.419508e-02 5.685326e-02 -1.212780e-15
    endloop
  endfacet
  facet normal -7.580611e-01 6.521835e-01 7.014430e-14
    outer loop
      vertex 3.488141e-02 5.757019e-02 6.500000e-03
      vertex 3.458753e-02 5.722861e-02 -1.155101e-15
      vertex 3.458753e-02 5.722861e-02 6.500000e-03
    endloop
  endfacet
  facet normal -6.299002e-01 7.766761e-01 8.936210e-14
    outer loop
      vertex 3.419508e-02 5.685326e-02 6.500000e-03
      vertex 3.419508e-02 5.685326e-02 -1.212780e-15
      vertex 3.369540e-02 5.644800e-02 -1.276630e-15
    endloop
  endfacet
  facet normal -6.911929e-01 7.226703e-01 8.090486e-14
    outer loop
      vertex 3.458753e-02 5.722861e-02 6.500000e-03
      vertex 3.419508e-02 5.685326e-02 -1.212780e-15
      vertex 3.419508e-02 5.685326e-02 6.500000e-03
    endloop
  endfacet
  facet normal -5.760598e-01 8.174075e-01 9.590335e-14
    outer loop
      vertex 3.369540e-02 5.644800e-02 6.500000e-03
      vertex 3.369540e-02 5.644800e-02 -1.276630e-15
      vertex 3.307708e-02 5.601225e-02 -1.346965e-15
    endloop
  endfacet
  facet normal -6.299002e-01 7.766761e-01 8.936145e-14
    outer loop
      vertex 3.419508e-02 5.685326e-02 6.500000e-03
      vertex 3.369540e-02 5.644800e-02 -1.276630e-15
      vertex 3.369540e-02 5.644800e-02 6.500000e-03
    endloop
  endfacet
  facet normal -5.294462e-01 8.483435e-01 1.000880e-13
    outer loop
      vertex 3.307708e-02 5.601225e-02 6.500000e-03
      vertex 3.307708e-02 5.601225e-02 -1.346965e-15
      vertex 3.233045e-02 5.554628e-02 -1.423951e-15
    endloop
  endfacet
  facet normal -5.760598e-01 8.174075e-01 9.503027e-14
    outer loop
      vertex 3.369540e-02 5.644800e-02 6.500000e-03
      vertex 3.307708e-02 5.601225e-02 -1.346965e-15
      vertex 3.307708e-02 5.601225e-02 6.500000e-03
    endloop
  endfacet
  facet normal -4.943343e-01 8.692719e-01 1.035857e-13
    outer loop
      vertex 3.233045e-02 5.554628e-02 6.500000e-03
      vertex 3.233045e-02 5.554628e-02 -1.423951e-15
      vertex 3.168463e-02 5.517902e-02 -1.485818e-15
    endloop
  endfacet
  facet normal -5.294462e-01 8.483435e-01 1.000919e-13
    outer loop
      vertex 3.307708e-02 5.601225e-02 6.500000e-03
      vertex 3.233045e-02 5.554628e-02 -1.423951e-15
      vertex 3.233045e-02 5.554628e-02 6.500000e-03
    endloop
  endfacet
  facet normal -4.685206e-01 8.834526e-01 1.059988e-13
    outer loop
      vertex 3.168463e-02 5.517902e-02 6.500000e-03
      vertex 3.168463e-02 5.517902e-02 -1.485818e-15
      vertex 3.096833e-02 5.479914e-02 -1.550813e-15
    endloop
  endfacet
  facet normal -4.943343e-01 8.692719e-01 1.035855e-13
    outer loop
      vertex 3.233045e-02 5.554628e-02 6.500000e-03
      vertex 3.168463e-02 5.517902e-02 -1.485818e-15
      vertex 3.168463e-02 5.517902e-02 6.500000e-03
    endloop
  endfacet
  facet normal -4.458539e-01 8.951057e-01 1.089684e-13
    outer loop
      vertex 3.096833e-02 5.479914e-02 6.500000e-03
      vertex 3.096833e-02 5.479914e-02 -1.550813e-15
      vertex 3.018461e-02 5.440877e-02 -1.618592e-15
    endloop
  endfacet
  facet normal -4.685206e-01 8.834526e-01 1.069494e-13
    outer loop
      vertex 3.168463e-02 5.517902e-02 6.500000e-03
      vertex 3.096833e-02 5.479914e-02 -1.550813e-15
      vertex 3.096833e-02 5.479914e-02 6.500000e-03
    endloop
  endfacet
  facet normal -4.264894e-01 9.044925e-01 1.106244e-13
    outer loop
      vertex 3.018461e-02 5.440877e-02 6.500000e-03
      vertex 3.018461e-02 5.440877e-02 -1.618592e-15
      vertex 2.934157e-02 5.401125e-02 -1.688545e-15
    endloop
  endfacet
  facet normal -4.458539e-01 8.951057e-01 1.089651e-13
    outer loop
      vertex 3.096833e-02 5.479914e-02 6.500000e-03
      vertex 3.018461e-02 5.440877e-02 -1.618592e-15
      vertex 3.018461e-02 5.440877e-02 6.500000e-03
    endloop
  endfacet
  facet normal -4.122504e-01 9.110706e-01 1.117992e-13
    outer loop
      vertex 2.934157e-02 5.401125e-02 6.500000e-03
      vertex 2.934157e-02 5.401125e-02 -1.688545e-15
      vertex 2.863213e-02 5.369024e-02 -1.745629e-15
    endloop
  endfacet
  facet normal -4.264894e-01 9.044925e-01 1.106253e-13
    outer loop
      vertex 3.018461e-02 5.440877e-02 6.500000e-03
      vertex 2.934157e-02 5.401125e-02 -1.688545e-15
      vertex 2.934157e-02 5.401125e-02 6.500000e-03
    endloop
  endfacet
  facet normal -4.010495e-01 9.160564e-01 1.117204e-13
    outer loop
      vertex 2.863213e-02 5.369024e-02 6.500000e-03
      vertex 2.863213e-02 5.369024e-02 -1.745629e-15
      vertex 2.789666e-02 5.336825e-02 -1.803381e-15
    endloop
  endfacet
  facet normal -4.122504e-01 9.110706e-01 1.108269e-13
    outer loop
      vertex 2.934157e-02 5.401125e-02 6.500000e-03
      vertex 2.863213e-02 5.369024e-02 -1.745629e-15
      vertex 2.863213e-02 5.369024e-02 6.500000e-03
    endloop
  endfacet
  facet normal -3.924341e-01 9.197801e-01 1.133752e-13
    outer loop
      vertex 2.789666e-02 5.336825e-02 6.500000e-03
      vertex 2.789666e-02 5.336825e-02 -1.803381e-15
      vertex 2.714050e-02 5.304563e-02 -1.861648e-15
    endloop
  endfacet
  facet normal -4.010495e-01 9.160564e-01 1.127000e-13
    outer loop
      vertex 2.863213e-02 5.369024e-02 6.500000e-03
      vertex 2.789666e-02 5.336825e-02 -1.803381e-15
      vertex 2.789666e-02 5.336825e-02 6.500000e-03
    endloop
  endfacet
  facet normal -3.844138e-01 9.231609e-01 1.139939e-13
    outer loop
      vertex 2.714050e-02 5.304563e-02 6.500000e-03
      vertex 2.714050e-02 5.304563e-02 -1.861648e-15
      vertex 2.636545e-02 5.272289e-02 -1.920322e-15
    endloop
  endfacet
  facet normal -3.924341e-01 9.197801e-01 1.133744e-13
    outer loop
      vertex 2.789666e-02 5.336825e-02 6.500000e-03
      vertex 2.714050e-02 5.304563e-02 -1.861648e-15
      vertex 2.714050e-02 5.304563e-02 6.500000e-03
    endloop
  endfacet
  facet normal -3.799853e-01 9.249925e-01 1.133435e-13
    outer loop
      vertex 2.636545e-02 5.272289e-02 6.500000e-03
      vertex 2.636545e-02 5.272289e-02 -1.920322e-15
      vertex 2.556725e-02 5.239499e-02 -1.980156e-15
    endloop
  endfacet
  facet normal -3.844138e-01 9.231609e-01 1.130054e-13
    outer loop
      vertex 2.714050e-02 5.304563e-02 6.500000e-03
      vertex 2.636545e-02 5.272289e-02 -1.920322e-15
      vertex 2.636545e-02 5.272289e-02 6.500000e-03
    endloop
  endfacet
  facet normal -3.763082e-01 9.264946e-01 1.146083e-13
    outer loop
      vertex 2.556725e-02 5.239499e-02 6.500000e-03
      vertex 2.556725e-02 5.239499e-02 -1.980156e-15
      vertex 2.498298e-02 5.215768e-02 -2.023597e-15
    endloop
  endfacet
  facet normal -3.799853e-01 9.249925e-01 1.143360e-13
    outer loop
      vertex 2.636545e-02 5.272289e-02 6.500000e-03
      vertex 2.556725e-02 5.239499e-02 -1.980156e-15
      vertex 2.556725e-02 5.239499e-02 6.500000e-03
    endloop
  endfacet
  facet normal -3.784817e-01 9.256088e-01 1.134565e-13
    outer loop
      vertex 2.498298e-02 5.215768e-02 6.500000e-03
      vertex 2.498298e-02 5.215768e-02 -2.023597e-15
      vertex 2.438349e-02 5.191255e-02 -2.068385e-15
    endloop
  endfacet
  facet normal -3.763082e-01 9.264946e-01 1.136204e-13
    outer loop
      vertex 2.556725e-02 5.239499e-02 6.500000e-03
      vertex 2.498298e-02 5.215768e-02 -2.023597e-15
      vertex 2.498298e-02 5.215768e-02 6.500000e-03
    endloop
  endfacet
  facet normal -3.790031e-01 9.253954e-01 1.148098e-13
    outer loop
      vertex 2.438349e-02 5.191255e-02 6.500000e-03
      vertex 2.438349e-02 5.191255e-02 -2.068385e-15
      vertex 2.377117e-02 5.166177e-02 -2.114186e-15
    endloop
  endfacet
  facet normal -3.784817e-01 9.256088e-01 1.148485e-13
    outer loop
      vertex 2.498298e-02 5.215768e-02 6.500000e-03
      vertex 2.438349e-02 5.191255e-02 -2.068385e-15
      vertex 2.438349e-02 5.191255e-02 6.500000e-03
    endloop
  endfacet
  facet normal -3.836791e-01 9.234665e-01 1.134738e-13
    outer loop
      vertex 2.377117e-02 5.166177e-02 6.500000e-03
      vertex 2.377117e-02 5.166177e-02 -2.114186e-15
      vertex 2.314028e-02 5.139965e-02 -2.161869e-15
    endloop
  endfacet
  facet normal -3.790031e-01 9.253954e-01 1.138202e-13
    outer loop
      vertex 2.438349e-02 5.191255e-02 6.500000e-03
      vertex 2.377117e-02 5.166177e-02 -2.114186e-15
      vertex 2.377117e-02 5.166177e-02 6.500000e-03
    endloop
  endfacet
  facet normal -3.947998e-01 9.187672e-01 1.136120e-13
    outer loop
      vertex 2.314028e-02 5.139965e-02 6.500000e-03
      vertex 2.314028e-02 5.139965e-02 -2.161869e-15
      vertex 2.248176e-02 5.111668e-02 -2.212875e-15
    endloop
  endfacet
  facet normal -3.836791e-01 9.234665e-01 1.144640e-13
    outer loop
      vertex 2.377117e-02 5.166177e-02 6.500000e-03
      vertex 2.314028e-02 5.139965e-02 -2.161869e-15
      vertex 2.314028e-02 5.139965e-02 6.500000e-03
    endloop
  endfacet
  facet normal -4.033922e-01 9.150272e-01 1.129427e-13
    outer loop
      vertex 2.248176e-02 5.111668e-02 6.500000e-03
      vertex 2.248176e-02 5.111668e-02 -2.212875e-15
      vertex 2.179781e-02 5.081516e-02 -2.266859e-15
    endloop
  endfacet
  facet normal -3.947998e-01 9.187672e-01 1.136110e-13
    outer loop
      vertex 2.314028e-02 5.139965e-02 6.500000e-03
      vertex 2.248176e-02 5.111668e-02 -2.212875e-15
      vertex 2.248176e-02 5.111668e-02 6.500000e-03
    endloop
  endfacet
  facet normal -4.108252e-01 9.117141e-01 1.113801e-13
    outer loop
      vertex 2.179781e-02 5.081516e-02 6.500000e-03
      vertex 2.179781e-02 5.081516e-02 -2.266859e-15
      vertex 2.108911e-02 5.049581e-02 -2.323707e-15
    endloop
  endfacet
  facet normal -4.033922e-01 9.150272e-01 1.119635e-13
    outer loop
      vertex 2.248176e-02 5.111668e-02 6.500000e-03
      vertex 2.179781e-02 5.081516e-02 -2.266859e-15
      vertex 2.179781e-02 5.081516e-02 6.500000e-03
    endloop
  endfacet
  facet normal -5.133905e-01 8.581551e-01 1.022672e-13
    outer loop
      vertex 2.108911e-02 5.049581e-02 6.500000e-03
      vertex 2.108911e-02 5.049581e-02 -2.323707e-15
      vertex 1.624888e-02 4.760015e-02 -2.806278e-15
    endloop
  endfacet
  facet normal -4.108252e-01 9.117141e-01 1.113779e-13
    outer loop
      vertex 2.179781e-02 5.081516e-02 6.500000e-03
      vertex 2.108911e-02 5.049581e-02 -2.323707e-15
      vertex 2.108911e-02 5.049581e-02 6.500000e-03
    endloop
  endfacet
  facet normal -6.877980e-01 7.258911e-01 -4.000160e-03
    outer loop
      vertex 1.287364e-02 4.443786e-02 6.500000e-03
      vertex 1.624888e-02 4.760015e-02 -2.806278e-15
      vertex 1.272976e-02 4.426570e-02 -3.319344e-15
    endloop
  endfacet
  facet normal -6.816038e-01 7.317186e-01 2.051424e-03
    outer loop
      vertex 1.635102e-02 4.767707e-02 6.500000e-03
      vertex 1.624888e-02 4.760015e-02 -2.806278e-15
      vertex 1.287364e-02 4.443786e-02 6.500000e-03
    endloop
  endfacet
  facet normal -5.112751e-01 8.594145e-01 -2.136335e-03
    outer loop
      vertex 2.108911e-02 5.049581e-02 6.500000e-03
      vertex 1.624888e-02 4.760015e-02 -2.806278e-15
      vertex 1.635102e-02 4.767707e-02 6.500000e-03
    endloop
  endfacet
  facet normal -8.359666e-01 5.487231e-01 -7.925217e-03
    outer loop
      vertex 1.242293e-02 4.389016e-02 6.363841e-03
      vertex 1.272976e-02 4.426570e-02 -3.319344e-15
      vertex 1.042278e-02 4.075107e-02 -3.831037e-15
    endloop
  endfacet
  facet normal -7.721862e-01 6.353962e-01 2.646468e-04
    outer loop
      vertex 1.242293e-02 4.389016e-02 6.363841e-03
      vertex 1.287364e-02 4.443786e-02 6.500000e-03
      vertex 1.272976e-02 4.426570e-02 -3.319344e-15
    endloop
  endfacet
  facet normal -9.449681e-01 3.253932e-01 -3.397895e-02
    outer loop
      vertex 9.327413e-03 3.787287e-02 2.900000e-03
      vertex 1.042278e-02 4.075107e-02 -3.831037e-15
      vertex 9.072042e-03 3.682843e-02 -4.376737e-15
    endloop
  endfacet
  facet normal -9.302070e-01 3.668153e-01 1.270730e-02
    outer loop
      vertex 9.327413e-03 3.787287e-02 2.900000e-03
      vertex 1.059020e-02 4.107516e-02 2.900000e-03
      vertex 1.042278e-02 4.075107e-02 -3.831037e-15
    endloop
  endfacet
  facet normal -8.844695e-01 4.665967e-01 -1.084201e-03
    outer loop
      vertex 1.065675e-02 4.120156e-02 3.000000e-03
      vertex 1.042278e-02 4.075107e-02 -3.831037e-15
      vertex 1.059020e-02 4.107516e-02 2.900000e-03
    endloop
  endfacet
  facet normal 3.023762e-01 8.137181e-01 -4.964187e-01
    outer loop
      vertex 1.144018e-02 4.252688e-02 3.530573e-03
      vertex 1.242293e-02 4.389016e-02 6.363841e-03
      vertex 1.042278e-02 4.075107e-02 -3.831037e-15
    endloop
  endfacet
  facet normal -8.343426e-01 5.500541e-01 -3.623379e-02
    outer loop
      vertex 1.111110e-02 4.200218e-02 3.142994e-03
      vertex 1.144018e-02 4.252688e-02 3.530573e-03
      vertex 1.042278e-02 4.075107e-02 -3.831037e-15
    endloop
  endfacet
  facet normal -8.668004e-01 4.985805e-01 -8.635917e-03
    outer loop
      vertex 1.072426e-02 4.132718e-02 3.000000e-03
      vertex 1.111110e-02 4.200218e-02 3.142994e-03
      vertex 1.042278e-02 4.075107e-02 -3.831037e-15
    endloop
  endfacet
  facet normal -8.808495e-01 4.733903e-01 -2.386672e-03
    outer loop
      vertex 1.065675e-02 4.120156e-02 3.000000e-03
      vertex 1.072426e-02 4.132718e-02 3.000000e-03
      vertex 1.042278e-02 4.075107e-02 -3.831037e-15
    endloop
  endfacet
  facet normal -9.896771e-01 1.412890e-01 -2.401461e-02
    outer loop
      vertex 8.594626e-03 3.397721e-02 2.900000e-03
      vertex 9.072042e-03 3.682843e-02 -4.376737e-15
      vertex 8.366849e-03 3.188881e-02 -5.043252e-15
    endloop
  endfacet
  facet normal -9.825689e-01 1.848244e-01 1.995860e-02
    outer loop
      vertex 8.594626e-03 3.397721e-02 2.900000e-03
      vertex 9.327413e-03 3.787287e-02 2.900000e-03
      vertex 9.072042e-03 3.682843e-02 -4.376737e-15
    endloop
  endfacet
  facet normal -9.949142e-01 1.003894e-01 8.227781e-03
    outer loop
      vertex 8.167368e-03 2.967416e-02 2.900000e-03
      vertex 8.366849e-03 3.188881e-02 -5.043252e-15
      vertex 7.901778e-03 2.727970e-02 -5.661167e-15
    endloop
  endfacet
  facet normal -9.950823e-01 9.880369e-02 7.005266e-03
    outer loop
      vertex 8.167368e-03 2.967416e-02 2.900000e-03
      vertex 8.594626e-03 3.397721e-02 2.900000e-03
      vertex 8.366849e-03 3.188881e-02 -5.043252e-15
    endloop
  endfacet
  facet normal -9.795076e-01 2.001490e-01 2.247828e-02
    outer loop
      vertex 7.710646e-03 2.601863e-02 2.900000e-03
      vertex 7.901778e-03 2.727970e-02 -5.661167e-15
      vertex 7.172573e-03 2.371105e-02 -6.147253e-15
    endloop
  endfacet
  facet normal -9.922198e-01 1.239678e-01 -1.148711e-02
    outer loop
      vertex 7.710646e-03 2.601863e-02 2.900000e-03
      vertex 8.167368e-03 2.967416e-02 2.900000e-03
      vertex 7.901778e-03 2.727970e-02 -5.661167e-15
    endloop
  endfacet
  facet normal -9.067294e-01 3.954690e-01 -1.464446e-01
    outer loop
      vertex 7.710646e-03 2.601863e-02 2.900000e-03
      vertex 7.172573e-03 2.371105e-02 -6.147253e-15
      vertex 6.038791e-03 2.111152e-02 -6.513838e-15
    endloop
  endfacet
  facet normal -6.853961e-01 7.280292e-01 1.434182e-02
    outer loop
      vertex 5.942486e-03 2.096373e-02 2.900000e-03
      vertex 6.038791e-03 2.111152e-02 -6.513838e-15
      vertex 2.439700e-03 1.772319e-02 -7.035674e-15
    endloop
  endfacet
  facet normal -9.438204e-01 3.301399e-01 -1.451781e-02
    outer loop
      vertex 5.942486e-03 2.096373e-02 2.900000e-03
      vertex 7.710646e-03 2.601863e-02 2.900000e-03
      vertex 6.038791e-03 2.111152e-02 -6.513838e-15
    endloop
  endfacet
  facet normal -7.762952e-01 6.298026e-01 -2.672868e-02
    outer loop
      vertex 9.814252e-04 1.620158e-02 6.500000e-03
      vertex 2.439700e-03 1.772319e-02 -7.035674e-15
      vertex -9.214531e-04 1.358023e-02 -7.652162e-15
    endloop
  endfacet
  facet normal -6.847033e-01 7.286247e-01 1.695364e-02
    outer loop
      vertex 3.217687e-03 1.830304e-02 6.500000e-03
      vertex 2.439700e-03 1.772319e-02 -7.035674e-15
      vertex 9.814252e-04 1.620158e-02 6.500000e-03
    endloop
  endfacet
  facet normal -5.894466e-01 8.078060e-01 -1.511241e-03
    outer loop
      vertex 4.275292e-03 1.907379e-02 5.982233e-03
      vertex 2.439700e-03 1.772319e-02 -7.035674e-15
      vertex 3.217687e-03 1.830304e-02 6.500000e-03
    endloop
  endfacet
  facet normal -6.790938e-01 7.340515e-01 1.018701e-13
    outer loop
      vertex 5.942486e-03 2.096373e-02 3.000000e-03
      vertex 5.942486e-03 2.096373e-02 2.900000e-03
      vertex 2.439700e-03 1.772319e-02 -7.035674e-15
    endloop
  endfacet
  facet normal -7.810457e-01 5.079076e-01 3.633145e-01
    outer loop
      vertex 5.873870e-03 2.085821e-02 3.000000e-03
      vertex 5.942486e-03 2.096373e-02 3.000000e-03
      vertex 2.439700e-03 1.772319e-02 -7.035674e-15
    endloop
  endfacet
  facet normal -7.792260e-01 5.228001e-01 3.456687e-01
    outer loop
      vertex 5.804603e-03 2.075497e-02 3.000000e-03
      vertex 5.873870e-03 2.085821e-02 3.000000e-03
      vertex 2.439700e-03 1.772319e-02 -7.035674e-15
    endloop
  endfacet
  facet normal -7.327936e-01 6.633628e-01 1.515367e-01
    outer loop
      vertex 5.035732e-03 1.978965e-02 3.507659e-03
      vertex 5.804603e-03 2.075497e-02 3.000000e-03
      vertex 2.439700e-03 1.772319e-02 -7.035674e-15
    endloop
  endfacet
  facet normal -6.500030e-01 7.591789e-01 3.381499e-02
    outer loop
      vertex 4.666146e-03 1.941788e-02 4.750000e-03
      vertex 5.035732e-03 1.978965e-02 3.507659e-03
      vertex 2.439700e-03 1.772319e-02 -7.035674e-15
    endloop
  endfacet
  facet normal -6.289829e-01 7.772216e-01 1.752513e-02
    outer loop
      vertex 4.275292e-03 1.907379e-02 5.982233e-03
      vertex 4.666146e-03 1.941788e-02 4.750000e-03
      vertex 2.439700e-03 1.772319e-02 -7.035674e-15
    endloop
  endfacet
  facet normal -8.092581e-01 5.874533e-01 6.118972e-14
    outer loop
      vertex 9.814252e-04 1.620158e-02 6.500000e-03
      vertex -9.214531e-04 1.358023e-02 -7.652162e-15
      vertex -9.214531e-04 1.358023e-02 6.500000e-03
    endloop
  endfacet
  facet normal -2.078782e-14 -1.320153e-13 1.000000e+00
    outer loop
      vertex 1.287364e-02 4.443786e-02 6.500000e-03
      vertex 1.705915e-02 4.070395e-02 6.500000e-03
      vertex 2.375883e-02 4.507593e-02 6.500000e-03
    endloop
  endfacet
  facet normal -2.078636e-14 -1.320403e-13 1.000000e+00
    outer loop
      vertex 2.429995e-02 4.602207e-02 6.500000e-03
      vertex 1.287364e-02 4.443786e-02 6.500000e-03
      vertex 2.375883e-02 4.507593e-02 6.500000e-03
    endloop
  endfacet
  facet normal -2.027362e-14 -1.314389e-13 1.000000e+00
    outer loop
      vertex 1.287364e-02 4.443786e-02 6.500000e-03
      vertex 1.648767e-02 4.022459e-02 6.500000e-03
      vertex 1.705915e-02 4.070395e-02 6.500000e-03
    endloop
  endfacet
  facet normal -2.127553e-14 -1.322984e-13 1.000000e+00
    outer loop
      vertex 1.287364e-02 4.443786e-02 6.500000e-03
      vertex 1.596146e-02 3.970605e-02 6.500000e-03
      vertex 1.648767e-02 4.022459e-02 6.500000e-03
    endloop
  endfacet
  facet normal -1.651788e-01 -1.077900e-01 9.803557e-01
    outer loop
      vertex 1.242293e-02 4.389016e-02 6.363841e-03
      vertex 1.596146e-02 3.970605e-02 6.500000e-03
      vertex 1.287364e-02 4.443786e-02 6.500000e-03
    endloop
  endfacet
  facet normal -1.659401e-01 -1.084404e-01 9.801554e-01
    outer loop
      vertex 1.549852e-02 3.917089e-02 6.362417e-03
      vertex 1.596146e-02 3.970605e-02 6.500000e-03
      vertex 1.242293e-02 4.389016e-02 6.363841e-03
    endloop
  endfacet
  facet normal -2.072383e-14 -1.322552e-13 1.000000e+00
    outer loop
      vertex 2.575504e-02 4.766599e-02 6.500000e-03
      vertex 1.635102e-02 4.767707e-02 6.500000e-03
      vertex 1.287364e-02 4.443786e-02 6.500000e-03
    endloop
  endfacet
  facet normal -2.075018e-14 -1.321500e-13 1.000000e+00
    outer loop
      vertex 2.495832e-02 4.687877e-02 6.500000e-03
      vertex 2.575504e-02 4.766599e-02 6.500000e-03
      vertex 1.287364e-02 4.443786e-02 6.500000e-03
    endloop
  endfacet
  facet normal -2.081702e-14 -1.318192e-13 1.000000e+00
    outer loop
      vertex 2.429995e-02 4.602207e-02 6.500000e-03
      vertex 2.495832e-02 4.687877e-02 6.500000e-03
      vertex 1.287364e-02 4.443786e-02 6.500000e-03
    endloop
  endfacet
  facet normal -2.073340e-14 -1.319288e-13 1.000000e+00
    outer loop
      vertex 3.100638e-02 5.045596e-02 6.500000e-03
      vertex 2.108911e-02 5.049581e-02 6.500000e-03
      vertex 1.635102e-02 4.767707e-02 6.500000e-03
    endloop
  endfacet
  facet normal -2.115546e-14 -1.297029e-13 1.000000e+00
    outer loop
      vertex 2.976515e-02 4.996962e-02 6.500000e-03
      vertex 3.100638e-02 5.045596e-02 6.500000e-03
      vertex 1.635102e-02 4.767707e-02 6.500000e-03
    endloop
  endfacet
  facet normal -2.030767e-14 -1.346635e-13 1.000000e+00
    outer loop
      vertex 2.862907e-02 4.947753e-02 6.500000e-03
      vertex 2.976515e-02 4.996962e-02 6.500000e-03
      vertex 1.635102e-02 4.767707e-02 6.500000e-03
    endloop
  endfacet
  facet normal -2.091047e-14 -1.305528e-13 1.000000e+00
    outer loop
      vertex 2.761298e-02 4.895596e-02 6.500000e-03
      vertex 2.862907e-02 4.947753e-02 6.500000e-03
      vertex 1.635102e-02 4.767707e-02 6.500000e-03
    endloop
  endfacet
  facet normal -2.085590e-14 -1.310333e-13 1.000000e+00
    outer loop
      vertex 2.671482e-02 4.840388e-02 6.500000e-03
      vertex 2.761298e-02 4.895596e-02 6.500000e-03
      vertex 1.635102e-02 4.767707e-02 6.500000e-03
    endloop
  endfacet
  facet normal -2.072460e-14 -1.329056e-13 1.000000e+00
    outer loop
      vertex 2.575504e-02 4.766599e-02 6.500000e-03
      vertex 2.671482e-02 4.840388e-02 6.500000e-03
      vertex 1.635102e-02 4.767707e-02 6.500000e-03
    endloop
  endfacet
  facet normal -2.066388e-14 -1.334033e-13 1.000000e+00
    outer loop
      vertex 3.235331e-02 5.093562e-02 6.500000e-03
      vertex 2.179781e-02 5.081516e-02 6.500000e-03
      vertex 2.108911e-02 5.049581e-02 6.500000e-03
    endloop
  endfacet
  facet normal -2.073228e-14 -1.316514e-13 1.000000e+00
    outer loop
      vertex 3.100638e-02 5.045596e-02 6.500000e-03
      vertex 3.235331e-02 5.093562e-02 6.500000e-03
      vertex 2.108911e-02 5.049581e-02 6.500000e-03
    endloop
  endfacet
  facet normal -2.072016e-14 -1.284724e-13 1.000000e+00
    outer loop
      vertex 3.235331e-02 5.093562e-02 6.500000e-03
      vertex 2.248176e-02 5.111668e-02 6.500000e-03
      vertex 2.179781e-02 5.081516e-02 6.500000e-03
    endloop
  endfacet
  facet normal 1.607742e-14 -2.213289e-13 1.000000e+00
    outer loop
      vertex 2.556725e-02 5.239499e-02 6.500000e-03
      vertex 2.314028e-02 5.139965e-02 6.500000e-03
      vertex 2.248176e-02 5.111668e-02 6.500000e-03
    endloop
  endfacet
  facet normal 1.022122e-16 -1.827691e-13 1.000000e+00
    outer loop
      vertex 2.636545e-02 5.272289e-02 6.500000e-03
      vertex 2.556725e-02 5.239499e-02 6.500000e-03
      vertex 2.248176e-02 5.111668e-02 6.500000e-03
    endloop
  endfacet
  facet normal -2.078953e-14 -1.322546e-13 1.000000e+00
    outer loop
      vertex 3.235331e-02 5.093562e-02 6.500000e-03
      vertex 2.636545e-02 5.272289e-02 6.500000e-03
      vertex 2.248176e-02 5.111668e-02 6.500000e-03
    endloop
  endfacet
  facet normal -1.094084e-13 8.464693e-14 1.000000e+00
    outer loop
      vertex 2.556725e-02 5.239499e-02 6.500000e-03
      vertex 2.377117e-02 5.166177e-02 6.500000e-03
      vertex 2.314028e-02 5.139965e-02 6.500000e-03
    endloop
  endfacet
  facet normal 4.308155e-13 -1.238672e-12 1.000000e+00
    outer loop
      vertex 2.556725e-02 5.239499e-02 6.500000e-03
      vertex 2.438349e-02 5.191255e-02 6.500000e-03
      vertex 2.377117e-02 5.166177e-02 6.500000e-03
    endloop
  endfacet
  facet normal -2.074881e-14 -1.319705e-13 1.000000e+00
    outer loop
      vertex 2.556725e-02 5.239499e-02 6.500000e-03
      vertex 2.498298e-02 5.215768e-02 6.500000e-03
      vertex 2.438349e-02 5.191255e-02 6.500000e-03
    endloop
  endfacet
  facet normal -2.088833e-14 -1.325856e-13 1.000000e+00
    outer loop
      vertex 3.235331e-02 5.093562e-02 6.500000e-03
      vertex 2.714050e-02 5.304563e-02 6.500000e-03
      vertex 2.636545e-02 5.272289e-02 6.500000e-03
    endloop
  endfacet
  facet normal -2.059413e-14 -1.318587e-13 1.000000e+00
    outer loop
      vertex 3.235331e-02 5.093562e-02 6.500000e-03
      vertex 2.789666e-02 5.336825e-02 6.500000e-03
      vertex 2.714050e-02 5.304563e-02 6.500000e-03
    endloop
  endfacet
  facet normal -2.032489e-14 -1.313655e-13 1.000000e+00
    outer loop
      vertex 3.235331e-02 5.093562e-02 6.500000e-03
      vertex 2.863213e-02 5.369024e-02 6.500000e-03
      vertex 2.789666e-02 5.336825e-02 6.500000e-03
    endloop
  endfacet
  facet normal -2.089905e-14 -1.321411e-13 1.000000e+00
    outer loop
      vertex 3.235331e-02 5.093562e-02 6.500000e-03
      vertex 2.934157e-02 5.401125e-02 6.500000e-03
      vertex 2.863213e-02 5.369024e-02 6.500000e-03
    endloop
  endfacet
  facet normal -2.098771e-14 -1.322279e-13 1.000000e+00
    outer loop
      vertex 3.235331e-02 5.093562e-02 6.500000e-03
      vertex 3.018461e-02 5.440877e-02 6.500000e-03
      vertex 2.934157e-02 5.401125e-02 6.500000e-03
    endloop
  endfacet
  facet normal -2.058660e-14 -1.319775e-13 1.000000e+00
    outer loop
      vertex 3.235331e-02 5.093562e-02 6.500000e-03
      vertex 3.096833e-02 5.479914e-02 6.500000e-03
      vertex 3.018461e-02 5.440877e-02 6.500000e-03
    endloop
  endfacet
  facet normal -1.349401e-14 -1.458001e-13 1.000000e+00
    outer loop
      vertex 3.682243e-02 5.784457e-02 6.500000e-03
      vertex 3.168463e-02 5.517902e-02 6.500000e-03
      vertex 3.096833e-02 5.479914e-02 6.500000e-03
    endloop
  endfacet
  facet normal -2.066937e-14 -1.320072e-13 1.000000e+00
    outer loop
      vertex 3.235331e-02 5.093562e-02 6.500000e-03
      vertex 3.682243e-02 5.784457e-02 6.500000e-03
      vertex 3.096833e-02 5.479914e-02 6.500000e-03
    endloop
  endfacet
  facet normal -2.442753e-14 -1.247259e-13 1.000000e+00
    outer loop
      vertex 3.682243e-02 5.784457e-02 6.500000e-03
      vertex 3.233045e-02 5.554628e-02 6.500000e-03
      vertex 3.168463e-02 5.517902e-02 6.500000e-03
    endloop
  endfacet
  facet normal -1.931785e-14 -1.347127e-13 1.000000e+00
    outer loop
      vertex 3.682243e-02 5.784457e-02 6.500000e-03
      vertex 3.307708e-02 5.601225e-02 6.500000e-03
      vertex 3.233045e-02 5.554628e-02 6.500000e-03
    endloop
  endfacet
  facet normal -1.756200e-14 -1.383018e-13 1.000000e+00
    outer loop
      vertex 3.682243e-02 5.784457e-02 6.500000e-03
      vertex 3.369540e-02 5.644800e-02 6.500000e-03
      vertex 3.307708e-02 5.601225e-02 6.500000e-03
    endloop
  endfacet
  facet normal -2.125585e-14 -1.300309e-13 1.000000e+00
    outer loop
      vertex 3.682243e-02 5.784457e-02 6.500000e-03
      vertex 3.419508e-02 5.685326e-02 6.500000e-03
      vertex 3.369540e-02 5.644800e-02 6.500000e-03
    endloop
  endfacet
  facet normal -2.109617e-14 -1.304542e-13 1.000000e+00
    outer loop
      vertex 3.682243e-02 5.784457e-02 6.500000e-03
      vertex 3.458753e-02 5.722861e-02 6.500000e-03
      vertex 3.419508e-02 5.685326e-02 6.500000e-03
    endloop
  endfacet
  facet normal -2.065830e-14 -1.320429e-13 1.000000e+00
    outer loop
      vertex 3.682243e-02 5.784457e-02 6.500000e-03
      vertex 3.488141e-02 5.757019e-02 6.500000e-03
      vertex 3.458753e-02 5.722861e-02 6.500000e-03
    endloop
  endfacet
  facet normal -2.065704e-14 -1.320518e-13 1.000000e+00
    outer loop
      vertex 3.682243e-02 5.784457e-02 6.500000e-03
      vertex 3.509252e-02 5.787872e-02 6.500000e-03
      vertex 3.488141e-02 5.757019e-02 6.500000e-03
    endloop
  endfacet
  facet normal -2.105689e-14 -1.314312e-13 1.000000e+00
    outer loop
      vertex 4.213266e-02 6.215568e-02 6.500000e-03
      vertex 3.527014e-02 5.831882e-02 6.500000e-03
      vertex 3.509252e-02 5.787872e-02 6.500000e-03
    endloop
  endfacet
  facet normal -2.065776e-14 -1.320882e-13 1.000000e+00
    outer loop
      vertex 3.682243e-02 5.784457e-02 6.500000e-03
      vertex 4.213266e-02 6.215568e-02 6.500000e-03
      vertex 3.509252e-02 5.787872e-02 6.500000e-03
    endloop
  endfacet
  facet normal -1.988705e-14 -1.335236e-13 1.000000e+00
    outer loop
      vertex 4.213266e-02 6.215568e-02 6.500000e-03
      vertex 3.520963e-02 5.882802e-02 6.500000e-03
      vertex 3.527014e-02 5.831882e-02 6.500000e-03
    endloop
  endfacet
  facet normal -2.084002e-14 -1.315410e-13 1.000000e+00
    outer loop
      vertex 4.213266e-02 6.215568e-02 6.500000e-03
      vertex 3.476438e-02 5.950519e-02 6.500000e-03
      vertex 3.520963e-02 5.882802e-02 6.500000e-03
    endloop
  endfacet
  facet normal -2.067997e-14 -1.319859e-13 1.000000e+00
    outer loop
      vertex 4.213266e-02 6.215568e-02 6.500000e-03
      vertex 3.371900e-02 6.047730e-02 6.500000e-03
      vertex 3.476438e-02 5.950519e-02 6.500000e-03
    endloop
  endfacet
  facet normal -2.086309e-14 -1.318691e-13 1.000000e+00
    outer loop
      vertex 4.059658e-02 6.485505e-02 6.500000e-03
      vertex 3.992989e-02 6.551961e-02 6.500000e-03
      vertex 3.371900e-02 6.047730e-02 6.500000e-03
    endloop
  endfacet
  facet normal -2.011025e-14 -1.330519e-13 1.000000e+00
    outer loop
      vertex 4.120919e-02 6.404537e-02 6.500000e-03
      vertex 4.059658e-02 6.485505e-02 6.500000e-03
      vertex 3.371900e-02 6.047730e-02 6.500000e-03
    endloop
  endfacet
  facet normal -2.081893e-14 -1.315642e-13 1.000000e+00
    outer loop
      vertex 4.173283e-02 6.313183e-02 6.500000e-03
      vertex 4.120919e-02 6.404537e-02 6.500000e-03
      vertex 3.371900e-02 6.047730e-02 6.500000e-03
    endloop
  endfacet
  facet normal -2.068108e-14 -1.319804e-13 1.000000e+00
    outer loop
      vertex 4.213266e-02 6.215568e-02 6.500000e-03
      vertex 4.173283e-02 6.313183e-02 6.500000e-03
      vertex 3.371900e-02 6.047730e-02 6.500000e-03
    endloop
  endfacet
  facet normal 6.302887e-01 -7.763609e-01 -8.934326e-14
    outer loop
      vertex 4.213266e-02 6.215568e-02 1.999825e-03
      vertex 4.213266e-02 6.215568e-02 6.500000e-03
      vertex 3.682243e-02 5.784457e-02 6.500000e-03
    endloop
  endfacet
  facet normal 8.396469e-01 -5.431327e-01 -5.224303e-14
    outer loop
      vertex 3.682243e-02 5.784457e-02 2.500000e-03
      vertex 3.682243e-02 5.784457e-02 6.500000e-03
      vertex 3.235331e-02 5.093562e-02 6.500000e-03
    endloop
  endfacet
  facet normal 6.302887e-01 -7.763609e-01 -9.613669e-14
    outer loop
      vertex 4.123126e-02 6.142388e-02 2.268433e-03
      vertex 4.213266e-02 6.215568e-02 1.999825e-03
      vertex 3.682243e-02 5.784457e-02 6.500000e-03
    endloop
  endfacet
  facet normal 6.302887e-01 -7.763609e-01 -8.654056e-14
    outer loop
      vertex 3.682243e-02 5.784457e-02 2.500000e-03
      vertex 4.042781e-02 6.077160e-02 2.500000e-03
      vertex 3.682243e-02 5.784457e-02 6.500000e-03
    endloop
  endfacet
  facet normal 6.302887e-01 -7.763609e-01 -7.740066e-14
    outer loop
      vertex 4.123126e-02 6.142388e-02 2.268433e-03
      vertex 3.682243e-02 5.784457e-02 6.500000e-03
      vertex 4.042781e-02 6.077160e-02 2.500000e-03
    endloop
  endfacet
  facet normal 3.354752e-01 -9.420490e-01 -1.180995e-13
    outer loop
      vertex 3.235331e-02 5.093562e-02 1.999942e-03
      vertex 3.235331e-02 5.093562e-02 6.500000e-03
      vertex 3.100638e-02 5.045596e-02 6.500000e-03
    endloop
  endfacet
  facet normal 8.396469e-01 -5.431327e-01 -5.216890e-14
    outer loop
      vertex 3.336694e-02 5.250261e-02 2.281206e-03
      vertex 3.235331e-02 5.093562e-02 6.500000e-03
      vertex 3.235331e-02 5.093562e-02 1.999942e-03
    endloop
  endfacet
  facet normal 8.396469e-01 -5.431327e-01 -4.757782e-14
    outer loop
      vertex 3.682243e-02 5.784457e-02 2.500000e-03
      vertex 3.235331e-02 5.093562e-02 6.500000e-03
      vertex 3.418267e-02 5.376368e-02 2.500000e-03
    endloop
  endfacet
  facet normal 8.396469e-01 -5.431327e-01 -4.718977e-14
    outer loop
      vertex 3.336694e-02 5.250261e-02 2.281206e-03
      vertex 3.418267e-02 5.376368e-02 2.500000e-03
      vertex 3.235331e-02 5.093562e-02 6.500000e-03
    endloop
  endfacet
  facet normal -2.079843e-14 -1.319162e-13 1.000000e+00
    outer loop
      vertex 7.270701e-03 1.157851e-02 6.500000e-03
      vertex -9.214531e-04 1.358023e-02 6.500000e-03
      vertex 5.580380e-03 8.919095e-03 6.500000e-03
    endloop
  endfacet
  facet normal -3.578484e-14 -1.223908e-13 1.000000e+00
    outer loop
      vertex 5.752585e-03 9.159305e-03 6.500000e-03
      vertex 7.270701e-03 1.157851e-02 6.500000e-03
      vertex 5.580380e-03 8.919095e-03 6.500000e-03
    endloop
  endfacet
  facet normal -2.079807e-14 -1.321457e-13 1.000000e+00
    outer loop
      vertex 8.693647e-03 1.437735e-02 6.500000e-03
      vertex 9.814252e-04 1.620158e-02 6.500000e-03
      vertex -9.214531e-04 1.358023e-02 6.500000e-03
    endloop
  endfacet
  facet normal -2.081237e-14 -1.319732e-13 1.000000e+00
    outer loop
      vertex 7.270701e-03 1.157851e-02 6.500000e-03
      vertex 8.693647e-03 1.437735e-02 6.500000e-03
      vertex -9.214531e-04 1.358023e-02 6.500000e-03
    endloop
  endfacet
  facet normal -2.073667e-14 -1.318860e-13 1.000000e+00
    outer loop
      vertex 8.693647e-03 1.437735e-02 6.500000e-03
      vertex 3.217687e-03 1.830304e-02 6.500000e-03
      vertex 9.814252e-04 1.620158e-02 6.500000e-03
    endloop
  endfacet
  facet normal 2.222723e-01 3.100485e-01 9.243727e-01
    outer loop
      vertex 9.227633e-03 1.551317e-02 5.990627e-03
      vertex 3.217687e-03 1.830304e-02 6.500000e-03
      vertex 8.693647e-03 1.437735e-02 6.500000e-03
    endloop
  endfacet
  facet normal 2.236152e-01 3.131942e-01 9.229873e-01
    outer loop
      vertex 9.227633e-03 1.551317e-02 5.990627e-03
      vertex 4.275292e-03 1.907379e-02 5.982233e-03
      vertex 3.217687e-03 1.830304e-02 6.500000e-03
    endloop
  endfacet
  facet normal 9.046136e-01 -4.262274e-01 -2.095239e-03
    outer loop
      vertex 9.667368e-03 1.645862e-02 3.516300e-03
      vertex 9.227633e-03 1.551317e-02 5.990627e-03
      vertex 8.693647e-03 1.437735e-02 6.500000e-03
    endloop
  endfacet
  facet normal 2.412945e-01 5.296038e-02 9.690058e-01
    outer loop
      vertex 4.042781e-02 6.077160e-02 2.500000e-03
      vertex 4.246623e-02 6.063248e-02 2.000012e-03
      vertex 4.213266e-02 6.215568e-02 1.999825e-03
    endloop
  endfacet
  facet normal 6.302887e-01 -7.763609e-01 1.184683e-12
    outer loop
      vertex 4.123126e-02 6.142388e-02 2.268433e-03
      vertex 4.042781e-02 6.077160e-02 2.500000e-03
      vertex 4.213266e-02 6.215568e-02 1.999825e-03
    endloop
  endfacet
  facet normal 8.324770e-02 -2.279751e-01 9.701016e-01
    outer loop
      vertex 3.336694e-02 5.250261e-02 2.281206e-03
      vertex 3.235331e-02 5.093562e-02 1.999942e-03
      vertex 3.384717e-02 5.148137e-02 2.000003e-03
    endloop
  endfacet
  facet normal 9.039649e-02 -2.257860e-01 9.699738e-01
    outer loop
      vertex 3.418267e-02 5.376368e-02 2.500000e-03
      vertex 3.384717e-02 5.148137e-02 2.000003e-03
      vertex 3.524995e-02 5.204302e-02 2.000008e-03
    endloop
  endfacet
  facet normal 8.846107e-02 -2.255525e-01 9.702065e-01
    outer loop
      vertex 3.336694e-02 5.250261e-02 2.281206e-03
      vertex 3.384717e-02 5.148137e-02 2.000003e-03
      vertex 3.418267e-02 5.376368e-02 2.500000e-03
    endloop
  endfacet
  facet normal 1.014744e-01 -2.190453e-01 9.704237e-01
    outer loop
      vertex 3.418267e-02 5.376368e-02 2.500000e-03
      vertex 3.524995e-02 5.204302e-02 2.000008e-03
      vertex 3.654674e-02 5.264369e-02 1.999990e-03
    endloop
  endfacet
  facet normal 1.107729e-01 -2.007307e-01 9.733635e-01
    outer loop
      vertex 3.418267e-02 5.376368e-02 2.500000e-03
      vertex 3.654674e-02 5.264369e-02 1.999990e-03
      vertex 3.772892e-02 5.329606e-02 1.999988e-03
    endloop
  endfacet
  facet normal 1.150668e-01 -1.732646e-01 9.781304e-01
    outer loop
      vertex 3.418267e-02 5.376368e-02 2.500000e-03
      vertex 3.772892e-02 5.329606e-02 1.999988e-03
      vertex 3.877674e-02 5.399203e-02 2.000007e-03
    endloop
  endfacet
  facet normal 1.546562e-01 -1.896212e-01 9.696006e-01
    outer loop
      vertex 3.824047e-02 5.611130e-02 2.500000e-03
      vertex 3.877674e-02 5.399203e-02 2.000007e-03
      vertex 3.990249e-02 5.491021e-02 2.000009e-03
    endloop
  endfacet
  facet normal 1.158351e-01 -2.002183e-01 9.728797e-01
    outer loop
      vertex 3.418267e-02 5.376368e-02 2.500000e-03
      vertex 3.877674e-02 5.399203e-02 2.000007e-03
      vertex 3.824047e-02 5.611130e-02 2.500000e-03
    endloop
  endfacet
  facet normal 1.720815e-01 -1.660836e-01 9.709811e-01
    outer loop
      vertex 3.824047e-02 5.611130e-02 2.500000e-03
      vertex 3.990249e-02 5.491021e-02 2.000009e-03
      vertex 4.082824e-02 5.586939e-02 2.000008e-03
    endloop
  endfacet
  facet normal 1.764600e-01 -1.291893e-01 9.757930e-01
    outer loop
      vertex 3.824047e-02 5.611130e-02 2.500000e-03
      vertex 4.082824e-02 5.586939e-02 2.000008e-03
      vertex 4.155501e-02 5.686195e-02 1.999989e-03
    endloop
  endfacet
  facet normal 2.171134e-01 -1.118097e-01 9.697218e-01
    outer loop
      vertex 4.018777e-02 5.854360e-02 2.500000e-03
      vertex 4.155501e-02 5.686195e-02 1.999989e-03
      vertex 4.207565e-02 5.787276e-02 1.999970e-03
    endloop
  endfacet
  facet normal 1.793352e-01 -1.435752e-01 9.732549e-01
    outer loop
      vertex 3.824047e-02 5.611130e-02 2.500000e-03
      vertex 4.155501e-02 5.686195e-02 1.999989e-03
      vertex 4.018777e-02 5.854360e-02 2.500000e-03
    endloop
  endfacet
  facet normal 2.340665e-01 -6.437243e-02 9.700871e-01
    outer loop
      vertex 4.018777e-02 5.854360e-02 2.500000e-03
      vertex 4.207565e-02 5.787276e-02 1.999970e-03
      vertex 4.244655e-02 5.922336e-02 2.000099e-03
    endloop
  endfacet
  facet normal 2.169363e-01 -2.968752e-03 9.761812e-01
    outer loop
      vertex 4.018777e-02 5.854360e-02 2.500000e-03
      vertex 4.244655e-02 5.922336e-02 2.000099e-03
      vertex 4.246623e-02 6.063248e-02 2.000012e-03
    endloop
  endfacet
  facet normal 2.365029e-01 -2.548029e-02 9.712966e-01
    outer loop
      vertex 4.018777e-02 5.854360e-02 2.500000e-03
      vertex 4.246623e-02 6.063248e-02 2.000012e-03
      vertex 4.042781e-02 6.077160e-02 2.500000e-03
    endloop
  endfacet
  facet normal -2.070444e-14 -1.318683e-13 1.000000e+00
    outer loop
      vertex 1.384689e-02 3.608457e-02 2.900000e-03
      vertex 1.059020e-02 4.107516e-02 2.900000e-03
      vertex 9.327413e-03 3.787287e-02 2.900000e-03
    endloop
  endfacet
  facet normal -8.848240e-01 4.659255e-01 1.134514e-12
    outer loop
      vertex 1.059020e-02 4.107516e-02 3.000000e-03
      vertex 1.065675e-02 4.120156e-02 3.000000e-03
      vertex 1.059020e-02 4.107516e-02 2.900000e-03
    endloop
  endfacet
  facet normal -8.374604e-01 -5.464981e-01 -1.591953e-13
    outer loop
      vertex 1.384689e-02 3.608457e-02 2.900000e-03
      vertex 1.059020e-02 4.107516e-02 3.000000e-03
      vertex 1.059020e-02 4.107516e-02 2.900000e-03
    endloop
  endfacet
  facet normal -2.072373e-14 -1.319171e-13 1.000000e+00
    outer loop
      vertex 1.384689e-02 3.608457e-02 2.900000e-03
      vertex 9.327413e-03 3.787287e-02 2.900000e-03
      vertex 8.594626e-03 3.397721e-02 2.900000e-03
    endloop
  endfacet
  facet normal -2.070184e-14 -1.320888e-13 1.000000e+00
    outer loop
      vertex 1.312977e-02 3.268858e-02 2.900000e-03
      vertex 8.594626e-03 3.397721e-02 2.900000e-03
      vertex 8.167368e-03 2.967416e-02 2.900000e-03
    endloop
  endfacet
  facet normal -2.068234e-14 -1.320202e-13 1.000000e+00
    outer loop
      vertex 1.384689e-02 3.608457e-02 2.900000e-03
      vertex 8.594626e-03 3.397721e-02 2.900000e-03
      vertex 1.312977e-02 3.268858e-02 2.900000e-03
    endloop
  endfacet
  facet normal -2.068175e-14 -1.318315e-13 1.000000e+00
    outer loop
      vertex 1.278677e-02 2.832115e-02 2.900000e-03
      vertex 8.167368e-03 2.967416e-02 2.900000e-03
      vertex 7.710646e-03 2.601863e-02 2.900000e-03
    endloop
  endfacet
  facet normal -2.073912e-14 -1.320274e-13 1.000000e+00
    outer loop
      vertex 1.312977e-02 3.268858e-02 2.900000e-03
      vertex 8.167368e-03 2.967416e-02 2.900000e-03
      vertex 1.278677e-02 2.832115e-02 2.900000e-03
    endloop
  endfacet
  facet normal -2.065259e-14 -1.320197e-13 1.000000e+00
    outer loop
      vertex 1.211485e-02 2.302361e-02 2.900000e-03
      vertex 7.710646e-03 2.601863e-02 2.900000e-03
      vertex 5.942486e-03 2.096373e-02 2.900000e-03
    endloop
  endfacet
  facet normal -2.061888e-14 -1.319701e-13 1.000000e+00
    outer loop
      vertex 1.278677e-02 2.832115e-02 2.900000e-03
      vertex 7.710646e-03 2.601863e-02 2.900000e-03
      vertex 1.211485e-02 2.302361e-02 2.900000e-03
    endloop
  endfacet
  facet normal 5.826417e-01 8.127291e-01 1.138954e-13
    outer loop
      vertex 1.029432e-02 1.784391e-02 3.000000e-03
      vertex 5.942486e-03 2.096373e-02 2.900000e-03
      vertex 5.942486e-03 2.096373e-02 3.000000e-03
    endloop
  endfacet
  facet normal -2.066782e-14 -1.319741e-13 1.000000e+00
    outer loop
      vertex 1.211485e-02 2.302361e-02 2.900000e-03
      vertex 5.942486e-03 2.096373e-02 2.900000e-03
      vertex 1.029432e-02 1.784391e-02 2.900000e-03
    endloop
  endfacet
  facet normal 5.826417e-01 8.127291e-01 9.682330e-14
    outer loop
      vertex 1.029432e-02 1.784391e-02 3.000000e-03
      vertex 1.029432e-02 1.784391e-02 2.900000e-03
      vertex 5.942486e-03 2.096373e-02 2.900000e-03
    endloop
  endfacet
  facet normal -2.191450e-14 -1.337131e-13 1.000000e+00
    outer loop
      vertex 1.029432e-02 1.784391e-02 3.000000e-03
      vertex 5.942486e-03 2.096373e-02 3.000000e-03
      vertex 5.873870e-03 2.085821e-02 3.000000e-03
    endloop
  endfacet
  facet normal -2.126226e-14 -1.327566e-13 1.000000e+00
    outer loop
      vertex 1.029432e-02 1.784391e-02 3.000000e-03
      vertex 5.873870e-03 2.085821e-02 3.000000e-03
      vertex 5.804603e-03 2.075497e-02 3.000000e-03
    endloop
  endfacet
  facet normal 2.218982e-01 3.095266e-01 9.246375e-01
    outer loop
      vertex 1.019090e-02 1.761045e-02 3.000000e-03
      vertex 5.804603e-03 2.075497e-02 3.000000e-03
      vertex 5.035732e-03 1.978965e-02 3.507659e-03
    endloop
  endfacet
  facet normal -2.075898e-14 -1.319804e-13 1.000000e+00
    outer loop
      vertex 1.029432e-02 1.784391e-02 3.000000e-03
      vertex 5.804603e-03 2.075497e-02 3.000000e-03
      vertex 1.019090e-02 1.761045e-02 3.000000e-03
    endloop
  endfacet
  facet normal 5.384994e-01 7.497527e-01 3.845637e-01
    outer loop
      vertex 9.667368e-03 1.645862e-02 3.516300e-03
      vertex 5.035732e-03 1.978965e-02 3.507659e-03
      vertex 4.666146e-03 1.941788e-02 4.750000e-03
    endloop
  endfacet
  facet normal 2.230348e-01 3.125132e-01 9.233585e-01
    outer loop
      vertex 1.019090e-02 1.761045e-02 3.000000e-03
      vertex 5.035732e-03 1.978965e-02 3.507659e-03
      vertex 9.667368e-03 1.645862e-02 3.516300e-03
    endloop
  endfacet
  facet normal 5.387574e-01 7.515147e-01 3.807442e-01
    outer loop
      vertex 9.449442e-03 1.598876e-02 4.750000e-03
      vertex 4.666146e-03 1.941788e-02 4.750000e-03
      vertex 4.275292e-03 1.907379e-02 5.982233e-03
    endloop
  endfacet
  facet normal 5.386263e-01 7.513318e-01 3.812902e-01
    outer loop
      vertex 9.667368e-03 1.645862e-02 3.516300e-03
      vertex 4.666146e-03 1.941788e-02 4.750000e-03
      vertex 9.449442e-03 1.598876e-02 4.750000e-03
    endloop
  endfacet
  facet normal 5.386161e-01 7.500467e-01 3.838263e-01
    outer loop
      vertex 9.449442e-03 1.598876e-02 4.750000e-03
      vertex 4.275292e-03 1.907379e-02 5.982233e-03
      vertex 9.227633e-03 1.551317e-02 5.990627e-03
    endloop
  endfacet
  facet normal -7.860954e-01 6.178144e-01 -1.895664e-02
    outer loop
      vertex 1.174041e-02 4.297223e-02 4.750000e-03
      vertex 1.205578e-02 4.341120e-02 5.978821e-03
      vertex 1.242293e-02 4.389016e-02 6.363841e-03
    endloop
  endfacet
  facet normal -4.692966e-01 -3.060949e-01 8.282914e-01
    outer loop
      vertex 1.549852e-02 3.917089e-02 6.362417e-03
      vertex 1.242293e-02 4.389016e-02 6.363841e-03
      vertex 1.205578e-02 4.341120e-02 5.978821e-03
    endloop
  endfacet
  facet normal -7.541116e-01 6.545725e-01 -5.339062e-02
    outer loop
      vertex 1.144018e-02 4.252688e-02 3.530573e-03
      vertex 1.174041e-02 4.297223e-02 4.750000e-03
      vertex 1.242293e-02 4.389016e-02 6.363841e-03
    endloop
  endfacet
  facet normal -7.750909e-01 -5.052517e-01 3.794137e-01
    outer loop
      vertex 1.513478e-02 3.868415e-02 5.973948e-03
      vertex 1.205578e-02 4.341120e-02 5.978821e-03
      vertex 1.174041e-02 4.297223e-02 4.750000e-03
    endloop
  endfacet
  facet normal -4.711020e-01 -3.077076e-01 8.266674e-01
    outer loop
      vertex 1.549852e-02 3.917089e-02 6.362417e-03
      vertex 1.205578e-02 4.341120e-02 5.978821e-03
      vertex 1.513478e-02 3.868415e-02 5.973948e-03
    endloop
  endfacet
  facet normal -7.760078e-01 -5.063962e-01 3.759983e-01
    outer loop
      vertex 1.483631e-02 3.822803e-02 4.750000e-03
      vertex 1.174041e-02 4.297223e-02 4.750000e-03
      vertex 1.144018e-02 4.252688e-02 3.530573e-03
    endloop
  endfacet
  facet normal -7.754385e-01 -5.060247e-01 3.776694e-01
    outer loop
      vertex 1.513478e-02 3.868415e-02 5.973948e-03
      vertex 1.174041e-02 4.297223e-02 4.750000e-03
      vertex 1.483631e-02 3.822803e-02 4.750000e-03
    endloop
  endfacet
  facet normal -4.749315e-01 -3.103949e-01 8.234653e-01
    outer loop
      vertex 1.427528e-02 3.717327e-02 3.147734e-03
      vertex 1.144018e-02 4.252688e-02 3.530573e-03
      vertex 1.111110e-02 4.200218e-02 3.142994e-03
    endloop
  endfacet
  facet normal -4.789650e-01 -3.123116e-01 8.203987e-01
    outer loop
      vertex 1.456195e-02 3.775080e-02 3.534953e-03
      vertex 1.144018e-02 4.252688e-02 3.530573e-03
      vertex 1.427528e-02 3.717327e-02 3.147734e-03
    endloop
  endfacet
  facet normal -7.763115e-01 -5.070740e-01 3.744547e-01
    outer loop
      vertex 1.483631e-02 3.822803e-02 4.750000e-03
      vertex 1.144018e-02 4.252688e-02 3.530573e-03
      vertex 1.456195e-02 3.775080e-02 3.534953e-03
    endloop
  endfacet
  facet normal -1.696778e-01 -1.102218e-01 9.793164e-01
    outer loop
      vertex 1.427528e-02 3.717327e-02 3.147734e-03
      vertex 1.111110e-02 4.200218e-02 3.142994e-03
      vertex 1.072426e-02 4.132718e-02 3.000000e-03
    endloop
  endfacet
  facet normal -2.074881e-14 -1.319705e-13 1.000000e+00
    outer loop
      vertex 1.059020e-02 4.107516e-02 3.000000e-03
      vertex 1.072426e-02 4.132718e-02 3.000000e-03
      vertex 1.065675e-02 4.120156e-02 3.000000e-03
    endloop
  endfacet
  facet normal -2.200143e-14 -1.328485e-13 1.000000e+00
    outer loop
      vertex 1.395100e-02 3.638248e-02 3.000000e-03
      vertex 1.072426e-02 4.132718e-02 3.000000e-03
      vertex 1.059020e-02 4.107516e-02 3.000000e-03
    endloop
  endfacet
  facet normal -1.720562e-01 -1.122780e-01 9.786676e-01
    outer loop
      vertex 1.427528e-02 3.717327e-02 3.147734e-03
      vertex 1.072426e-02 4.132718e-02 3.000000e-03
      vertex 1.395100e-02 3.638248e-02 3.000000e-03
    endloop
  endfacet
  facet normal -8.374604e-01 -5.464981e-01 -1.339523e-13
    outer loop
      vertex 1.384689e-02 3.608457e-02 3.000000e-03
      vertex 1.059020e-02 4.107516e-02 3.000000e-03
      vertex 1.384689e-02 3.608457e-02 2.900000e-03
    endloop
  endfacet
  facet normal -2.324319e-14 -1.335250e-13 1.000000e+00
    outer loop
      vertex 1.389826e-02 3.623478e-02 3.000000e-03
      vertex 1.059020e-02 4.107516e-02 3.000000e-03
      vertex 1.384689e-02 3.608457e-02 3.000000e-03
    endloop
  endfacet
  facet normal -1.674525e-14 -1.290841e-13 1.000000e+00
    outer loop
      vertex 1.395100e-02 3.638248e-02 3.000000e-03
      vertex 1.059020e-02 4.107516e-02 3.000000e-03
      vertex 1.389826e-02 3.623478e-02 3.000000e-03
    endloop
  endfacet
  facet normal 9.147108e-01 -4.041091e-01 3.543011e-14
    outer loop
      vertex 1.029432e-02 1.784391e-02 3.000000e-03
      vertex 1.024278e-02 1.772726e-02 3.000000e-03
      vertex 1.029432e-02 1.784391e-02 2.900000e-03
    endloop
  endfacet
  facet normal 7.541077e-01 -6.469262e-01 -1.131725e-01
    outer loop
      vertex 9.667368e-03 1.645862e-02 3.516300e-03
      vertex 9.449442e-03 1.598876e-02 4.750000e-03
      vertex 9.227633e-03 1.551317e-02 5.990627e-03
    endloop
  endfacet
  facet normal -2.074881e-14 -1.319705e-13 1.000000e+00
    outer loop
      vertex 1.029432e-02 1.784391e-02 3.000000e-03
      vertex 1.019090e-02 1.761045e-02 3.000000e-03
      vertex 1.024278e-02 1.772726e-02 3.000000e-03
    endloop
  endfacet
  facet normal -2.080435e-14 -1.318728e-13 1.000000e+00
    outer loop
      vertex 3.682243e-02 5.784457e-02 2.500000e-03
      vertex 4.018777e-02 5.854360e-02 2.500000e-03
      vertex 4.042781e-02 6.077160e-02 2.500000e-03
    endloop
  endfacet
  facet normal -2.080545e-14 -1.318675e-13 1.000000e+00
    outer loop
      vertex 3.682243e-02 5.784457e-02 2.500000e-03
      vertex 3.824047e-02 5.611130e-02 2.500000e-03
      vertex 4.018777e-02 5.854360e-02 2.500000e-03
    endloop
  endfacet
  facet normal -2.091428e-14 -1.319565e-13 1.000000e+00
    outer loop
      vertex 3.682243e-02 5.784457e-02 2.500000e-03
      vertex 3.418267e-02 5.376368e-02 2.500000e-03
      vertex 3.824047e-02 5.611130e-02 2.500000e-03
    endloop
  endfacet
endsolid ASM0002
